<svg width="100" height="76" viewBox="0 0 100 76" fill="none" xmlns="http://www.w3.org/2000/svg">
<path d="M98.778 22.114L52.5458 0.932775C50.9165 0.118111 49.0835 0.118111 47.4542 0.932775L1.222 22.114C-0.407332 22.9287 -0.407332 25.169 1.222 25.78L47.4542 45.332C48.8798 45.943 50.7128 45.943 52.1385 45.332L98.3707 25.78C100.204 25.169 100.407 22.9287 98.778 22.114ZM84.3177 24.3544C84.1141 24.7617 83.9104 24.9654 83.5031 25.169H83.2994L72.7088 30.057L71.2831 26.391L79.0224 23.5397L49.8982 8.67208L83.5031 22.3177C84.1141 22.725 84.5214 23.5397 84.3177 24.3544Z" fill="#4DA2D6"/>
<path d="M9.16493 61.218V34.3341L5.09161 32.0938V61.218C3.25862 62.0326 2.03662 63.8656 2.03662 65.9023C2.03662 68.7536 4.27695 70.994 7.12827 70.994C9.97959 70.994 12.2199 68.7536 12.2199 65.9023C12.2199 63.8656 10.9979 62.0326 9.16493 61.218Z" fill="#5CCC81"/>
<path d="M53.9716 49.2016C52.7496 49.8126 51.324 50.0163 50.102 50.0163C48.88 50.0163 47.4543 49.8126 46.2323 49.2016L19.3484 38V59.7923C19.3484 62.8473 20.9777 65.4949 23.6254 66.9206L30.55 70.5866C42.5663 77.1039 57.0266 77.1039 69.2466 70.5866L76.1712 66.9206C78.8189 65.4949 80.4482 62.6436 80.4482 59.7923V38L53.9716 49.2016Z" fill="#4DA2D6"/>
</svg>
