<svg width="100" height="120" viewBox="0 0 100 120" fill="none" xmlns="http://www.w3.org/2000/svg">
<path d="M64.3774 86.0727C64.3774 86.9311 73.8195 87.5748 73.8195 87.5748C74.6779 87.5748 75.3216 86.9311 75.3216 86.0727C75.3216 86.0727 74.6779 76.8452 73.8195 76.8452C72.9611 76.8452 72.3174 84.3559 72.3174 84.3559C72.3174 84.3559 64.3774 85.2143 64.3774 86.0727Z" fill="#5CCC81"/>
<path d="M100 48.09C100 46.8025 87.9828 45.5149 87.9828 45.5149V38.648C87.9828 38.648 100 37.575 100 36.0728C100 34.7853 87.9828 33.4977 87.9828 33.4977V29.4205C87.9828 28.7767 87.7682 28.1329 87.3391 27.7038L80.0429 20.4076C79.6137 19.9784 78.97 19.7638 78.3262 19.7638H74.2489C74.2489 19.7638 73.176 7.74667 71.6738 7.74667C70.3863 7.74667 69.0987 19.7638 69.0987 19.7638H62.2318C62.2318 19.7638 61.1588 7.74667 59.6567 7.74667C58.3691 7.74667 57.0816 19.7638 57.0816 19.7638H51.7167V11.1801C51.7167 6.45911 48.4979 1.95267 43.7768 0.879713C38.6266 -0.193249 33.9056 2.59645 32.1888 6.8883C34.1202 7.31748 37.3391 13.9698 35.4077 13.1115C33.2618 12.2531 31.1159 11.6093 28.97 11.6093C19.3133 11.8239 11.588 19.7638 11.588 29.2059C11.588 32.2102 12.4464 35.2145 13.7339 37.7896C14.3777 39.2917 30.0429 34.1415 12.4464 41.4377C4.93562 44.4419 0 51.7381 0 60.1072C0 68.2617 4.72103 76.4162 12.4464 78.5621C15.0215 79.4205 16.9528 74.2703 17.1674 75.1286C17.382 75.7724 13.9485 81.5664 13.7339 82.2102C12.2318 84.7853 11.588 87.7896 11.588 90.7939C11.588 100.451 19.3133 108.39 28.97 108.39C31.1159 108.39 33.4764 107.747 35.4077 106.888C37.3391 106.03 33.9056 112.897 32.1888 113.111C34.1202 117.403 38.8412 120.193 43.7768 119.12C48.4979 118.047 51.7167 113.541 51.7167 108.82V80.4935C51.7167 78.1329 49.7854 76.2016 47.4249 76.2016C45.0644 76.2016 42.7039 76.8454 40.7725 77.9184L33.691 81.5664L39.2704 76.6308C41.6309 74.4849 44.4206 73.4119 47.6395 73.4119C50 73.4119 51.9313 71.4806 51.9313 69.1201V66.9741C51.9313 64.6136 50 62.6823 47.6395 62.6823H36.2661C35.1931 66.3304 31.7597 69.1201 27.6824 69.1201C22.103 69.1201 17.5966 63.9698 19.0987 57.9613C19.7425 54.7424 22.3176 52.1673 25.5365 51.5235C30.4721 50.2359 34.9785 53.2402 36.2661 57.7467H47.6395C50 57.7467 51.9313 55.8153 51.9313 53.4548V51.3089C51.9313 48.9484 50 47.0171 47.6395 47.0171C44.6352 47.0171 41.8455 45.9441 39.6996 44.0128L33.9056 38.8625L40.9871 42.5106C43.1331 43.5836 45.279 44.2274 47.6395 44.2274C50 44.2274 51.9313 42.296 51.9313 39.9355V25.3432H77.2532L83.0472 31.1372V89.7209L77.0386 95.0857H51.7167V100.021H57.0816C57.0816 100.021 58.1545 112.039 59.6567 112.039C61.1588 112.039 62.2318 100.021 62.2318 100.021H69.0987C69.0987 100.021 70.1717 112.039 71.6738 112.039C72.9614 112.039 74.2489 100.021 74.2489 100.021H78.3262C78.97 100.021 79.6137 99.8068 80.0429 99.3776L87.3391 92.0814C87.7682 91.6523 87.9828 91.0085 87.9828 90.3647V86.2875C87.9828 86.2875 100 85.2145 100 83.7123C100 82.4248 87.9828 81.1372 87.9828 81.1372V74.2703C87.9828 74.2703 100 73.1973 100 71.6952C100 70.4076 87.9828 69.1201 87.9828 69.1201V62.2531C87.9828 62.2531 100 61.1801 100 59.678C100 58.3904 87.9828 57.1029 87.9828 57.1029V50.2359C87.9828 50.6651 100 49.5922 100 48.09Z" fill="#4DA2D6"/>
<path d="M73.8195 43.1544C74.6779 43.1544 75.5362 34.1415 75.5362 34.1415C75.5362 33.2832 74.8925 32.4248 73.8195 32.4248C73.8195 32.4248 64.3774 33.0686 64.3774 33.927C64.3774 34.7853 72.3174 35.4291 72.3174 35.4291C72.3174 35.4291 72.9611 43.1544 73.8195 43.1544Z" fill="#5CCC81"/>
</svg>
