<svg width="189" height="210" viewBox="0 0 189 210" fill="none" xmlns="http://www.w3.org/2000/svg">
<g style="mix-blend-mode:multiply">
<path fill-rule="evenodd" clip-rule="evenodd" d="M29.7266 3.12483L32.851 3.12483L32.851 4.37473L29.7266 4.37473L29.7266 7.49945L28.4767 7.49945L28.4767 4.37473L25.3516 4.37473L25.3516 3.12483L28.4767 3.12483L28.4767 2.45872e-07L29.7266 1.91237e-07L29.7266 3.12483Z" fill="#DAE3F1"/>
<path fill-rule="evenodd" clip-rule="evenodd" d="M29.7305 205.43L32.8549 205.43L32.8549 206.68L29.7305 206.68L29.7305 209.805L28.4806 209.805L28.4806 206.68L25.3555 206.68L25.3555 205.43L28.4806 205.43L28.4806 202.305L29.7305 202.305L29.7305 205.43Z" fill="#DAE3F1"/>
<path fill-rule="evenodd" clip-rule="evenodd" d="M29.7266 53.7014L32.851 53.7014L32.851 54.9513L29.7266 54.9513L29.7266 58.0761L28.4767 58.0761L28.4767 54.9513L25.3516 54.9513L25.3516 53.7014L28.4767 53.7014L28.4767 50.5767L29.7266 50.5767L29.7266 53.7014Z" fill="#DAE3F1"/>
<path fill-rule="evenodd" clip-rule="evenodd" d="M29.7344 28.4128L32.8549 28.4128L32.8549 29.6627L29.7344 29.6627L29.7344 32.7875L28.4845 32.7875L28.4845 29.6627L25.3555 29.6627L25.3555 28.4128L28.4845 28.4128L28.4845 25.2881L29.7344 25.2881L29.7344 28.4128Z" fill="#DAE3F1"/>
<path fill-rule="evenodd" clip-rule="evenodd" d="M29.7305 78.9896L32.8549 78.9896L32.8549 80.2395L29.7305 80.2395L29.7305 83.3642L28.4806 83.3642L28.4806 80.2395L25.3555 80.2395L25.3555 78.9896L28.4806 78.9896L28.4806 75.8647L29.7305 75.8647L29.7305 78.9896Z" fill="#DAE3F1"/>
<path fill-rule="evenodd" clip-rule="evenodd" d="M29.7305 104.277L32.851 104.277L32.851 105.527L29.7305 105.527L29.7305 108.652L28.4806 108.652L28.4806 105.527L25.3516 105.527L25.3516 104.277L28.4806 104.277L28.4806 101.153L29.7305 101.153L29.7305 104.277Z" fill="#DAE3F1"/>
<path fill-rule="evenodd" clip-rule="evenodd" d="M29.7305 154.854L32.8549 154.854L32.8549 156.104L29.7305 156.104L29.7305 159.228L28.4806 159.228L28.4806 156.104L25.3555 156.104L25.3555 154.854L28.4806 154.854L28.4806 151.729L29.7305 151.729L29.7305 154.854Z" fill="#DAE3F1"/>
<path fill-rule="evenodd" clip-rule="evenodd" d="M29.7266 129.566L32.851 129.566L32.851 130.816L29.7266 130.816L29.7266 133.94L28.4767 133.94L28.4767 130.816L25.3516 130.816L25.3516 129.566L28.4767 129.566L28.4767 126.441L29.7266 126.441L29.7266 129.566Z" fill="#DAE3F1"/>
<path fill-rule="evenodd" clip-rule="evenodd" d="M29.7266 180.142L32.851 180.142L32.851 181.392L29.7266 181.392L29.7266 184.517L28.4767 184.517L28.4767 181.392L25.3516 181.392L25.3516 180.142L28.4767 180.142L28.4767 177.017L29.7266 177.017L29.7266 180.142Z" fill="#DAE3F1"/>
<path fill-rule="evenodd" clip-rule="evenodd" d="M4.37891 3.12529L7.49945 3.12529L7.49945 4.3752L4.37891 4.3752L4.37891 7.49969L3.129 7.49969L3.129 4.3752L-1.91235e-07 4.3752L-1.366e-07 3.12529L3.129 3.12529L3.129 0.000244387L4.37891 0.000244332L4.37891 3.12529Z" fill="#DAE3F1"/>
<path fill-rule="evenodd" clip-rule="evenodd" d="M55.0898 3.12519L58.2143 3.12519L58.2143 4.3751L55.0898 4.3751L55.0898 7.49993L53.8399 7.49993L53.8399 4.3751L50.7148 4.3751L50.7148 3.12519L53.8399 3.12519L53.8399 0.000488527L55.0898 0.000488472L55.0898 3.12519Z" fill="#DAE3F1"/>
<path fill-rule="evenodd" clip-rule="evenodd" d="M4.37891 205.43L7.49945 205.43L7.49945 206.68L4.37891 206.68L4.37891 209.805L3.129 209.805L3.129 206.68L-1.91213e-07 206.68L-1.36577e-07 205.43L3.129 205.43L3.129 202.305L4.37891 202.305L4.37891 205.43Z" fill="#DAE3F1"/>
<path fill-rule="evenodd" clip-rule="evenodd" d="M55.0898 205.43L58.2143 205.43L58.2143 206.68L55.0898 206.68L55.0898 209.805L53.8399 209.805L53.8399 206.68L50.7148 206.68L50.7148 205.43L53.8399 205.43L53.8399 202.306L55.0898 202.306L55.0898 205.43Z" fill="#DAE3F1"/>
<path fill-rule="evenodd" clip-rule="evenodd" d="M4.37891 53.7012L7.49945 53.7012L7.49945 54.9511L4.37891 54.9511L4.37891 58.0759L3.129 58.0759L3.129 54.9511L-1.91222e-07 54.9511L-1.36587e-07 53.7012L3.129 53.7012L3.129 50.5764L4.37891 50.5764L4.37891 53.7012Z" fill="#DAE3F1"/>
<path fill-rule="evenodd" clip-rule="evenodd" d="M55.0898 53.7011L58.2143 53.7011L58.2143 54.951L55.0898 54.951L55.0898 58.0759L53.8399 58.0759L53.8399 54.951L50.7148 54.951L50.7148 53.7011L53.8399 53.7011L53.8399 50.5764L55.0898 50.5764L55.0898 53.7011Z" fill="#DAE3F1"/>
<path fill-rule="evenodd" clip-rule="evenodd" d="M4.37891 28.413L7.49945 28.413L7.49945 29.6629L4.37891 29.6629L4.37891 32.7878L3.129 32.7878L3.129 29.6629L-1.91221e-07 29.6629L-1.36585e-07 28.413L3.129 28.413L3.129 25.2883L4.37891 25.2883L4.37891 28.413Z" fill="#DAE3F1"/>
<path fill-rule="evenodd" clip-rule="evenodd" d="M55.0898 28.4135L58.2143 28.4135L58.2143 29.6634L55.0898 29.6634L55.0898 32.788L53.8399 32.788L53.8399 29.6634L50.7148 29.6634L50.7148 28.4135L53.8399 28.4135L53.8399 25.2886L55.0898 25.2886L55.0898 28.4135Z" fill="#DAE3F1"/>
<path fill-rule="evenodd" clip-rule="evenodd" d="M4.37891 78.989L7.49945 78.989L7.49945 80.2389L4.37891 80.2389L4.37891 83.3639L3.129 83.3639L3.129 80.2389L-1.91212e-07 80.2389L-1.36577e-07 78.989L3.129 78.989L3.129 75.8645L4.37891 75.8645L4.37891 78.989Z" fill="#DAE3F1"/>
<path fill-rule="evenodd" clip-rule="evenodd" d="M55.0898 78.9895L58.2143 78.9895L58.2143 80.2394L55.0898 80.2394L55.0898 83.3642L53.8399 83.3642L53.8399 80.2394L50.7148 80.2394L50.7148 78.9895L53.8399 78.9895L53.8399 75.8647L55.0898 75.8647L55.0898 78.9895Z" fill="#DAE3F1"/>
<path fill-rule="evenodd" clip-rule="evenodd" d="M4.37891 104.277L7.49945 104.277L7.49945 105.527L4.37891 105.527L4.37891 108.652L3.129 108.652L3.129 105.527L-1.91203e-07 105.527L-1.36568e-07 104.277L3.129 104.277L3.129 101.153L4.37891 101.153L4.37891 104.277Z" fill="#DAE3F1"/>
<path fill-rule="evenodd" clip-rule="evenodd" d="M55.0898 104.278L58.2143 104.278L58.2143 105.528L55.0898 105.528L55.0898 108.653L53.8399 108.653L53.8399 105.528L50.7148 105.528L50.7148 104.278L53.8399 104.278L53.8399 101.153L55.0898 101.153L55.0898 104.278Z" fill="#DAE3F1"/>
<path fill-rule="evenodd" clip-rule="evenodd" d="M4.37891 154.854L7.49945 154.854L7.49945 156.104L4.37891 156.104L4.37891 159.228L3.129 159.228L3.129 156.104L-1.91221e-07 156.104L-1.36586e-07 154.854L3.129 154.854L3.129 151.729L4.37891 151.729L4.37891 154.854Z" fill="#DAE3F1"/>
<path fill-rule="evenodd" clip-rule="evenodd" d="M55.0898 154.854L58.2143 154.854L58.2143 156.104L55.0898 156.104L55.0898 159.229L53.8399 159.229L53.8399 156.104L50.7148 156.104L50.7148 154.854L53.8399 154.854L53.8399 151.729L55.0898 151.729L55.0898 154.854Z" fill="#DAE3F1"/>
<path fill-rule="evenodd" clip-rule="evenodd" d="M4.37891 129.566L7.49945 129.566L7.49945 130.816L4.37891 130.816L4.37891 133.94L3.129 133.94L3.129 130.816L-1.9122e-07 130.816L-1.36585e-07 129.566L3.129 129.566L3.129 126.441L4.37891 126.441L4.37891 129.566Z" fill="#DAE3F1"/>
<path fill-rule="evenodd" clip-rule="evenodd" d="M55.0898 129.566L58.2143 129.566L58.2143 130.816L55.0898 130.816L55.0898 133.941L53.8399 133.941L53.8399 130.816L50.7148 130.816L50.7148 129.566L53.8399 129.566L53.8399 126.441L55.0898 126.441L55.0898 129.566Z" fill="#DAE3F1"/>
<path fill-rule="evenodd" clip-rule="evenodd" d="M4.37891 180.142L7.49945 180.142L7.49945 181.392L4.37891 181.392L4.37891 184.517L3.129 184.517L3.129 181.392L-1.91217e-07 181.392L-1.36582e-07 180.142L3.129 180.142L3.129 177.017L4.37891 177.017L4.37891 180.142Z" fill="#DAE3F1"/>
<path fill-rule="evenodd" clip-rule="evenodd" d="M55.0898 180.143L58.2143 180.143L58.2143 181.392L55.0898 181.392L55.0898 184.517L53.8399 184.517L53.8399 181.392L50.7148 181.392L50.7148 180.143L53.8399 180.143L53.8399 177.018L55.0898 177.018L55.0898 180.143Z" fill="#DAE3F1"/>
<path fill-rule="evenodd" clip-rule="evenodd" d="M80.4414 3.12531L83.5659 3.12531L83.5659 4.37522L80.4414 4.37522L80.4414 7.49993L79.1915 7.49993L79.1915 4.37522L76.0664 4.37522L76.0664 3.12531L79.1915 3.12531L79.1915 0.000488527L80.4414 0.000488472L80.4414 3.12531Z" fill="#DAE3F1"/>
<path fill-rule="evenodd" clip-rule="evenodd" d="M131.164 3.12483L134.289 3.12483L134.289 4.37473L131.164 4.37473L131.164 7.49945L129.914 7.49945L129.914 4.37473L126.789 4.37473L126.789 3.12483L129.914 3.12483L129.914 2.45872e-07L131.164 1.91237e-07L131.164 3.12483Z" fill="#DAE3F1"/>
<path fill-rule="evenodd" clip-rule="evenodd" d="M80.4414 205.43L83.5659 205.43L83.5659 206.68L80.4414 206.68L80.4414 209.805L79.1915 209.805L79.1915 206.68L76.0664 206.68L76.0664 205.43L79.1915 205.43L79.1915 202.305L80.4414 202.305L80.4414 205.43Z" fill="#DAE3F1"/>
<path fill-rule="evenodd" clip-rule="evenodd" d="M131.164 205.43L134.289 205.43L134.289 206.68L131.164 206.68L131.164 209.805L129.914 209.805L129.914 206.68L126.789 206.68L126.789 205.43L129.914 205.43L129.914 202.305L131.164 202.305L131.164 205.43Z" fill="#DAE3F1"/>
<path fill-rule="evenodd" clip-rule="evenodd" d="M80.4414 53.7009L83.5659 53.7009L83.5659 54.9508L80.4414 54.9508L80.4414 58.0756L79.1915 58.0756L79.1915 54.9508L76.0664 54.9508L76.0664 53.7009L79.1915 53.7009L79.1915 50.5762L80.4414 50.5762L80.4414 53.7009Z" fill="#DAE3F1"/>
<path fill-rule="evenodd" clip-rule="evenodd" d="M131.164 53.7011L134.289 53.7011L134.289 54.951L131.164 54.951L131.164 58.0759L129.914 58.0759L129.914 54.951L126.789 54.951L126.789 53.7011L129.914 53.7011L129.914 50.5764L131.164 50.5764L131.164 53.7011Z" fill="#DAE3F1"/>
<path fill-rule="evenodd" clip-rule="evenodd" d="M80.4414 28.4128L83.5659 28.4128L83.5659 29.6627L80.4414 29.6627L80.4414 32.7875L79.1915 32.7875L79.1915 29.6627L76.0664 29.6627L76.0664 28.4128L79.1915 28.4128L79.1915 25.2881L80.4414 25.2881L80.4414 28.4128Z" fill="#DAE3F1"/>
<path fill-rule="evenodd" clip-rule="evenodd" d="M131.168 28.4128L134.289 28.4128L134.289 29.6627L131.168 29.6627L131.168 32.7875L129.918 32.7875L129.918 29.6627L126.789 29.6627L126.789 28.4128L129.918 28.4128L129.918 25.2881L131.168 25.2881L131.168 28.4128Z" fill="#DAE3F1"/>
<path fill-rule="evenodd" clip-rule="evenodd" d="M80.4414 78.9897L83.5659 78.9897L83.5659 80.2396L80.4414 80.2396L80.4414 83.3642L79.1915 83.3642L79.1915 80.2396L76.0664 80.2396L76.0664 78.9897L79.1915 78.9897L79.1915 75.8647L80.4414 75.8647L80.4414 78.9897Z" fill="#DAE3F1"/>
<path fill-rule="evenodd" clip-rule="evenodd" d="M131.164 78.989L134.289 78.989L134.289 80.2389L131.164 80.2389L131.164 83.3637L129.914 83.3637L129.914 80.2389L126.789 80.2389L126.789 78.989L129.914 78.989L129.914 75.8643L131.164 75.8643L131.164 78.989Z" fill="#DAE3F1"/>
<path fill-rule="evenodd" clip-rule="evenodd" d="M80.4453 104.277L83.5698 104.277L83.5698 105.527L80.4453 105.527L80.4453 108.653L79.1954 108.653L79.1954 105.527L76.0703 105.527L76.0703 104.277L79.1954 104.277L79.1954 101.153L80.4453 101.153L80.4453 104.277Z" fill="#DAE3F1"/>
<path fill-rule="evenodd" clip-rule="evenodd" d="M131.168 104.277L134.289 104.277L134.289 105.527L131.168 105.527L131.168 108.652L129.918 108.652L129.918 105.527L126.789 105.527L126.789 104.277L129.918 104.277L129.918 101.153L131.168 101.153L131.168 104.277Z" fill="#DAE3F1"/>
<path fill-rule="evenodd" clip-rule="evenodd" d="M80.4453 154.854L83.5698 154.854L83.5698 156.104L80.4453 156.104L80.4453 159.228L79.1954 159.228L79.1954 156.104L76.0703 156.104L76.0703 154.854L79.1954 154.854L79.1954 151.729L80.4453 151.729L80.4453 154.854Z" fill="#DAE3F1"/>
<path fill-rule="evenodd" clip-rule="evenodd" d="M131.164 154.854L134.289 154.854L134.289 156.104L131.164 156.104L131.164 159.228L129.914 159.228L129.914 156.104L126.789 156.104L126.789 154.854L129.914 154.854L129.914 151.729L131.164 151.729L131.164 154.854Z" fill="#DAE3F1"/>
<path fill-rule="evenodd" clip-rule="evenodd" d="M80.4453 129.566L83.5698 129.566L83.5698 130.816L80.4453 130.816L80.4453 133.94L79.1954 133.94L79.1954 130.816L76.0703 130.816L76.0703 129.566L79.1954 129.566L79.1954 126.441L80.4453 126.441L80.4453 129.566Z" fill="#DAE3F1"/>
<path fill-rule="evenodd" clip-rule="evenodd" d="M131.164 129.566L134.289 129.566L134.289 130.816L131.164 130.816L131.164 133.94L129.914 133.94L129.914 130.816L126.789 130.816L126.789 129.566L129.914 129.566L129.914 126.441L131.164 126.441L131.164 129.566Z" fill="#DAE3F1"/>
<path fill-rule="evenodd" clip-rule="evenodd" d="M80.4414 180.142L83.5659 180.142L83.5659 181.392L80.4414 181.392L80.4414 184.517L79.1915 184.517L79.1915 181.392L76.0664 181.392L76.0664 180.142L79.1915 180.142L79.1915 177.017L80.4414 177.017L80.4414 180.142Z" fill="#DAE3F1"/>
<path fill-rule="evenodd" clip-rule="evenodd" d="M131.164 180.142L134.289 180.142L134.289 181.392L131.164 181.392L131.164 184.517L129.914 184.517L129.914 181.392L126.789 181.392L126.789 180.142L129.914 180.142L129.914 177.018L131.164 177.018L131.164 180.142Z" fill="#DAE3F1"/>
<path fill-rule="evenodd" clip-rule="evenodd" d="M105.809 3.12483L108.929 3.12483L108.929 4.37473L105.809 4.37473L105.809 7.49945L104.559 7.49945L104.559 4.37473L101.43 4.37473L101.43 3.12483L104.559 3.12483L104.559 2.46043e-07L105.809 1.91408e-07L105.809 3.12483Z" fill="#DAE3F1"/>
<path fill-rule="evenodd" clip-rule="evenodd" d="M156.527 3.12481L159.648 3.12481L159.648 4.37471L156.527 4.37471L156.527 7.49945L155.277 7.49945L155.277 4.37471L152.148 4.37471L152.148 3.12481L155.277 3.12481L155.277 2.46034e-07L156.527 1.91399e-07L156.527 3.12481Z" fill="#DAE3F1"/>
<g filter="url(#filter0_d_70_14093)">
<path fill-rule="evenodd" clip-rule="evenodd" d="M181.879 3.12483L184.999 3.12483L184.999 4.37473L181.879 4.37473L181.879 7.49945L180.629 7.49945L180.629 4.37473L177.5 4.37473L177.5 3.12483L180.629 3.12483L180.629 2.46043e-07L181.879 1.91408e-07L181.879 3.12483Z" fill="#5CCC81"/>
</g>
<path fill-rule="evenodd" clip-rule="evenodd" d="M156.527 205.429L159.648 205.429L159.648 206.679L156.527 206.679L156.527 209.804L155.277 209.804L155.277 206.679L152.148 206.679L152.148 205.429L155.277 205.429L155.277 202.305L156.527 202.305L156.527 205.429Z" fill="#DAE3F1"/>
<path fill-rule="evenodd" clip-rule="evenodd" d="M105.809 205.43L108.929 205.43L108.929 206.68L105.809 206.68L105.809 209.805L104.559 209.805L104.559 206.68L101.43 206.68L101.43 205.43L104.559 205.43L104.559 202.305L105.809 202.305L105.809 205.43Z" fill="#DAE3F1"/>
<path fill-rule="evenodd" clip-rule="evenodd" d="M156.527 53.7008L159.648 53.7008L159.648 54.9507L156.527 54.9507L156.527 58.0756L155.277 58.0756L155.277 54.9507L152.148 54.9507L152.148 53.7008L155.277 53.7008L155.277 50.5762L156.527 50.5762L156.527 53.7008Z" fill="#DAE3F1"/>
<path fill-rule="evenodd" clip-rule="evenodd" d="M181.879 205.429L184.999 205.429L184.999 206.679L181.879 206.679L181.879 209.804L180.629 209.804L180.629 206.679L177.5 206.679L177.5 205.429L180.629 205.429L180.629 202.305L181.879 202.305L181.879 205.429Z" fill="#DAE3F1"/>
<path fill-rule="evenodd" clip-rule="evenodd" d="M156.527 28.4129L159.648 28.4129L159.648 29.6628L156.527 29.6628L156.527 32.7878L155.277 32.7878L155.277 29.6628L152.148 29.6628L152.148 28.4129L155.277 28.4129L155.277 25.2883L156.527 25.2883L156.527 28.4129Z" fill="#DAE3F1"/>
<path fill-rule="evenodd" clip-rule="evenodd" d="M105.809 53.7011L108.929 53.7011L108.929 54.951L105.809 54.951L105.809 58.0759L104.559 58.0759L104.559 54.951L101.43 54.951L101.43 53.7011L104.559 53.7011L104.559 50.5764L105.809 50.5764L105.809 53.7011Z" fill="#DAE3F1"/>
<path fill-rule="evenodd" clip-rule="evenodd" d="M181.879 53.7012L184.999 53.7012L184.999 54.9511L181.879 54.9511L181.879 58.0759L180.629 58.0759L180.629 54.9512L177.5 54.9511L177.5 53.7012L180.629 53.7012L180.629 50.5764L181.879 50.5764L181.879 53.7012Z" fill="#DAE3F1"/>
<path fill-rule="evenodd" clip-rule="evenodd" d="M156.527 78.9889L159.648 78.9889L159.648 80.2388L156.527 80.2388L156.527 83.3637L155.277 83.3637L155.277 80.2388L152.148 80.2388L152.148 78.9889L155.277 78.9889L155.277 75.8643L156.527 75.8643L156.527 78.9889Z" fill="#DAE3F1"/>
<path fill-rule="evenodd" clip-rule="evenodd" d="M105.809 28.4133L108.929 28.4133L108.929 29.6632L105.809 29.6632L105.809 32.788L104.559 32.788L104.559 29.6632L101.43 29.6632L101.43 28.4133L104.559 28.4133L104.559 25.2886L105.809 25.2886L105.809 28.4133Z" fill="#DAE3F1"/>
<path fill-rule="evenodd" clip-rule="evenodd" d="M156.527 104.277L159.648 104.277L159.648 105.527L156.527 105.527L156.527 108.652L155.277 108.652L155.277 105.527L152.148 105.527L152.148 104.277L155.277 104.277L155.277 101.153L156.527 101.153L156.527 104.277Z" fill="#DAE3F1"/>
<path fill-rule="evenodd" clip-rule="evenodd" d="M181.879 28.4132L184.999 28.4132L184.999 29.6631L181.879 29.6631L181.879 32.7878L180.629 32.7878L180.629 29.6631L177.5 29.6631L177.5 28.4132L180.629 28.4132L180.629 25.2883L181.879 25.2883L181.879 28.4132Z" fill="#DAE3F1"/>
<path fill-rule="evenodd" clip-rule="evenodd" d="M156.527 154.853L159.648 154.853L159.648 156.103L156.527 156.103L156.527 159.228L155.277 159.228L155.277 156.103L152.148 156.103L152.148 154.853L155.277 154.853L155.277 151.729L156.527 151.729L156.527 154.853Z" fill="#DAE3F1"/>
<path fill-rule="evenodd" clip-rule="evenodd" d="M156.527 129.566L159.648 129.566L159.648 130.816L156.527 130.816L156.527 133.94L155.277 133.94L155.277 130.816L152.148 130.816L152.148 129.566L155.277 129.566L155.277 126.441L156.527 126.441L156.527 129.566Z" fill="#DAE3F1"/>
<path fill-rule="evenodd" clip-rule="evenodd" d="M156.527 180.142L159.648 180.142L159.648 181.392L156.527 181.392L156.527 184.516L155.277 184.516L155.277 181.392L152.148 181.392L152.148 180.142L155.277 180.142L155.277 177.017L156.527 177.017L156.527 180.142Z" fill="#DAE3F1"/>
<path fill-rule="evenodd" clip-rule="evenodd" d="M105.809 78.9891L108.929 78.9891L108.929 80.239L105.809 80.239L105.809 83.3637L104.559 83.3637L104.559 80.239L101.43 80.239L101.43 78.9891L104.559 78.9891L104.559 75.8643L105.809 75.8643L105.809 78.9891Z" fill="#DAE3F1"/>
<path fill-rule="evenodd" clip-rule="evenodd" d="M181.879 78.989L184.999 78.989L184.999 80.2389L181.879 80.2389L181.879 83.3637L180.629 83.3637L180.629 80.2389L177.5 80.2389L177.5 78.989L180.629 78.989L180.629 75.8643L181.879 75.8643L181.879 78.989Z" fill="#DAE3F1"/>
<path fill-rule="evenodd" clip-rule="evenodd" d="M105.812 104.277L108.933 104.277L108.933 105.527L105.813 105.527L105.813 108.652L104.563 108.652L104.563 105.527L101.434 105.527L101.434 104.277L104.563 104.277L104.563 101.153L105.812 101.153L105.812 104.277Z" fill="#DAE3F1"/>
<path fill-rule="evenodd" clip-rule="evenodd" d="M181.879 104.277L184.999 104.277L184.999 105.527L181.879 105.527L181.879 108.652L180.629 108.652L180.629 105.527L177.5 105.527L177.5 104.277L180.629 104.277L180.629 101.153L181.879 101.153L181.879 104.277Z" fill="#DAE3F1"/>
<path fill-rule="evenodd" clip-rule="evenodd" d="M105.812 154.854L108.933 154.854L108.933 156.104L105.813 156.104L105.813 159.228L104.563 159.228L104.563 156.104L101.434 156.104L101.434 154.854L104.563 154.854L104.563 151.729L105.812 151.729L105.812 154.854Z" fill="#DAE3F1"/>
<path fill-rule="evenodd" clip-rule="evenodd" d="M181.879 154.854L184.999 154.854L184.999 156.103L181.879 156.103L181.879 159.228L180.629 159.228L180.629 156.103L177.5 156.103L177.5 154.854L180.629 154.854L180.629 151.729L181.879 151.729L181.879 154.854Z" fill="#DAE3F1"/>
<path fill-rule="evenodd" clip-rule="evenodd" d="M105.809 129.566L108.933 129.566L108.933 130.816L105.809 130.816L105.809 133.94L104.559 133.94L104.559 130.816L101.434 130.816L101.434 129.566L104.559 129.566L104.559 126.441L105.809 126.441L105.809 129.566Z" fill="#DAE3F1"/>
<path fill-rule="evenodd" clip-rule="evenodd" d="M181.879 129.566L184.999 129.566L184.999 130.816L181.879 130.816L181.879 133.94L180.629 133.94L180.629 130.816L177.5 130.816L177.5 129.566L180.629 129.566L180.629 126.441L181.879 126.441L181.879 129.566Z" fill="#DAE3F1"/>
<path fill-rule="evenodd" clip-rule="evenodd" d="M105.809 180.142L108.929 180.142L108.929 181.392L105.809 181.392L105.809 184.517L104.559 184.517L104.559 181.392L101.43 181.392L101.43 180.142L104.559 180.142L104.559 177.017L105.809 177.017L105.809 180.142Z" fill="#DAE3F1"/>
<path fill-rule="evenodd" clip-rule="evenodd" d="M181.879 180.142L184.999 180.142L184.999 181.392L181.879 181.392L181.879 184.516L180.629 184.516L180.629 181.392L177.5 181.392L177.5 180.142L180.629 180.142L180.629 177.017L181.879 177.017L181.879 180.142Z" fill="#DAE3F1"/>
</g>
<defs>
<filter id="filter0_d_70_14093" x="173.5" y="0" width="15.4995" height="15.4995" filterUnits="userSpaceOnUse" color-interpolation-filters="sRGB">
<feFlood flood-opacity="0" result="BackgroundImageFix"/>
<feColorMatrix in="SourceAlpha" type="matrix" values="0 0 0 0 0 0 0 0 0 0 0 0 0 0 0 0 0 0 127 0" result="hardAlpha"/>
<feOffset dy="4"/>
<feGaussianBlur stdDeviation="2"/>
<feComposite in2="hardAlpha" operator="out"/>
<feColorMatrix type="matrix" values="0 0 0 0 0.36 0 0 0 0 0.8 0 0 0 0 0.506667 0 0 0 0.25 0"/>
<feBlend mode="normal" in2="BackgroundImageFix" result="effect1_dropShadow_70_14093"/>
<feBlend mode="normal" in="SourceGraphic" in2="effect1_dropShadow_70_14093" result="shape"/>
</filter>
</defs>
</svg>
