<svg width="189" height="210" viewBox="0 0 189 210" fill="none" xmlns="http://www.w3.org/2000/svg">
<g style="mix-blend-mode:multiply">
<path fill-rule="evenodd" clip-rule="evenodd" d="M159.273 3.12483L156.149 3.12483L156.149 4.37473L159.273 4.37473L159.273 7.49945L160.523 7.49945L160.523 4.37473L163.648 4.37473L163.648 3.12483L160.523 3.12483L160.523 2.45872e-07L159.273 1.91237e-07L159.273 3.12483Z" fill="#DAE3F1"/>
<path fill-rule="evenodd" clip-rule="evenodd" d="M159.269 205.43L156.145 205.43L156.145 206.68L159.269 206.68L159.269 209.805L160.519 209.805L160.519 206.68L163.644 206.68L163.644 205.43L160.519 205.43L160.519 202.305L159.269 202.305L159.269 205.43Z" fill="#DAE3F1"/>
<path fill-rule="evenodd" clip-rule="evenodd" d="M159.273 53.7014L156.149 53.7014L156.149 54.9513L159.273 54.9513L159.273 58.0761L160.523 58.0761L160.523 54.9513L163.648 54.9513L163.648 53.7014L160.523 53.7014L160.523 50.5767L159.273 50.5767L159.273 53.7014Z" fill="#DAE3F1"/>
<path fill-rule="evenodd" clip-rule="evenodd" d="M159.265 28.4128L156.145 28.4128L156.145 29.6627L159.265 29.6627L159.265 32.7875L160.515 32.7875L160.515 29.6627L163.644 29.6627L163.644 28.4128L160.515 28.4128L160.515 25.2881L159.265 25.2881L159.265 28.4128Z" fill="#DAE3F1"/>
<path fill-rule="evenodd" clip-rule="evenodd" d="M159.269 78.9896L156.145 78.9896L156.145 80.2395L159.269 80.2395L159.269 83.3642L160.519 83.3642L160.519 80.2395L163.644 80.2395L163.644 78.9896L160.519 78.9896L160.519 75.8647L159.269 75.8647L159.269 78.9896Z" fill="#DAE3F1"/>
<path fill-rule="evenodd" clip-rule="evenodd" d="M159.269 104.277L156.149 104.277L156.149 105.527L159.269 105.527L159.269 108.652L160.519 108.652L160.519 105.527L163.648 105.527L163.648 104.277L160.519 104.277L160.519 101.153L159.269 101.153L159.269 104.277Z" fill="#DAE3F1"/>
<path fill-rule="evenodd" clip-rule="evenodd" d="M159.269 154.854L156.145 154.854L156.145 156.104L159.269 156.104L159.269 159.228L160.519 159.228L160.519 156.104L163.644 156.104L163.644 154.854L160.519 154.854L160.519 151.729L159.269 151.729L159.269 154.854Z" fill="#DAE3F1"/>
<path fill-rule="evenodd" clip-rule="evenodd" d="M159.273 129.566L156.149 129.566L156.149 130.816L159.273 130.816L159.273 133.94L160.523 133.94L160.523 130.816L163.648 130.816L163.648 129.566L160.523 129.566L160.523 126.441L159.273 126.441L159.273 129.566Z" fill="#DAE3F1"/>
<path fill-rule="evenodd" clip-rule="evenodd" d="M159.273 180.142L156.149 180.142L156.149 181.392L159.273 181.392L159.273 184.517L160.523 184.517L160.523 181.392L163.648 181.392L163.648 180.142L160.523 180.142L160.523 177.017L159.273 177.017L159.273 180.142Z" fill="#DAE3F1"/>
<path fill-rule="evenodd" clip-rule="evenodd" d="M184.621 3.12505L181.5 3.12505L181.5 4.37495L184.621 4.37495L184.621 7.49945L185.871 7.49945L185.871 4.37496L189 4.37496L189 3.12505L185.871 3.12505L185.871 2.46043e-07L184.621 1.91408e-07L184.621 3.12505Z" fill="#DAE3F1"/>
<path fill-rule="evenodd" clip-rule="evenodd" d="M133.91 3.12519L130.785 3.12519L130.785 4.3751L133.91 4.3751L133.91 7.49993L135.16 7.49993L135.16 4.3751L138.285 4.3751L138.285 3.12519L135.16 3.12519L135.16 0.000488527L133.91 0.000488472L133.91 3.12519Z" fill="#DAE3F1"/>
<path fill-rule="evenodd" clip-rule="evenodd" d="M184.621 205.43L181.5 205.43L181.5 206.68L184.621 206.68L184.621 209.805L185.871 209.805L185.871 206.68L189 206.68L189 205.43L185.871 205.43L185.871 202.305L184.621 202.305L184.621 205.43Z" fill="#DAE3F1"/>
<path fill-rule="evenodd" clip-rule="evenodd" d="M133.91 205.43L130.785 205.43L130.785 206.68L133.91 206.68L133.91 209.805L135.16 209.805L135.16 206.68L138.285 206.68L138.285 205.43L135.16 205.43L135.16 202.306L133.91 202.306L133.91 205.43Z" fill="#DAE3F1"/>
<path fill-rule="evenodd" clip-rule="evenodd" d="M184.621 53.7009L181.5 53.7009L181.5 54.9508L184.621 54.9508L184.621 58.0756L185.871 58.0756L185.871 54.9508L189 54.9508L189 53.7009L185.871 53.7009L185.871 50.5762L184.621 50.5762L184.621 53.7009Z" fill="#DAE3F1"/>
<path fill-rule="evenodd" clip-rule="evenodd" d="M133.91 53.7014L130.785 53.7014L130.785 54.9513L133.91 54.9513L133.91 58.0761L135.16 58.0761L135.16 54.9513L138.285 54.9513L138.285 53.7014L135.16 53.7014L135.16 50.5767L133.91 50.5767L133.91 53.7014Z" fill="#DAE3F1"/>
<path fill-rule="evenodd" clip-rule="evenodd" d="M184.621 28.4128L181.5 28.4128L181.5 29.6627L184.621 29.6627L184.621 32.7875L185.871 32.7875L185.871 29.6627L189 29.6627L189 28.4128L185.871 28.4128L185.871 25.2881L184.621 25.2881L184.621 28.4128Z" fill="#DAE3F1"/>
<path fill-rule="evenodd" clip-rule="evenodd" d="M133.91 28.4135L130.785 28.4135L130.785 29.6634L133.91 29.6634L133.91 32.788L135.16 32.788L135.16 29.6634L138.285 29.6634L138.285 28.4135L135.16 28.4135L135.16 25.2886L133.91 25.2886L133.91 28.4135Z" fill="#DAE3F1"/>
<path fill-rule="evenodd" clip-rule="evenodd" d="M184.621 78.9893L181.5 78.9893L181.5 80.2392L184.621 80.2392L184.621 83.3642L185.871 83.3642L185.871 80.2392L189 80.2392L189 78.9893L185.871 78.9893L185.871 75.8647L184.621 75.8647L184.621 78.9893Z" fill="#DAE3F1"/>
<path fill-rule="evenodd" clip-rule="evenodd" d="M133.91 78.9895L130.785 78.9895L130.785 80.2394L133.91 80.2394L133.91 83.3642L135.16 83.3642L135.16 80.2394L138.285 80.2394L138.285 78.9895L135.16 78.9895L135.16 75.8647L133.91 75.8647L133.91 78.9895Z" fill="#DAE3F1"/>
<path fill-rule="evenodd" clip-rule="evenodd" d="M184.621 104.277L181.5 104.277L181.5 105.527L184.621 105.527L184.621 108.652L185.871 108.652L185.871 105.527L189 105.527L189 104.277L185.871 104.277L185.871 101.153L184.621 101.153L184.621 104.277Z" fill="#DAE3F1"/>
<path fill-rule="evenodd" clip-rule="evenodd" d="M133.91 104.278L130.785 104.278L130.785 105.528L133.91 105.528L133.91 108.652L135.16 108.652L135.16 105.528L138.285 105.528L138.285 104.278L135.16 104.278L135.16 101.153L133.91 101.153L133.91 104.278Z" fill="#DAE3F1"/>
<path fill-rule="evenodd" clip-rule="evenodd" d="M184.621 154.854L181.5 154.854L181.5 156.104L184.621 156.104L184.621 159.228L185.871 159.228L185.871 156.104L189 156.104L189 154.854L185.871 154.854L185.871 151.729L184.621 151.729L184.621 154.854Z" fill="#DAE3F1"/>
<path fill-rule="evenodd" clip-rule="evenodd" d="M133.91 154.854L130.785 154.854L130.785 156.104L133.91 156.104L133.91 159.228L135.16 159.228L135.16 156.104L138.285 156.104L138.285 154.854L135.16 154.854L135.16 151.729L133.91 151.729L133.91 154.854Z" fill="#DAE3F1"/>
<path fill-rule="evenodd" clip-rule="evenodd" d="M184.621 129.566L181.5 129.566L181.5 130.816L184.621 130.816L184.621 133.94L185.871 133.94L185.871 130.816L189 130.816L189 129.566L185.871 129.566L185.871 126.441L184.621 126.441L184.621 129.566Z" fill="#DAE3F1"/>
<path fill-rule="evenodd" clip-rule="evenodd" d="M133.91 129.566L130.785 129.566L130.785 130.816L133.91 130.816L133.91 133.94L135.16 133.94L135.16 130.816L138.285 130.816L138.285 129.566L135.16 129.566L135.16 126.441L133.91 126.441L133.91 129.566Z" fill="#DAE3F1"/>
<path fill-rule="evenodd" clip-rule="evenodd" d="M184.621 180.142L181.5 180.142L181.5 181.392L184.621 181.392L184.621 184.517L185.871 184.517L185.871 181.392L189 181.392L189 180.142L185.871 180.142L185.871 177.017L184.621 177.017L184.621 180.142Z" fill="#DAE3F1"/>
<path fill-rule="evenodd" clip-rule="evenodd" d="M133.91 180.142L130.785 180.142L130.785 181.392L133.91 181.392L133.91 184.517L135.16 184.517L135.16 181.392L138.285 181.392L138.285 180.142L135.16 180.142L135.16 177.018L133.91 177.018L133.91 180.142Z" fill="#DAE3F1"/>
<path fill-rule="evenodd" clip-rule="evenodd" d="M108.558 3.12531L105.434 3.12531L105.434 4.37522L108.558 4.37522L108.558 7.49993L109.808 7.49993L109.808 4.37522L112.933 4.37522L112.933 3.12531L109.808 3.12531L109.808 0.000488527L108.558 0.000488472L108.558 3.12531Z" fill="#DAE3F1"/>
<path fill-rule="evenodd" clip-rule="evenodd" d="M57.8354 3.12483L54.711 3.12483L54.711 4.37473L57.8354 4.37473L57.8354 7.49945L59.0854 7.49945L59.0854 4.37473L62.2104 4.37473L62.2104 3.12483L59.0854 3.12483L59.0854 2.45872e-07L57.8354 1.91237e-07L57.8354 3.12483Z" fill="#DAE3F1"/>
<path fill-rule="evenodd" clip-rule="evenodd" d="M108.558 205.43L105.434 205.43L105.434 206.68L108.558 206.68L108.558 209.805L109.808 209.805L109.808 206.68L112.933 206.68L112.933 205.43L109.808 205.43L109.808 202.305L108.558 202.305L108.558 205.43Z" fill="#DAE3F1"/>
<path fill-rule="evenodd" clip-rule="evenodd" d="M57.8354 205.429L54.711 205.429L54.711 206.679L57.8354 206.679L57.8354 209.805L59.0854 209.805L59.0854 206.679L62.2104 206.679L62.2104 205.429L59.0854 205.429L59.0854 202.305L57.8354 202.305L57.8354 205.429Z" fill="#DAE3F1"/>
<path fill-rule="evenodd" clip-rule="evenodd" d="M108.558 53.7009L105.434 53.7009L105.434 54.9508L108.558 54.9508L108.558 58.0756L109.808 58.0756L109.808 54.9508L112.933 54.9508L112.933 53.7009L109.808 53.7009L109.808 50.5762L108.558 50.5762L108.558 53.7009Z" fill="#DAE3F1"/>
<path fill-rule="evenodd" clip-rule="evenodd" d="M57.8354 53.7009L54.711 53.7009L54.711 54.9508L57.8354 54.9508L57.8354 58.0756L59.0854 58.0756L59.0854 54.9508L62.2104 54.9508L62.2104 53.7009L59.0854 53.7009L59.0854 50.5762L57.8354 50.5762L57.8354 53.7009Z" fill="#DAE3F1"/>
<path fill-rule="evenodd" clip-rule="evenodd" d="M108.558 28.4128L105.434 28.4128L105.434 29.6627L108.558 29.6627L108.558 32.7875L109.808 32.7875L109.808 29.6627L112.933 29.6627L112.933 28.4128L109.808 28.4128L109.808 25.2881L108.558 25.2881L108.558 28.4128Z" fill="#DAE3F1"/>
<path fill-rule="evenodd" clip-rule="evenodd" d="M57.8315 28.4128L54.711 28.4128L54.711 29.6627L57.8315 29.6627L57.8315 32.7875L59.0815 32.7875L59.0815 29.6627L62.2104 29.6627L62.2104 28.4128L59.0815 28.4128L59.0815 25.2881L57.8315 25.2881L57.8315 28.4128Z" fill="#DAE3F1"/>
<path fill-rule="evenodd" clip-rule="evenodd" d="M108.558 78.9897L105.434 78.9897L105.434 80.2396L108.558 80.2396L108.558 83.3642L109.808 83.3642L109.808 80.2396L112.933 80.2396L112.933 78.9897L109.808 78.9897L109.808 75.8647L108.558 75.8647L108.558 78.9897Z" fill="#DAE3F1"/>
<path fill-rule="evenodd" clip-rule="evenodd" d="M57.8354 78.989L54.711 78.989L54.711 80.2389L57.8354 80.2389L57.8354 83.3637L59.0854 83.3637L59.0854 80.2389L62.2104 80.2389L62.2104 78.989L59.0854 78.989L59.0854 75.8643L57.8354 75.8643L57.8354 78.989Z" fill="#DAE3F1"/>
<path fill-rule="evenodd" clip-rule="evenodd" d="M108.554 104.277L105.43 104.277L105.43 105.527L108.554 105.527L108.554 108.652L109.804 108.652L109.804 105.527L112.929 105.527L112.929 104.277L109.804 104.277L109.804 101.153L108.554 101.153L108.554 104.277Z" fill="#DAE3F1"/>
<path fill-rule="evenodd" clip-rule="evenodd" d="M57.8315 104.277L54.711 104.277L54.711 105.527L57.8315 105.527L57.8315 108.652L59.0815 108.652L59.0815 105.527L62.2104 105.527L62.2104 104.277L59.0815 104.277L59.0815 101.153L57.8315 101.153L57.8315 104.277Z" fill="#DAE3F1"/>
<path fill-rule="evenodd" clip-rule="evenodd" d="M108.554 154.854L105.43 154.854L105.43 156.104L108.554 156.104L108.554 159.228L109.804 159.228L109.804 156.104L112.929 156.104L112.929 154.854L109.804 154.854L109.804 151.729L108.554 151.729L108.554 154.854Z" fill="#DAE3F1"/>
<path fill-rule="evenodd" clip-rule="evenodd" d="M57.8354 154.854L54.711 154.854L54.711 156.104L57.8354 156.104L57.8354 159.228L59.0854 159.228L59.0854 156.104L62.2104 156.104L62.2104 154.854L59.0854 154.854L59.0854 151.729L57.8354 151.729L57.8354 154.854Z" fill="#DAE3F1"/>
<path fill-rule="evenodd" clip-rule="evenodd" d="M108.554 129.566L105.43 129.566L105.43 130.816L108.554 130.816L108.554 133.94L109.804 133.94L109.804 130.816L112.929 130.816L112.929 129.566L109.804 129.566L109.804 126.441L108.554 126.441L108.554 129.566Z" fill="#DAE3F1"/>
<path fill-rule="evenodd" clip-rule="evenodd" d="M57.8354 129.566L54.711 129.566L54.711 130.816L57.8354 130.816L57.8354 133.94L59.0854 133.94L59.0854 130.816L62.2104 130.816L62.2104 129.566L59.0854 129.566L59.0854 126.441L57.8354 126.441L57.8354 129.566Z" fill="#DAE3F1"/>
<path fill-rule="evenodd" clip-rule="evenodd" d="M108.558 180.142L105.434 180.142L105.434 181.392L108.558 181.392L108.558 184.517L109.808 184.517L109.808 181.392L112.933 181.392L112.933 180.142L109.808 180.142L109.808 177.017L108.558 177.017L108.558 180.142Z" fill="#DAE3F1"/>
<path fill-rule="evenodd" clip-rule="evenodd" d="M57.8354 180.142L54.711 180.142L54.711 181.392L57.8354 181.392L57.8354 184.517L59.0854 184.517L59.0854 181.392L62.2104 181.392L62.2104 180.142L59.0854 180.142L59.0854 177.018L57.8354 177.018L57.8354 180.142Z" fill="#DAE3F1"/>
<path fill-rule="evenodd" clip-rule="evenodd" d="M83.1909 3.12483L80.0704 3.12483L80.0704 4.37473L83.1909 4.37473L83.1909 7.49945L84.4408 7.49945L84.4408 4.37473L87.5698 4.37473L87.5698 3.12483L84.4408 3.12483L84.4408 2.46043e-07L83.1909 1.91408e-07L83.1909 3.12483Z" fill="#DAE3F1"/>
<path fill-rule="evenodd" clip-rule="evenodd" d="M32.4721 3.12481L29.3514 3.12481L29.3514 4.37471L32.4721 4.37471L32.4721 7.49945L33.722 7.49945L33.722 4.37471L36.8508 4.37471L36.8508 3.12481L33.722 3.12481L33.722 2.46035e-07L32.4721 1.91399e-07L32.4721 3.12481Z" fill="#DAE3F1"/>
<g filter="url(#filter0_d_70_14356)">
<path fill-rule="evenodd" clip-rule="evenodd" d="M7.12061 3.12483L4.00007 3.12483L4.00007 4.37473L7.12061 4.37473L7.12061 7.49945L8.37051 7.49945L8.37051 4.37473L11.4995 4.37473L11.4995 3.12483L8.37051 3.12483L8.37051 2.46043e-07L7.12061 1.91408e-07L7.12061 3.12483Z" fill="#5CCC81"/>
</g>
<path fill-rule="evenodd" clip-rule="evenodd" d="M32.4721 205.429L29.3514 205.429L29.3514 206.679L32.4721 206.679L32.4721 209.805L33.722 209.805L33.722 206.679L36.8508 206.679L36.8508 205.429L33.722 205.429L33.722 202.305L32.4721 202.305L32.4721 205.429Z" fill="#DAE3F1"/>
<path fill-rule="evenodd" clip-rule="evenodd" d="M83.1909 205.43L80.0704 205.43L80.0704 206.68L83.1909 206.68L83.1909 209.805L84.4408 209.805L84.4408 206.68L87.5698 206.68L87.5698 205.43L84.4408 205.43L84.4408 202.305L83.1909 202.305L83.1909 205.43Z" fill="#DAE3F1"/>
<path fill-rule="evenodd" clip-rule="evenodd" d="M32.4721 53.7008L29.3514 53.7008L29.3514 54.9507L32.4721 54.9507L32.4721 58.0756L33.722 58.0756L33.722 54.9507L36.8508 54.9507L36.8508 53.7008L33.722 53.7008L33.722 50.5762L32.4721 50.5762L32.4721 53.7008Z" fill="#DAE3F1"/>
<path fill-rule="evenodd" clip-rule="evenodd" d="M7.12061 205.429L4.00007 205.429L4.00007 206.679L7.12061 206.679L7.12061 209.805L8.37051 209.805L8.37051 206.679L11.4995 206.679L11.4995 205.429L8.37051 205.429L8.37051 202.305L7.12061 202.305L7.12061 205.429Z" fill="#DAE3F1"/>
<path fill-rule="evenodd" clip-rule="evenodd" d="M32.4721 28.4127L29.3514 28.4127L29.3514 29.6626L32.4721 29.6626L32.4721 32.7875L33.722 32.7875L33.722 29.6626L36.8508 29.6626L36.8508 28.4127L33.722 28.4127L33.722 25.2881L32.4721 25.2881L32.4721 28.4127Z" fill="#DAE3F1"/>
<path fill-rule="evenodd" clip-rule="evenodd" d="M83.1909 53.7009L80.0704 53.7009L80.0704 54.9508L83.1909 54.9508L83.1909 58.0756L84.4408 58.0756L84.4408 54.9508L87.5698 54.9508L87.5698 53.7009L84.4408 53.7009L84.4408 50.5762L83.1909 50.5762L83.1909 53.7009Z" fill="#DAE3F1"/>
<path fill-rule="evenodd" clip-rule="evenodd" d="M7.12061 53.701L4.00007 53.701L4.00007 54.9509L7.12061 54.9509L7.12061 58.0756L8.37051 58.0756L8.37051 54.9509L11.4995 54.9509L11.4995 53.701L8.37051 53.701L8.37051 50.5762L7.12061 50.5762L7.12061 53.701Z" fill="#DAE3F1"/>
<path fill-rule="evenodd" clip-rule="evenodd" d="M32.4721 78.9889L29.3514 78.9889L29.3514 80.2388L32.4721 80.2388L32.4721 83.3637L33.722 83.3637L33.722 80.2388L36.8508 80.2388L36.8508 78.9889L33.722 78.9889L33.722 75.8643L32.4721 75.8643L32.4721 78.9889Z" fill="#DAE3F1"/>
<path fill-rule="evenodd" clip-rule="evenodd" d="M83.1909 28.4133L80.0704 28.4133L80.0704 29.6632L83.1909 29.6632L83.1909 32.788L84.4408 32.788L84.4408 29.6632L87.5698 29.6632L87.5698 28.4133L84.4408 28.4133L84.4408 25.2886L83.1909 25.2886L83.1909 28.4133Z" fill="#DAE3F1"/>
<path fill-rule="evenodd" clip-rule="evenodd" d="M32.4721 104.277L29.3514 104.277L29.3514 105.527L32.4721 105.527L32.4721 108.652L33.722 108.652L33.722 105.527L36.8508 105.527L36.8508 104.277L33.722 104.277L33.722 101.152L32.4721 101.152L32.4721 104.277Z" fill="#DAE3F1"/>
<path fill-rule="evenodd" clip-rule="evenodd" d="M7.12061 28.4129L4.00007 28.4129L4.00007 29.6628L7.12061 29.6628L7.12061 32.7875L8.37051 32.7875L8.37051 29.6628L11.4995 29.6628L11.4995 28.4129L8.37051 28.4129L8.37051 25.2881L7.12061 25.2881L7.12061 28.4129Z" fill="#DAE3F1"/>
<path fill-rule="evenodd" clip-rule="evenodd" d="M32.4721 154.854L29.3514 154.854L29.3514 156.104L32.4721 156.104L32.4721 159.228L33.722 159.228L33.722 156.104L36.8508 156.104L36.8508 154.854L33.722 154.854L33.722 151.729L32.4721 151.729L32.4721 154.854Z" fill="#DAE3F1"/>
<path fill-rule="evenodd" clip-rule="evenodd" d="M32.4721 129.566L29.3514 129.566L29.3514 130.816L32.4721 130.816L32.4721 133.94L33.722 133.94L33.722 130.816L36.8508 130.816L36.8508 129.566L33.722 129.566L33.722 126.441L32.4721 126.441L32.4721 129.566Z" fill="#DAE3F1"/>
<path fill-rule="evenodd" clip-rule="evenodd" d="M32.4721 180.141L29.3514 180.141L29.3514 181.391L32.4721 181.391L32.4721 184.516L33.722 184.516L33.722 181.391L36.8508 181.391L36.8508 180.141L33.722 180.141L33.722 177.017L32.4721 177.017L32.4721 180.141Z" fill="#DAE3F1"/>
<path fill-rule="evenodd" clip-rule="evenodd" d="M83.1909 78.9891L80.0704 78.9891L80.0704 80.239L83.1909 80.239L83.1909 83.3637L84.4408 83.3637L84.4408 80.239L87.5698 80.239L87.5698 78.9891L84.4408 78.9891L84.4408 75.8643L83.1909 75.8643L83.1909 78.9891Z" fill="#DAE3F1"/>
<path fill-rule="evenodd" clip-rule="evenodd" d="M7.12061 78.989L4.00007 78.989L4.00007 80.2389L7.12061 80.2389L7.12061 83.3637L8.37051 83.3637L8.37051 80.2389L11.4995 80.2389L11.4995 78.989L8.37051 78.989L8.37051 75.8643L7.12061 75.8643L7.12061 78.989Z" fill="#DAE3F1"/>
<path fill-rule="evenodd" clip-rule="evenodd" d="M83.187 104.277L80.0665 104.277L80.0665 105.527L83.187 105.527L83.187 108.652L84.4369 108.652L84.4369 105.527L87.5659 105.527L87.5659 104.277L84.4369 104.277L84.4369 101.153L83.187 101.153L83.187 104.277Z" fill="#DAE3F1"/>
<path fill-rule="evenodd" clip-rule="evenodd" d="M7.12061 104.277L4.00007 104.277L4.00007 105.527L7.12061 105.527L7.12061 108.652L8.37051 108.652L8.37051 105.527L11.4995 105.527L11.4995 104.277L8.37051 104.277L8.37051 101.152L7.12061 101.152L7.12061 104.277Z" fill="#DAE3F1"/>
<path fill-rule="evenodd" clip-rule="evenodd" d="M83.187 154.854L80.0665 154.854L80.0665 156.104L83.187 156.104L83.187 159.228L84.4369 159.228L84.4369 156.104L87.5659 156.104L87.5659 154.854L84.4369 154.854L84.4369 151.729L83.187 151.729L83.187 154.854Z" fill="#DAE3F1"/>
<path fill-rule="evenodd" clip-rule="evenodd" d="M7.12061 154.854L4.00007 154.854L4.00007 156.104L7.12061 156.104L7.12061 159.228L8.37051 159.228L8.37051 156.104L11.4995 156.104L11.4995 154.854L8.37051 154.854L8.37051 151.729L7.12061 151.729L7.12061 154.854Z" fill="#DAE3F1"/>
<path fill-rule="evenodd" clip-rule="evenodd" d="M83.1909 129.566L80.0665 129.566L80.0665 130.816L83.1909 130.816L83.1909 133.94L84.4408 133.94L84.4408 130.816L87.5659 130.816L87.5659 129.566L84.4408 129.566L84.4408 126.441L83.1909 126.441L83.1909 129.566Z" fill="#DAE3F1"/>
<path fill-rule="evenodd" clip-rule="evenodd" d="M7.12061 129.566L4.00007 129.566L4.00007 130.816L7.12061 130.816L7.12061 133.94L8.37051 133.94L8.37051 130.816L11.4995 130.816L11.4995 129.566L8.37051 129.566L8.37051 126.441L7.12061 126.441L7.12061 129.566Z" fill="#DAE3F1"/>
<path fill-rule="evenodd" clip-rule="evenodd" d="M83.1909 180.142L80.0704 180.142L80.0704 181.392L83.1909 181.392L83.1909 184.517L84.4408 184.517L84.4408 181.392L87.5698 181.392L87.5698 180.142L84.4408 180.142L84.4408 177.017L83.1909 177.017L83.1909 180.142Z" fill="#DAE3F1"/>
<path fill-rule="evenodd" clip-rule="evenodd" d="M7.12061 180.142L4.00007 180.142L4.00007 181.392L7.12061 181.392L7.12061 184.517L8.37051 184.517L8.37051 181.392L11.4995 181.392L11.4995 180.142L8.37051 180.142L8.37051 177.017L7.12061 177.017L7.12061 180.142Z" fill="#DAE3F1"/>
</g>
<defs>
<filter id="filter0_d_70_14356" x="0" y="0" width="15.4995" height="15.4995" filterUnits="userSpaceOnUse" color-interpolation-filters="sRGB">
<feFlood flood-opacity="0" result="BackgroundImageFix"/>
<feColorMatrix in="SourceAlpha" type="matrix" values="0 0 0 0 0 0 0 0 0 0 0 0 0 0 0 0 0 0 127 0" result="hardAlpha"/>
<feOffset dy="4"/>
<feGaussianBlur stdDeviation="2"/>
<feComposite in2="hardAlpha" operator="out"/>
<feColorMatrix type="matrix" values="0 0 0 0 0.36 0 0 0 0 0.8 0 0 0 0 0.506667 0 0 0 0.25 0"/>
<feBlend mode="normal" in2="BackgroundImageFix" result="effect1_dropShadow_70_14356"/>
<feBlend mode="normal" in="SourceGraphic" in2="effect1_dropShadow_70_14356" result="shape"/>
</filter>
</defs>
</svg>
