<svg width="140" height="140" viewBox="0 0 140 140" fill="none" xmlns="http://www.w3.org/2000/svg">
<rect width="140" height="140" rx="40" fill="#F3F5F3"/>
<path d="M64.8438 48.4375H98.5938C99.625 48.4375 100.469 49.2812 100.469 50.3125V72.8125C100.469 73.8438 99.625 74.6875 98.5938 74.6875H77.9688C77.4062 74.6875 77.0312 75.0625 77.0312 75.625V78.4375C77.0312 79.1875 76.1875 79.6562 75.5312 79.1875L70 75.0625C69.7188 74.7813 69.25 74.6875 68.875 74.6875H64.8438C63.8125 74.6875 62.9688 73.8438 62.9688 72.8125V50.3125C62.9688 49.2812 63.8125 48.4375 64.8438 48.4375ZM79.5625 66.3438C79.5625 66.9062 79.9375 67.2812 80.5 67.2812H93.9062C94.4688 67.2812 94.8438 66.9062 94.8438 66.3438V63.8125C94.8438 63.25 94.4688 62.875 93.9062 62.875H80.5C79.9375 62.875 79.5625 63.25 79.5625 63.8125V66.3438ZM68.5938 58.375C68.5938 58.9375 68.9688 59.3125 69.5312 59.3125H93.9062C94.4688 59.3125 94.8438 58.9375 94.8438 58.375V55.8437C94.8438 55.2812 94.4688 54.9062 93.9062 54.9062H69.5312C68.9688 54.9062 68.5938 55.2812 68.5938 55.8437V58.375Z" fill="#4DA2D6"/>
<path d="M41.4062 40H75.1562C76.1875 40 77.0312 40.8438 77.0312 41.875V44.6875H64.8438C63.3438 44.6875 46.0938 44.5938 46.0938 44.5938C45.5312 44.5938 45.1562 44.9688 45.1562 45.5312V48.0625C45.1562 48.625 45.5312 49 46.0938 49H60.1562V52.5625H46.0938C45.5312 52.5625 45.1562 52.9375 45.1562 53.5V56.0312C45.1562 56.5938 45.5312 56.9688 46.0938 56.9688H60.1562V64.375H59.875C59.5 64.375 59.0312 64.4688 58.75 64.75L53.2187 68.875C52.5625 69.3438 51.7188 68.875 51.7188 68.125V65.3125C51.7188 64.75 51.3438 64.375 50.7812 64.375H41.4062C40.375 64.375 39.5312 63.5312 39.5312 62.5V41.875C39.5312 40.8438 40.375 40 41.4062 40Z" fill="#5CCC81"/>
<path d="M86.8726 87.8125C84.0248 87.8125 81.7163 85.504 81.7163 82.6562C81.7163 79.8085 84.0248 77.5 86.8726 77.5C89.7203 77.5 92.0288 79.8085 92.0288 82.6562C92.0288 85.504 89.7203 87.8125 86.8726 87.8125Z" fill="#5CCC81"/>
<path d="M76.6535 100H97.091C97.6535 100 98.1223 99.5313 98.0285 98.9688C97.5598 93.25 92.7785 88.75 86.8723 88.75C80.966 88.75 76.1848 93.25 75.6223 98.9688C75.6223 99.5313 76.091 100 76.6535 100Z" fill="#5CCC81"/>
<path d="M53.1226 87.8125C50.2748 87.8125 47.9663 85.504 47.9663 82.6562C47.9663 79.8085 50.2748 77.5 53.1226 77.5C55.9703 77.5 58.2788 79.8085 58.2788 82.6562C58.2788 85.504 55.9703 87.8125 53.1226 87.8125Z" fill="#4DA2D6"/>
<path d="M42.9035 100H63.341C63.9035 100 64.3723 99.5313 64.2785 98.9688C63.716 93.25 58.9348 88.75 53.0285 88.75C47.1223 88.75 42.341 93.25 41.7785 98.9688C41.8723 99.5313 42.341 100 42.9035 100Z" fill="#4DA2D6"/>
</svg>
