<svg width="140" height="140" viewBox="0 0 140 140" fill="none" xmlns="http://www.w3.org/2000/svg">
<rect width="140" height="140" rx="40" fill="#F3F5F3"/>
<g clip-path="url(#clip0_70_14069)">
<path d="M97.5 86H89.5C88.4 86 87.5 85.1 87.5 84V42C87.5 40.9 88.4 40 89.5 40H97.5C98.6 40 99.5 40.9 99.5 42V84C99.5 85.1 98.6 86 97.5 86Z" fill="#4DA2D6"/>
<path d="M81.5 85.9999H73.5C72.4 85.9999 71.5 85.0999 71.5 83.9999V52.3999C71.5 51.2999 72.4 50.3999 73.5 50.3999H81.5C82.6 50.3999 83.5 51.2999 83.5 52.3999V83.9999C83.5 85.0999 82.6 85.9999 81.5 85.9999Z" fill="#5CCC81"/>
<path d="M66.5 86H58.5C57.4 86 56.5 85.1 56.5 84V65C56.5 63.9 57.4 63 58.5 63H66.5C67.6 63 68.5 63.9 68.5 65V84C68.5 85.1 67.6 86 66.5 86Z" fill="#4DA2D6"/>
<path d="M50.5 85.9999H42.5C41.4 85.9999 40.5 85.0999 40.5 83.9999V74.2C40.5 73.1 41.4 72.2 42.5 72.2H50.5C51.6 72.2 52.5 73.1 52.5 74.2V83.9999C52.5 85.0999 51.6 85.9999 50.5 85.9999Z" fill="#4DA2D6"/>
<path d="M71.5 96C71.5 95.3 71.6 94.6 71.8 94H42.5C41.4 94 40.5 94.9 40.5 96C40.5 97.1 41.4 98 42.5 98H71.8C71.6 97.4 71.5 96.7 71.5 96Z" fill="#4DA2D6"/>
<path d="M97.5002 94H83.2002C83.4002 94.6 83.5002 95.3 83.5002 96C83.5002 96.7 83.4002 97.4 83.2002 98H97.5002C98.6002 98 99.5002 97.1 99.5002 96C99.5002 94.9 98.6002 94 97.5002 94Z" fill="#4DA2D6"/>
<path d="M77.5 100C79.7091 100 81.5 98.2091 81.5 96C81.5 93.7909 79.7091 92 77.5 92C75.2909 92 73.5 93.7909 73.5 96C73.5 98.2091 75.2909 100 77.5 100Z" fill="#5CCC81"/>
</g>
<defs>
<clipPath id="clip0_70_14069">
<rect width="59" height="60" fill="white" transform="translate(40.5 40)"/>
</clipPath>
</defs>
</svg>
