<svg width="100" height="122" viewBox="0 0 100 122" fill="none" xmlns="http://www.w3.org/2000/svg">
<path d="M11.7647 84.6276C18.2622 84.6276 23.5294 79.3603 23.5294 72.8628C23.5294 66.3654 18.2622 61.0981 11.7647 61.0981C5.26724 61.0981 0 66.3654 0 72.8628C0 79.3603 5.26724 84.6276 11.7647 84.6276Z" fill="#5CCC81"/>
<path d="M22.7451 58.9411C19.8039 56.5881 15.8824 55.0195 11.7647 55.0195C10.1961 55.0195 8.62747 55.2156 7.05884 55.6077C10.7843 45.9999 17.451 37.7646 26.6667 32.2744L34.7059 45.6077C29.4118 49.1372 25.2941 53.647 22.7451 58.9411Z" fill="#4DA2D6"/>
<path d="M11.7647 90.5095C15.8824 90.5095 19.8039 89.1369 22.7451 86.5879C27.8432 96.98 38.6275 104.235 50.9804 104.235C59.6079 104.235 67.6471 100.706 73.3334 94.8232C75.6863 92.4702 93.1373 93.6467 93.1373 93.6467C85.2941 109.725 69.0196 119.921 50.9804 119.921C30.9804 119.921 13.9216 107.372 7.05884 89.9212C8.62747 90.1173 10.1961 90.5095 11.7647 90.5095Z" fill="#4DA2D6"/>
<path d="M33.9217 32.6667L54.1177 20.5098L42.9413 2.07844C41.7648 0.313732 39.4119 -0.470582 37.6472 0.705889L24.1177 8.7451C22.353 9.92158 21.5687 12.2745 22.7452 14.0392L33.9217 32.6667Z" fill="#4DA2D6"/>
<path d="M52.5492 55.8038L66.0786 47.7645C67.8433 46.5881 68.6276 44.2351 67.4512 42.4704L56.2747 24.0391L36.0786 36.1959L47.2551 54.6273C48.2355 56.392 50.5884 56.9802 52.5492 55.8038Z" fill="#4DA2D6"/>
<path d="M58.2354 61.4902L68.2354 55.4118C69.2158 54.8235 69.4119 53.6471 68.8236 52.6667C68.2354 51.6863 67.0589 51.4902 66.0785 52.0784L56.0785 58.1569C55.0982 58.7451 54.9021 59.9216 55.4903 60.902C56.0785 61.8824 57.255 62.0784 58.2354 61.4902Z" fill="#4DA2D6"/>
<path d="M47.0589 96.3923H98.0393C99.2158 96.3923 100 95.608 100 94.4315C100 93.255 99.2158 92.4707 98.0393 92.4707H47.0589C45.8825 92.4707 45.0981 93.255 45.0981 94.4315C45.0981 95.4119 45.8825 96.3923 47.0589 96.3923Z" fill="#4DA2D6"/>
<path d="M1.96078 121.883H98.0392C99.2157 121.883 100 121.098 100 119.922C100 118.745 99.2157 117.961 98.0392 117.961H1.96078C0.784314 117.961 0 118.745 0 119.922C0 120.902 0.784314 121.883 1.96078 121.883Z" fill="#4DA2D6"/>
</svg>
