<svg width="100" height="94" viewBox="0 0 100 94" fill="none" xmlns="http://www.w3.org/2000/svg">
<path d="M63 86H37L40 78H60L63 86Z" fill="#4DA2D6"/>
<path d="M74 94H26C26 91.8 27.8 90 30 90H70C72.2 90 74 91.8 74 94Z" fill="#4DA2D6"/>
<path d="M0 56V68C0 71.4 2.6 74 6 74H94C97.4 74 100 71.4 100 68V56H0ZM50 71C46.6 71 44 68.4 44 65C44 61.6 46.6 59 50 59C53.4 59 56 61.6 56 65C56 68.4 53.4 71 50 71Z" fill="#5CCC81"/>
<path d="M50 68C51.6569 68 53 66.6569 53 65C53 63.3431 51.6569 62 50 62C48.3431 62 47 63.3431 47 65C47 66.6569 48.3431 68 50 68Z" fill="#4DA2D6"/>
<path d="M94 0H6C2.6 0 0 2.6 0 6V52H100V6C100 2.6 97.4 0 94 0ZM60 32H54V38C54 39.2 53.2 40 52 40H48C46.8 40 46 39.2 46 38V32H40C38.8 32 38 31.2 38 30V26C38 24.8 38.8 24 40 24H46V18C46 16.8 46.8 16 48 16H52C53.2 16 54 16.8 54 18V24H60C61.2 24 62 24.8 62 26V30C62 31.2 61.2 32 60 32Z" fill="#4DA2D6"/>
</svg>
