<svg width="100" height="84" viewBox="0 0 100 84" fill="none" xmlns="http://www.w3.org/2000/svg">
<path d="M55.6139 24.8963C55.7188 24.2667 55.8237 21.5385 55.9287 20.3842L56.1385 20.1744C56.1385 19.6497 56.1385 19.0201 56.1385 18.3905C55.9287 13.6686 55.6139 10.1009 53.7251 7.16282C53.6202 6.95296 53.5152 6.7431 53.5152 6.53323C53.5152 5.16912 54.1448 4.74939 54.1448 4.74939C54.1448 4.74939 53.7251 4.4346 53.0955 4.53953C52.4659 4.64446 52.2561 4.74939 52.2561 4.74939C52.2561 4.74939 52.8856 3.90994 53.83 3.59514C54.8794 3.28035 55.6139 3.07048 55.6139 3.07048C55.6139 3.07048 50.3673 1.91623 44.596 1.18171C38.4051 -0.497197 30.0105 -0.497197 25.9182 1.70637C20.4617 4.64446 20.4617 6.84803 20.4617 6.84803C20.4617 6.84803 16.3694 9.99598 16.1595 18.9152C16.1595 19.125 16.1595 19.3349 16.1595 19.5448L16.2645 19.6497V21.3286C16.3694 22.6927 16.5792 24.0568 16.894 25.2111C16.2645 25.6308 15.8447 26.3653 15.8447 27.6245C15.8447 33.5007 18.573 35.7043 19.9371 36.3339C20.1469 39.0621 22.3505 41.7903 24.659 44.0988C27.9119 47.2468 32.319 49.0306 36.8311 48.9257C41.4481 48.9257 45.8552 47.0369 49.1081 43.784C51.3117 41.4755 53.4103 38.8522 53.7251 36.3339C53.83 36.3339 53.83 36.3339 53.935 36.2289C54.9843 35.8092 57.6076 33.3958 57.6076 28.7788C57.5027 26.4703 56.6632 25.316 55.6139 24.8963Z" fill="#4DA2D6"/>
<path d="M22.5604 63.1965L25.9182 83.973H30.4302L30.6401 50.4998L24.2393 51.3392C22.9801 51.5491 21.9308 52.3885 21.616 53.6477L21.0913 55.4316L24.5541 59.5239L22.5604 63.1965Z" fill="#4DA2D6"/>
<path d="M48.8982 83.973L52.2561 63.1965L50.3673 59.6288L53.83 55.5365L53.3054 53.6477C52.9906 52.3885 51.9413 51.5491 50.6821 51.3392L44.2812 50.4998L44.3862 83.973H48.8982Z" fill="#4DA2D6"/>
<path d="M67.996 57.7398C66.422 55.4313 64.7431 54.6968 63.5888 54.382L58.4472 53.0179C57.6077 52.808 56.9781 53.5426 57.188 54.382L57.5028 55.5363L54.04 59.6286L56.0338 63.1963L49.8428 83.9728H52.9907C71.039 83.9728 75.3412 76.8374 74.2919 73.3747C72.1932 66.1344 69.1502 59.5237 67.996 57.7398Z" fill="#4DA2D6"/>
<path d="M39.4546 57.3203L40.6088 53.9625L37.4609 50.4998L34.3129 53.9625L35.4672 57.3203L32.1094 83.973H42.8124L39.4546 57.3203Z" fill="#5CCC81"/>
<path d="M67.471 44.4137L67.1562 45.5679L69.2549 48.0863L67.9957 50.2899L68.3105 52.1786C69.3598 52.9132 70.4091 53.9625 71.3535 55.4315C71.7732 56.0611 72.2979 57.0055 72.9275 58.1597L73.0324 42.5249L69.15 43.0496C68.4154 43.1545 67.6809 43.6792 67.471 44.4137Z" fill="#5CCC81"/>
<path d="M64.323 44.099L61.28 44.9384C60.5455 45.1483 59.4961 45.568 58.5518 46.9321C58.3419 47.2469 57.9222 47.9815 57.5024 48.8209C57.7123 48.8209 57.9222 48.8209 58.0271 48.8209C58.4468 48.8209 58.8666 48.9258 59.3912 49.0308L64.4279 50.29C64.8477 50.3949 65.3723 50.4998 65.897 50.7097L65.6871 50.185L66.9463 47.9815L64.8477 45.4631L65.0575 44.7286C65.2674 44.4138 64.8477 43.8891 64.323 44.099Z" fill="#5CCC81"/>
<path d="M63.9033 28.464C63.9033 32.1366 65.5822 33.3958 66.4217 33.8155C66.5266 35.4945 67.8907 37.1734 69.2548 38.5375C71.2485 40.5312 73.8718 41.5805 76.705 41.4756C79.5382 41.4756 82.2664 40.3213 84.1551 38.3276C85.5193 36.9635 86.7785 35.2846 86.9883 33.8155H87.0932C87.7228 33.6057 89.2968 32.1366 89.2968 29.3035C89.2968 27.8344 88.7722 27.2048 88.1426 26.89C88.2475 26.4703 88.2475 24.7914 88.3524 24.1618L88.4574 24.0569C88.4574 23.7421 88.4574 23.3224 88.4574 23.0076C88.3524 20.1744 88.1426 17.8659 86.9883 16.0821C86.9883 15.9771 86.8834 15.8722 86.8834 15.6623C86.8834 14.8229 87.3031 14.613 87.3031 14.613C87.3031 14.613 87.0932 14.4032 86.6735 14.5081C86.3587 14.613 86.1489 14.613 86.1489 14.613C86.1489 14.613 86.5686 14.0884 87.0932 13.8785C87.7228 13.6686 88.1426 13.5637 88.1426 13.5637C88.1426 13.5637 84.8897 12.8292 81.4269 12.4095C77.6494 11.3601 72.5077 11.3601 69.9894 12.7243C66.6315 14.5081 66.6315 15.8722 66.6315 15.8722C66.6315 15.8722 64.1132 17.8659 64.0083 23.3224C64.0083 23.4273 64.0083 23.5322 64.0083 23.7421L64.1132 23.847V24.8963C64.2181 25.7358 64.323 26.5752 64.5329 27.2048C64.2181 27.2048 63.9033 27.6246 63.9033 28.464Z" fill="#5CCC81"/>
<path d="M79.2233 44.6235L77.3345 42.5249L75.4458 44.6235L76.0753 46.7222L74.2915 60.888C74.6063 61.5176 74.9211 62.2521 75.2359 62.9866H80.5874L78.4888 46.7222L79.2233 44.6235Z" fill="#4DA2D6"/>
<path d="M85.0994 48.0863L87.198 45.5679L86.8832 44.4137C86.6734 43.6792 86.0438 43.1545 85.3092 43.0496L81.4268 42.5249L81.5317 62.9866H84.3649L86.4635 50.2899L85.0994 48.0863Z" fill="#5CCC81"/>
<path d="M99.8949 56.4808C98.5308 51.9687 96.7469 47.9813 96.0124 46.8271C95.068 45.463 94.0187 44.9383 93.2842 44.7284L90.1362 43.889C89.6116 43.7841 89.1918 44.2038 89.2968 44.7284L89.5066 45.463L87.408 47.9813L88.6672 50.1849L84.8896 62.9866H86.8834C97.9012 62.9866 100.524 58.5794 99.8949 56.4808Z" fill="#5CCC81"/>
<path d="M18.7828 63.1964L20.7765 59.6287L17.3138 55.5364L17.6286 54.3821C17.8384 53.5427 17.1039 52.9131 16.3694 53.123L11.4376 54.4871C10.2833 54.8019 8.60442 55.5364 7.03044 57.8449C5.87619 59.6287 2.62331 66.1345 0.209875 73.4797C-0.839443 76.7326 1.20662e-05 83.9729 24.4491 83.9729H25.4984L18.7828 63.1964Z" fill="#4DA2D6"/>
</svg>
