<svg width="189" height="193" viewBox="0 0 189 193" fill="none" xmlns="http://www.w3.org/2000/svg">
<g style="mix-blend-mode:multiply">
<path fill-rule="evenodd" clip-rule="evenodd" d="M29.7271 181.393L32.8515 181.393L32.8515 180.144L29.7271 180.144L29.7271 177.02L28.4771 177.02L28.4771 180.144L25.3521 180.144L25.3521 181.393L28.4771 181.393L28.4771 184.519L29.7271 184.519L29.7271 181.393Z" fill="#DAE3F1"/>
<path fill-rule="evenodd" clip-rule="evenodd" d="M29.7271 130.816L32.8515 130.816L32.8515 129.566L29.7271 129.566L29.7271 126.442L28.4771 126.442L28.4771 129.566L25.3521 129.566L25.3521 130.816L28.4771 130.816L28.4771 133.942L29.7271 133.942L29.7271 130.816Z" fill="#DAE3F1"/>
<path fill-rule="evenodd" clip-rule="evenodd" d="M29.7349 156.105L32.8554 156.105L32.8554 154.855L29.7349 154.855L29.7349 151.731L28.485 151.731L28.485 154.855L25.356 154.855L25.356 156.105L28.485 156.105L28.485 159.231L29.7349 159.231L29.7349 156.105Z" fill="#DAE3F1"/>
<path fill-rule="evenodd" clip-rule="evenodd" d="M29.731 105.528L32.8554 105.528L32.8554 104.278L29.731 104.278L29.731 101.154L28.481 101.154L28.481 104.278L25.356 104.278L25.356 105.528L28.481 105.528L28.481 108.654L29.731 108.654L29.731 105.528Z" fill="#DAE3F1"/>
<path fill-rule="evenodd" clip-rule="evenodd" d="M29.731 80.2401L32.8515 80.2401L32.8515 78.9902L29.731 78.9902L29.731 75.8662L28.481 75.8662L28.481 78.9902L25.3521 78.9902L25.3521 80.2401L28.481 80.2401L28.481 83.3657L29.731 83.3657L29.731 80.2401Z" fill="#DAE3F1"/>
<path fill-rule="evenodd" clip-rule="evenodd" d="M29.731 29.664L32.8554 29.664L32.8554 28.4141L29.731 28.4141L29.731 25.29L28.481 25.29L28.481 28.4141L25.356 28.4141L25.356 29.664L28.481 29.664L28.481 32.7895L29.731 32.7895L29.731 29.664Z" fill="#DAE3F1"/>
<path fill-rule="evenodd" clip-rule="evenodd" d="M29.7271 54.9521L32.8515 54.9521L32.8515 53.7021L29.7271 53.7021L29.7271 50.5781L28.4771 50.5781L28.4771 53.7021L25.3521 53.7021L25.3521 54.9521L28.4771 54.9521L28.4771 58.0776L29.7271 58.0776L29.7271 54.9521Z" fill="#DAE3F1"/>
<path fill-rule="evenodd" clip-rule="evenodd" d="M29.7271 4.37588L32.8515 4.37588L32.8515 3.12598L29.7271 3.12598L29.7271 0.000976371L28.4771 0.000976426L28.4771 3.12598L25.3521 3.12598L25.3521 4.37588L28.4771 4.37588L28.4771 7.50042L29.7271 7.50042L29.7271 4.37588Z" fill="#DAE3F1"/>
<path fill-rule="evenodd" clip-rule="evenodd" d="M4.37939 181.392L7.49993 181.392L7.49993 180.143L4.37939 180.143L4.37939 177.019L3.12949 177.019L3.12949 180.143L0.00048809 180.143L0.000488145 181.392L3.12949 181.392L3.12949 184.518L4.37939 184.518L4.37939 181.392Z" fill="#DAE3F1"/>
<path fill-rule="evenodd" clip-rule="evenodd" d="M55.0903 181.393L58.2148 181.393L58.2148 180.144L55.0903 180.144L55.0903 177.02L53.8404 177.02L53.8404 180.144L50.7153 180.144L50.7153 181.393L53.8404 181.393L53.8404 184.519L55.0903 184.519L55.0903 181.393Z" fill="#DAE3F1"/>
<path fill-rule="evenodd" clip-rule="evenodd" d="M4.37939 130.816L7.49993 130.816L7.49993 129.566L4.37939 129.566L4.37939 126.442L3.12949 126.442L3.12949 129.566L0.00048809 129.566L0.000488145 130.816L3.12949 130.816L3.12949 133.942L4.37939 133.942L4.37939 130.816Z" fill="#DAE3F1"/>
<path fill-rule="evenodd" clip-rule="evenodd" d="M55.0903 130.817L58.2148 130.817L58.2148 129.567L55.0903 129.567L55.0903 126.443L53.8404 126.443L53.8404 129.567L50.7153 129.567L50.7153 130.817L53.8404 130.817L53.8404 133.943L55.0903 133.943L55.0903 130.817Z" fill="#DAE3F1"/>
<path fill-rule="evenodd" clip-rule="evenodd" d="M4.37939 156.104L7.49993 156.104L7.49993 154.854L4.37939 154.854L4.37939 151.729L3.12949 151.729L3.12949 154.854L0.00048809 154.854L0.000488145 156.104L3.12949 156.104L3.12949 159.229L4.37939 159.229L4.37939 156.104Z" fill="#DAE3F1"/>
<path fill-rule="evenodd" clip-rule="evenodd" d="M55.0903 156.104L58.2148 156.104L58.2148 154.854L55.0903 154.854L55.0903 151.731L53.8404 151.731L53.8404 154.854L50.7153 154.854L50.7153 156.104L53.8404 156.104L53.8404 159.231L55.0903 159.231L55.0903 156.104Z" fill="#DAE3F1"/>
<path fill-rule="evenodd" clip-rule="evenodd" d="M4.37939 105.53L7.49993 105.53L7.49993 104.28L4.37939 104.28L4.37939 101.154L3.12949 101.154L3.12949 104.28L0.00048809 104.28L0.000488145 105.53L3.12949 105.53L3.12949 108.654L4.37939 108.654L4.37939 105.53Z" fill="#DAE3F1"/>
<path fill-rule="evenodd" clip-rule="evenodd" d="M55.0903 105.528L58.2148 105.528L58.2148 104.278L55.0903 104.278L55.0903 101.154L53.8404 101.154L53.8404 104.278L50.7153 104.278L50.7153 105.528L53.8404 105.528L53.8404 108.654L55.0903 108.654L55.0903 105.528Z" fill="#DAE3F1"/>
<path fill-rule="evenodd" clip-rule="evenodd" d="M4.37939 80.2421L7.49993 80.2421L7.49993 78.9922L4.37939 78.9922L4.37939 75.8662L3.12949 75.8662L3.12949 78.9922L0.00048809 78.9922L0.000488145 80.2421L3.12949 80.2421L3.12949 83.3657L4.37939 83.3657L4.37939 80.2421Z" fill="#DAE3F1"/>
<path fill-rule="evenodd" clip-rule="evenodd" d="M55.0903 80.2401L58.2148 80.2401L58.2148 78.9902L55.0903 78.9902L55.0903 75.8662L53.8404 75.8662L53.8404 78.9902L50.7153 78.9902L50.7153 80.2401L53.8404 80.2401L53.8404 83.3657L55.0903 83.3657L55.0903 80.2401Z" fill="#DAE3F1"/>
<path fill-rule="evenodd" clip-rule="evenodd" d="M4.37939 29.6649L7.49993 29.6649L7.49993 28.415L4.37939 28.415L4.37939 25.291L3.12949 25.291L3.12949 28.415L0.00048809 28.415L0.000488145 29.6649L3.12949 29.6649L3.12949 32.7905L4.37939 32.7905L4.37939 29.6649Z" fill="#DAE3F1"/>
<path fill-rule="evenodd" clip-rule="evenodd" d="M55.0903 29.664L58.2148 29.664L58.2148 28.4141L55.0903 28.4141L55.0903 25.29L53.8404 25.29L53.8404 28.4141L50.7153 28.4141L50.7153 29.664L53.8404 29.664L53.8404 32.7895L55.0903 32.7895L55.0903 29.664Z" fill="#DAE3F1"/>
<path fill-rule="evenodd" clip-rule="evenodd" d="M4.37939 54.953L7.49993 54.953L7.49993 53.7031L4.37939 53.7031L4.37939 50.5781L3.12949 50.5781L3.12949 53.7031L0.00048809 53.7031L0.000488145 54.953L3.12949 54.953L3.12949 58.0776L4.37939 58.0776L4.37939 54.953Z" fill="#DAE3F1"/>
<path fill-rule="evenodd" clip-rule="evenodd" d="M55.0903 54.9521L58.2148 54.9521L58.2148 53.7021L55.0903 53.7021L55.0903 50.5781L53.8404 50.5781L53.8404 53.7021L50.7153 53.7021L50.7153 54.9521L53.8404 54.9521L53.8404 58.0776L55.0903 58.0776L55.0903 54.9521Z" fill="#DAE3F1"/>
<path fill-rule="evenodd" clip-rule="evenodd" d="M4.37939 4.37686L7.49993 4.37686L7.49993 3.12695L4.37939 3.12695L4.37939 0.00195293L3.12949 0.00195299L3.12949 3.12695L0.00048809 3.12695L0.000488145 4.37686L3.12949 4.37686L3.12949 7.5014L4.37939 7.5014L4.37939 4.37686Z" fill="#DAE3F1"/>
<path fill-rule="evenodd" clip-rule="evenodd" d="M55.0903 4.37491L58.2148 4.37491L58.2148 3.125L55.0903 3.125L55.0903 -1.91237e-07L53.8404 -1.36602e-07L53.8404 3.125L50.7153 3.125L50.7153 4.37491L53.8404 4.37491L53.8404 7.49945L55.0903 7.49945L55.0903 4.37491Z" fill="#DAE3F1"/>
<path fill-rule="evenodd" clip-rule="evenodd" d="M80.4419 181.393L83.5663 181.393L83.5663 180.144L80.4419 180.144L80.4419 177.02L79.192 177.02L79.192 180.144L76.0669 180.144L76.0669 181.393L79.192 181.393L79.192 184.519L80.4419 184.519L80.4419 181.393Z" fill="#DAE3F1"/>
<path fill-rule="evenodd" clip-rule="evenodd" d="M131.165 181.392L134.289 181.392L134.289 180.143L131.165 180.143L131.165 177.019L129.915 177.019L129.915 180.143L126.79 180.143L126.79 181.392L129.915 181.392L129.915 184.518L131.165 184.518L131.165 181.392Z" fill="#DAE3F1"/>
<path fill-rule="evenodd" clip-rule="evenodd" d="M80.4419 130.817L83.5663 130.817L83.5663 129.567L80.4419 129.567L80.4419 126.443L79.192 126.443L79.192 129.567L76.0669 129.567L76.0669 130.817L79.192 130.817L79.192 133.943L80.4419 133.943L80.4419 130.817Z" fill="#DAE3F1"/>
<path fill-rule="evenodd" clip-rule="evenodd" d="M131.165 130.816L134.289 130.816L134.289 129.566L131.165 129.566L131.165 126.442L129.915 126.442L129.915 129.566L126.79 129.566L126.79 130.816L129.915 130.816L129.915 133.942L131.165 133.942L131.165 130.816Z" fill="#DAE3F1"/>
<path fill-rule="evenodd" clip-rule="evenodd" d="M80.4419 156.105L83.5663 156.105L83.5663 154.855L80.4419 154.855L80.4419 151.731L79.192 151.731L79.192 154.855L76.0669 154.855L76.0669 156.105L79.192 156.105L79.192 159.231L80.4419 159.231L80.4419 156.105Z" fill="#DAE3F1"/>
<path fill-rule="evenodd" clip-rule="evenodd" d="M131.168 156.105L134.289 156.105L134.289 154.855L131.168 154.855L131.168 151.731L129.919 151.731L129.919 154.855L126.79 154.855L126.79 156.105L129.919 156.105L129.919 159.231L131.168 159.231L131.168 156.105Z" fill="#DAE3F1"/>
<path fill-rule="evenodd" clip-rule="evenodd" d="M80.4419 105.527L83.5663 105.527L83.5663 104.277L80.4419 104.277L80.4419 101.154L79.192 101.154L79.192 104.277L76.0669 104.277L76.0669 105.527L79.192 105.527L79.192 108.654L80.4419 108.654L80.4419 105.527Z" fill="#DAE3F1"/>
<path fill-rule="evenodd" clip-rule="evenodd" d="M131.165 105.528L134.289 105.528L134.289 104.278L131.165 104.278L131.165 101.154L129.915 101.154L129.915 104.278L126.79 104.278L126.79 105.528L129.915 105.528L129.915 108.654L131.165 108.654L131.165 105.528Z" fill="#DAE3F1"/>
<path fill-rule="evenodd" clip-rule="evenodd" d="M80.4458 80.2401L83.5702 80.2401L83.5702 78.9902L80.4458 78.9902L80.4458 75.8662L79.1959 75.8662L79.1959 78.9902L76.0708 78.9902L76.0708 80.2401L79.1959 80.2401L79.1959 83.3657L80.4458 83.3657L80.4458 80.2401Z" fill="#DAE3F1"/>
<path fill-rule="evenodd" clip-rule="evenodd" d="M131.168 80.2411L134.289 80.2411L134.289 78.9912L131.168 78.9912L131.168 75.8672L129.919 75.8672L129.919 78.9912L126.79 78.9912L126.79 80.2411L129.919 80.2411L129.919 83.3666L131.168 83.3666L131.168 80.2411Z" fill="#DAE3F1"/>
<path fill-rule="evenodd" clip-rule="evenodd" d="M80.4458 29.664L83.5702 29.664L83.5702 28.4141L80.4458 28.4141L80.4458 25.29L79.1959 25.29L79.1959 28.4141L76.0708 28.4141L76.0708 29.664L79.1959 29.664L79.1959 32.7895L80.4458 32.7895L80.4458 29.664Z" fill="#DAE3F1"/>
<path fill-rule="evenodd" clip-rule="evenodd" d="M131.165 29.6649L134.289 29.6649L134.289 28.415L131.165 28.415L131.165 25.291L129.915 25.291L129.915 28.415L126.79 28.415L126.79 29.6649L129.915 29.6649L129.915 32.7905L131.165 32.7905L131.165 29.6649Z" fill="#DAE3F1"/>
<path fill-rule="evenodd" clip-rule="evenodd" d="M80.4458 54.9521L83.5702 54.9521L83.5702 53.7021L80.4458 53.7021L80.4458 50.5781L79.1959 50.5781L79.1959 53.7021L76.0708 53.7021L76.0708 54.9521L79.1959 54.9521L79.1959 58.0776L80.4458 58.0776L80.4458 54.9521Z" fill="#DAE3F1"/>
<path fill-rule="evenodd" clip-rule="evenodd" d="M131.165 54.953L134.289 54.953L134.289 53.7031L131.165 53.7031L131.165 50.5791L129.915 50.5791L129.915 53.7031L126.79 53.7031L126.79 54.953L129.915 54.953L129.915 58.0785L131.165 58.0785L131.165 54.953Z" fill="#DAE3F1"/>
<path fill-rule="evenodd" clip-rule="evenodd" d="M80.4419 4.37686L83.5663 4.37686L83.5663 3.12695L80.4419 3.12695L80.4419 0.00195293L79.192 0.00195299L79.192 3.12695L76.0669 3.12695L76.0669 4.37686L79.192 4.37686L79.192 7.5014L80.4419 7.5014L80.4419 4.37686Z" fill="#DAE3F1"/>
<path fill-rule="evenodd" clip-rule="evenodd" d="M131.165 4.37588L134.289 4.37588L134.289 3.12598L131.165 3.12598L131.165 0.000976371L129.915 0.000976426L129.915 3.12598L126.79 3.12598L126.79 4.37588L129.915 4.37588L129.915 7.50042L131.165 7.50042L131.165 4.37588Z" fill="#DAE3F1"/>
<path fill-rule="evenodd" clip-rule="evenodd" d="M105.809 181.392L108.93 181.392L108.93 180.143L105.809 180.143L105.809 177.019L104.559 177.019L104.559 180.143L101.43 180.143L101.43 181.392L104.559 181.392L104.559 184.518L105.809 184.518L105.809 181.392Z" fill="#DAE3F1"/>
<path fill-rule="evenodd" clip-rule="evenodd" d="M156.528 181.393L159.648 181.393L159.648 180.144L156.528 180.144L156.528 177.02L155.278 177.02L155.278 180.144L152.149 180.144L152.149 181.393L155.278 181.393L155.278 184.519L156.528 184.519L156.528 181.393Z" fill="#DAE3F1"/>
<g filter="url(#filter0_d_70_14974)">
<path fill-rule="evenodd" clip-rule="evenodd" d="M181.879 181.393L185 181.393L185 180.144L181.879 180.144L181.879 177.02L180.629 177.02L180.629 180.144L177.5 180.144L177.5 181.393L180.629 181.393L180.629 184.519L181.879 184.519L181.879 181.393Z" fill="#5CCC81"/>
</g>
<path fill-rule="evenodd" clip-rule="evenodd" d="M156.528 130.816L159.648 130.816L159.648 129.566L156.528 129.566L156.528 126.441L155.278 126.441L155.278 129.566L152.149 129.566L152.149 130.816L155.278 130.816L155.278 133.941L156.528 133.941L156.528 130.816Z" fill="#DAE3F1"/>
<path fill-rule="evenodd" clip-rule="evenodd" d="M156.528 156.104L159.648 156.104L159.648 154.854L156.528 154.854L156.528 151.729L155.278 151.729L155.278 154.854L152.149 154.854L152.149 156.104L155.278 156.104L155.278 159.229L156.528 159.229L156.528 156.104Z" fill="#DAE3F1"/>
<path fill-rule="evenodd" clip-rule="evenodd" d="M105.809 130.816L108.93 130.816L108.93 129.566L105.809 129.566L105.809 126.442L104.559 126.442L104.559 129.566L101.43 129.566L101.43 130.816L104.559 130.816L104.559 133.942L105.809 133.942L105.809 130.816Z" fill="#DAE3F1"/>
<path fill-rule="evenodd" clip-rule="evenodd" d="M181.879 130.816L185 130.816L185 129.566L181.879 129.566L181.879 126.442L180.629 126.442L180.629 129.566L177.5 129.566L177.5 130.816L180.629 130.816L180.629 133.942L181.879 133.942L181.879 130.816Z" fill="#DAE3F1"/>
<path fill-rule="evenodd" clip-rule="evenodd" d="M156.528 105.529L159.648 105.529L159.648 104.279L156.528 104.279L156.528 101.154L155.278 101.154L155.278 104.279L152.149 104.279L152.149 105.529L155.278 105.529L155.278 108.654L156.528 108.654L156.528 105.529Z" fill="#DAE3F1"/>
<path fill-rule="evenodd" clip-rule="evenodd" d="M105.809 156.104L108.93 156.104L108.93 154.854L105.809 154.854L105.809 151.73L104.559 151.73L104.559 154.854L101.43 154.854L101.43 156.104L104.559 156.104L104.559 159.23L105.809 159.23L105.809 156.104Z" fill="#DAE3F1"/>
<path fill-rule="evenodd" clip-rule="evenodd" d="M156.528 80.2401L159.648 80.2401L159.648 78.9902L156.528 78.9902L156.528 75.8662L155.278 75.8662L155.278 78.9902L152.149 78.9902L152.149 80.2401L155.278 80.2401L155.278 83.3657L156.528 83.3657L156.528 80.2401Z" fill="#DAE3F1"/>
<path fill-rule="evenodd" clip-rule="evenodd" d="M181.879 156.104L185 156.104L185 154.854L181.879 154.854L181.879 151.73L180.629 151.73L180.629 154.854L177.5 154.854L177.5 156.104L180.629 156.104L180.629 159.23L181.879 159.23L181.879 156.104Z" fill="#DAE3F1"/>
<path fill-rule="evenodd" clip-rule="evenodd" d="M156.528 29.6649L159.648 29.6649L159.648 28.415L156.528 28.415L156.528 25.29L155.278 25.29L155.278 28.415L152.149 28.415L152.149 29.6649L155.278 29.6649L155.278 32.7895L156.528 32.7895L156.528 29.6649Z" fill="#DAE3F1"/>
<path fill-rule="evenodd" clip-rule="evenodd" d="M156.528 54.953L159.648 54.953L159.648 53.7031L156.528 53.7031L156.528 50.5791L155.278 50.5791L155.278 53.7031L152.149 53.7031L152.149 54.953L155.278 54.953L155.278 58.0785L156.528 58.0785L156.528 54.953Z" fill="#DAE3F1"/>
<path fill-rule="evenodd" clip-rule="evenodd" d="M156.528 4.37588L159.648 4.37588L159.648 3.12598L156.528 3.12598L156.528 0.000976371L155.278 0.000976426L155.278 3.12598L152.149 3.12598L152.149 4.37588L155.278 4.37588L155.278 7.50042L156.528 7.50042L156.528 4.37588Z" fill="#DAE3F1"/>
<path fill-rule="evenodd" clip-rule="evenodd" d="M105.809 105.528L108.93 105.528L108.93 104.278L105.809 104.278L105.809 101.154L104.559 101.154L104.559 104.278L101.43 104.278L101.43 105.528L104.559 105.528L104.559 108.654L105.809 108.654L105.809 105.528Z" fill="#DAE3F1"/>
<path fill-rule="evenodd" clip-rule="evenodd" d="M181.879 105.529L185 105.529L185 104.279L181.879 104.279L181.879 101.155L180.629 101.155L180.629 104.279L177.5 104.279L177.5 105.529L180.629 105.529L180.629 108.655L181.879 108.655L181.879 105.529Z" fill="#DAE3F1"/>
<path fill-rule="evenodd" clip-rule="evenodd" d="M105.813 80.2411L108.934 80.2411L108.934 78.9912L105.813 78.9912L105.813 75.8672L104.563 75.8672L104.563 78.9912L101.434 78.9912L101.434 80.2411L104.563 80.2411L104.563 83.3666L105.813 83.3666L105.813 80.2411Z" fill="#DAE3F1"/>
<path fill-rule="evenodd" clip-rule="evenodd" d="M181.879 80.2401L185 80.2401L185 78.9902L181.879 78.9902L181.879 75.8662L180.629 75.8662L180.629 78.9902L177.5 78.9902L177.5 80.2401L180.629 80.2401L180.629 83.3657L181.879 83.3657L181.879 80.2401Z" fill="#DAE3F1"/>
<path fill-rule="evenodd" clip-rule="evenodd" d="M105.813 29.664L108.934 29.664L108.934 28.4141L105.813 28.4141L105.813 25.29L104.563 25.29L104.563 28.4141L101.434 28.4141L101.434 29.664L104.563 29.664L104.563 32.7895L105.813 32.7895L105.813 29.664Z" fill="#DAE3F1"/>
<path fill-rule="evenodd" clip-rule="evenodd" d="M181.879 29.6649L185 29.6649L185 28.415L181.879 28.415L181.879 25.291L180.629 25.291L180.629 28.415L177.5 28.415L177.5 29.6649L180.629 29.6649L180.629 32.7905L181.879 32.7905L181.879 29.6649Z" fill="#DAE3F1"/>
<path fill-rule="evenodd" clip-rule="evenodd" d="M105.809 54.953L108.934 54.953L108.934 53.7031L105.809 53.7031L105.809 50.5791L104.559 50.5791L104.559 53.7031L101.434 53.7031L101.434 54.953L104.559 54.953L104.559 58.0785L105.809 58.0785L105.809 54.953Z" fill="#DAE3F1"/>
<path fill-rule="evenodd" clip-rule="evenodd" d="M181.879 54.953L185 54.953L185 53.7031L181.879 53.7031L181.879 50.5791L180.629 50.5791L180.629 53.7031L177.5 53.7031L177.5 54.953L180.629 54.953L180.629 58.0785L181.879 58.0785L181.879 54.953Z" fill="#DAE3F1"/>
<path fill-rule="evenodd" clip-rule="evenodd" d="M105.809 4.37588L108.93 4.37588L108.93 3.12598L105.809 3.12598L105.809 0.000976371L104.559 0.000976426L104.559 3.12598L101.43 3.12598L101.43 4.37588L104.559 4.37588L104.559 7.50042L105.809 7.50042L105.809 4.37588Z" fill="#DAE3F1"/>
<path fill-rule="evenodd" clip-rule="evenodd" d="M181.879 4.37686L185 4.37686L185 3.12695L181.879 3.12695L181.879 0.00195293L180.629 0.00195299L180.629 3.12695L177.5 3.12695L177.5 4.37686L180.629 4.37686L180.629 7.5014L181.879 7.5014L181.879 4.37686Z" fill="#DAE3F1"/>
</g>
<defs>
<filter id="filter0_d_70_14974" x="173.5" y="177.02" width="15.4995" height="15.499" filterUnits="userSpaceOnUse" color-interpolation-filters="sRGB">
<feFlood flood-opacity="0" result="BackgroundImageFix"/>
<feColorMatrix in="SourceAlpha" type="matrix" values="0 0 0 0 0 0 0 0 0 0 0 0 0 0 0 0 0 0 127 0" result="hardAlpha"/>
<feOffset dy="4"/>
<feGaussianBlur stdDeviation="2"/>
<feComposite in2="hardAlpha" operator="out"/>
<feColorMatrix type="matrix" values="0 0 0 0 0.36 0 0 0 0 0.8 0 0 0 0 0.506667 0 0 0 0.25 0"/>
<feBlend mode="normal" in2="BackgroundImageFix" result="effect1_dropShadow_70_14974"/>
<feBlend mode="normal" in="SourceGraphic" in2="effect1_dropShadow_70_14974" result="shape"/>
</filter>
</defs>
</svg>
