<svg width="189" height="185" viewBox="0 0 189 185" fill="none" xmlns="http://www.w3.org/2000/svg">
<g style="mix-blend-mode:multiply">
<path fill-rule="evenodd" clip-rule="evenodd" d="M159.273 3.12509L156.149 3.12509L156.149 4.375L159.273 4.375L159.273 7.49902L160.523 7.49902L160.523 4.375L163.648 4.375L163.648 3.12509L160.523 3.12509L160.523 -0.000421993L159.273 -0.000422048L159.273 3.12509Z" fill="#DAE3F1"/>
<path fill-rule="evenodd" clip-rule="evenodd" d="M159.273 53.7022L156.149 53.7022L156.149 54.9521L159.273 54.9521L159.273 58.0762L160.523 58.0762L160.523 54.9521L163.648 54.9521L163.648 53.7022L160.523 53.7022L160.523 50.5767L159.273 50.5767L159.273 53.7022Z" fill="#DAE3F1"/>
<path fill-rule="evenodd" clip-rule="evenodd" d="M159.266 28.4132L156.145 28.4132L156.145 29.6631L159.266 29.6631L159.266 32.7871L160.516 32.7871L160.516 29.6631L163.645 29.6631L163.645 28.4132L160.516 28.4132L160.516 25.2877L159.266 25.2877L159.266 28.4132Z" fill="#DAE3F1"/>
<path fill-rule="evenodd" clip-rule="evenodd" d="M159.27 78.9903L156.145 78.9903L156.145 80.2402L159.27 80.2402L159.27 83.3643L160.519 83.3643L160.519 80.2402L163.645 80.2402L163.645 78.9903L160.519 78.9903L160.519 75.8648L159.27 75.8648L159.27 78.9903Z" fill="#DAE3F1"/>
<path fill-rule="evenodd" clip-rule="evenodd" d="M159.27 104.278L156.149 104.278L156.149 105.528L159.27 105.528L159.27 108.652L160.519 108.652L160.519 105.528L163.648 105.528L163.648 104.278L160.519 104.278L160.519 101.153L159.27 101.153L159.27 104.278Z" fill="#DAE3F1"/>
<path fill-rule="evenodd" clip-rule="evenodd" d="M159.27 154.855L156.145 154.855L156.145 156.104L159.27 156.104L159.27 159.229L160.519 159.229L160.519 156.104L163.645 156.104L163.645 154.855L160.519 154.855L160.519 151.729L159.27 151.729L159.27 154.855Z" fill="#DAE3F1"/>
<path fill-rule="evenodd" clip-rule="evenodd" d="M159.273 129.566L156.149 129.566L156.149 130.816L159.273 130.816L159.273 133.94L160.523 133.94L160.523 130.816L163.648 130.816L163.648 129.566L160.523 129.566L160.523 126.441L159.273 126.441L159.273 129.566Z" fill="#DAE3F1"/>
<path fill-rule="evenodd" clip-rule="evenodd" d="M159.273 180.143L156.149 180.143L156.149 181.393L159.273 181.393L159.273 184.518L160.523 184.518L160.523 181.393L163.648 181.393L163.648 180.143L160.523 180.143L160.523 177.018L159.273 177.018L159.273 180.143Z" fill="#DAE3F1"/>
<path fill-rule="evenodd" clip-rule="evenodd" d="M184.621 3.12607L181.501 3.12607L181.501 4.37598L184.621 4.37598L184.621 7.5L185.871 7.5L185.871 4.37598L189 4.37598L189 3.12607L185.871 3.12607L185.871 0.000554569L184.621 0.000554515L184.621 3.12607Z" fill="#DAE3F1"/>
<path fill-rule="evenodd" clip-rule="evenodd" d="M133.91 3.12509L130.786 3.12509L130.786 4.375L133.91 4.375L133.91 7.49902L135.16 7.49902L135.16 4.375L138.285 4.375L138.285 3.12509L135.16 3.12509L135.16 -0.000421993L133.91 -0.000422048L133.91 3.12509Z" fill="#DAE3F1"/>
<path fill-rule="evenodd" clip-rule="evenodd" d="M184.621 53.7022L181.501 53.7022L181.501 54.9521L184.621 54.9521L184.621 58.0762L185.871 58.0762L185.871 54.9521L189 54.9521L189 53.7022L185.871 53.7022L185.871 50.5767L184.621 50.5767L184.621 53.7022Z" fill="#DAE3F1"/>
<path fill-rule="evenodd" clip-rule="evenodd" d="M133.91 53.7013L130.786 53.7013L130.786 54.9512L133.91 54.9512L133.91 58.0752L135.16 58.0752L135.16 54.9512L138.285 54.9512L138.285 53.7013L135.16 53.7013L135.16 50.5757L133.91 50.5757L133.91 53.7013Z" fill="#DAE3F1"/>
<path fill-rule="evenodd" clip-rule="evenodd" d="M184.621 28.4142L181.501 28.4142L181.501 29.6641L184.621 29.6641L184.621 32.7891L185.871 32.7891L185.871 29.6641L189 29.6641L189 28.4142L185.871 28.4142L185.871 25.2896L184.621 25.2896L184.621 28.4142Z" fill="#DAE3F1"/>
<path fill-rule="evenodd" clip-rule="evenodd" d="M133.91 28.4142L130.786 28.4142L130.786 29.6641L133.91 29.6641L133.91 32.7871L135.16 32.7871L135.16 29.6641L138.285 29.6641L138.285 28.4142L135.16 28.4142L135.16 25.2877L133.91 25.2877L133.91 28.4142Z" fill="#DAE3F1"/>
<path fill-rule="evenodd" clip-rule="evenodd" d="M184.621 78.9884L181.501 78.9884L181.501 80.2383L184.621 80.2383L184.621 83.3643L185.871 83.3643L185.871 80.2383L189 80.2383L189 78.9884L185.871 78.9884L185.871 75.8648L184.621 75.8648L184.621 78.9884Z" fill="#DAE3F1"/>
<path fill-rule="evenodd" clip-rule="evenodd" d="M133.91 78.9903L130.786 78.9903L130.786 80.2402L133.91 80.2402L133.91 83.3643L135.16 83.3643L135.16 80.2402L138.285 80.2402L138.285 78.9903L135.16 78.9903L135.16 75.8648L133.91 75.8648L133.91 78.9903Z" fill="#DAE3F1"/>
<path fill-rule="evenodd" clip-rule="evenodd" d="M184.621 104.276L181.501 104.276L181.501 105.526L184.621 105.526L184.621 108.652L185.871 108.652L185.871 105.526L189 105.526L189 104.276L185.871 104.276L185.871 101.153L184.621 101.153L184.621 104.276Z" fill="#DAE3F1"/>
<path fill-rule="evenodd" clip-rule="evenodd" d="M133.91 104.278L130.786 104.278L130.786 105.528L133.91 105.528L133.91 108.652L135.16 108.652L135.16 105.528L138.285 105.528L138.285 104.278L135.16 104.278L135.16 101.153L133.91 101.153L133.91 104.278Z" fill="#DAE3F1"/>
<path fill-rule="evenodd" clip-rule="evenodd" d="M184.621 154.854L181.501 154.854L181.501 156.104L184.621 156.104L184.621 159.228L185.871 159.228L185.871 156.104L189 156.104L189 154.854L185.871 154.854L185.871 151.728L184.621 151.728L184.621 154.854Z" fill="#DAE3F1"/>
<path fill-rule="evenodd" clip-rule="evenodd" d="M133.91 154.855L130.786 154.855L130.786 156.104L133.91 156.104L133.91 159.229L135.16 159.229L135.16 156.104L138.285 156.104L138.285 154.855L135.16 154.855L135.16 151.729L133.91 151.729L133.91 154.855Z" fill="#DAE3F1"/>
<path fill-rule="evenodd" clip-rule="evenodd" d="M184.621 129.566L181.501 129.566L181.501 130.815L184.621 130.815L184.621 133.94L185.871 133.94L185.871 130.815L189 130.815L189 129.566L185.871 129.566L185.871 126.441L184.621 126.441L184.621 129.566Z" fill="#DAE3F1"/>
<path fill-rule="evenodd" clip-rule="evenodd" d="M133.91 129.566L130.786 129.566L130.786 130.816L133.91 130.816L133.91 133.94L135.16 133.94L135.16 130.816L138.285 130.816L138.285 129.566L135.16 129.566L135.16 126.441L133.91 126.441L133.91 129.566Z" fill="#DAE3F1"/>
<path fill-rule="evenodd" clip-rule="evenodd" d="M184.621 180.142L181.501 180.142L181.501 181.392L184.621 181.392L184.621 184.517L185.871 184.517L185.871 181.392L189 181.392L189 180.142L185.871 180.142L185.871 177.017L184.621 177.017L184.621 180.142Z" fill="#DAE3F1"/>
<path fill-rule="evenodd" clip-rule="evenodd" d="M133.91 180.144L130.786 180.144L130.786 181.394L133.91 181.394L133.91 184.519L135.16 184.519L135.16 181.394L138.285 181.394L138.285 180.144L135.16 180.144L135.16 177.019L133.91 177.019L133.91 180.144Z" fill="#DAE3F1"/>
<path fill-rule="evenodd" clip-rule="evenodd" d="M108.559 3.12509L105.434 3.12509L105.434 4.375L108.559 4.375L108.559 7.49902L109.809 7.49902L109.809 4.375L112.934 4.375L112.934 3.12509L109.809 3.12509L109.809 -0.000421993L108.559 -0.000422048L108.559 3.12509Z" fill="#DAE3F1"/>
<path fill-rule="evenodd" clip-rule="evenodd" d="M57.8359 3.12607L54.7115 3.12607L54.7115 4.37598L57.8359 4.37598L57.8359 7.5L59.0858 7.5L59.0858 4.37598L62.2109 4.37598L62.2109 3.12607L59.0858 3.12607L59.0858 0.000554569L57.8359 0.000554514L57.8359 3.12607Z" fill="#DAE3F1"/>
<path fill-rule="evenodd" clip-rule="evenodd" d="M108.559 53.7013L105.434 53.7013L105.434 54.9512L108.559 54.9512L108.559 58.0752L109.809 58.0752L109.809 54.9512L112.934 54.9512L112.934 53.7013L109.809 53.7013L109.809 50.5757L108.559 50.5757L108.559 53.7013Z" fill="#DAE3F1"/>
<path fill-rule="evenodd" clip-rule="evenodd" d="M57.8359 53.7022L54.7115 53.7022L54.7115 54.9521L57.8359 54.9521L57.8359 58.0762L59.0858 58.0762L59.0858 54.9521L62.2109 54.9521L62.2109 53.7022L59.0858 53.7022L59.0858 50.5767L57.8359 50.5767L57.8359 53.7022Z" fill="#DAE3F1"/>
<path fill-rule="evenodd" clip-rule="evenodd" d="M108.559 28.4132L105.434 28.4132L105.434 29.6631L108.559 29.6631L108.559 32.7871L109.809 32.7871L109.809 29.6631L112.934 29.6631L112.934 28.4132L109.809 28.4132L109.809 25.2877L108.559 25.2877L108.559 28.4132Z" fill="#DAE3F1"/>
<path fill-rule="evenodd" clip-rule="evenodd" d="M57.832 28.4132L54.7115 28.4132L54.7115 29.6631L57.832 29.6631L57.832 32.7871L59.0819 32.7871L59.0819 29.6631L62.2109 29.6631L62.2109 28.4132L59.0819 28.4132L59.0819 25.2877L57.832 25.2877L57.832 28.4132Z" fill="#DAE3F1"/>
<path fill-rule="evenodd" clip-rule="evenodd" d="M108.559 78.9913L105.434 78.9913L105.434 80.2412L108.559 80.2412L108.559 83.3643L109.809 83.3643L109.809 80.2412L112.934 80.2412L112.934 78.9913L109.809 78.9913L109.809 75.8648L108.559 75.8648L108.559 78.9913Z" fill="#DAE3F1"/>
<path fill-rule="evenodd" clip-rule="evenodd" d="M57.8359 78.9903L54.7115 78.9903L54.7115 80.2402L57.8359 80.2402L57.8359 83.3643L59.0858 83.3643L59.0858 80.2402L62.2109 80.2402L62.2109 78.9903L59.0858 78.9903L59.0858 75.8648L57.8359 75.8648L57.8359 78.9903Z" fill="#DAE3F1"/>
<path fill-rule="evenodd" clip-rule="evenodd" d="M108.555 104.278L105.43 104.278L105.43 105.528L108.555 105.528L108.555 108.652L109.805 108.652L109.805 105.528L112.93 105.528L112.93 104.278L109.805 104.278L109.805 101.153L108.555 101.153L108.555 104.278Z" fill="#DAE3F1"/>
<path fill-rule="evenodd" clip-rule="evenodd" d="M57.832 104.277L54.7115 104.277L54.7115 105.527L57.832 105.527L57.832 108.651L59.0819 108.651L59.0819 105.527L62.2109 105.527L62.2109 104.277L59.0819 104.277L59.0819 101.152L57.832 101.152L57.832 104.277Z" fill="#DAE3F1"/>
<path fill-rule="evenodd" clip-rule="evenodd" d="M108.555 154.855L105.43 154.855L105.43 156.104L108.555 156.104L108.555 159.229L109.805 159.229L109.805 156.104L112.93 156.104L112.93 154.855L109.805 154.855L109.805 151.729L108.555 151.729L108.555 154.855Z" fill="#DAE3F1"/>
<path fill-rule="evenodd" clip-rule="evenodd" d="M57.8359 154.854L54.7115 154.854L54.7115 156.104L57.8359 156.104L57.8359 159.228L59.0858 159.228L59.0858 156.104L62.2109 156.104L62.2109 154.854L59.0858 154.854L59.0858 151.728L57.8359 151.728L57.8359 154.854Z" fill="#DAE3F1"/>
<path fill-rule="evenodd" clip-rule="evenodd" d="M108.555 129.566L105.43 129.566L105.43 130.816L108.555 130.816L108.555 133.94L109.805 133.94L109.805 130.816L112.93 130.816L112.93 129.566L109.805 129.566L109.805 126.441L108.555 126.441L108.555 129.566Z" fill="#DAE3F1"/>
<path fill-rule="evenodd" clip-rule="evenodd" d="M57.8359 129.566L54.7115 129.566L54.7115 130.815L57.8359 130.815L57.8359 133.939L59.0858 133.939L59.0858 130.815L62.2109 130.815L62.2109 129.566L59.0858 129.566L59.0858 126.44L57.8359 126.44L57.8359 129.566Z" fill="#DAE3F1"/>
<path fill-rule="evenodd" clip-rule="evenodd" d="M108.559 180.142L105.434 180.142L105.434 181.392L108.559 181.392L108.559 184.517L109.809 184.517L109.809 181.392L112.934 181.392L112.934 180.142L109.809 180.142L109.809 177.017L108.559 177.017L108.559 180.142Z" fill="#DAE3F1"/>
<path fill-rule="evenodd" clip-rule="evenodd" d="M57.8359 180.143L54.7115 180.143L54.7115 181.393L57.8359 181.393L57.8359 184.518L59.0858 184.518L59.0858 181.393L62.2109 181.393L62.2109 180.143L59.0858 180.143L59.0858 177.018L57.8359 177.018L57.8359 180.143Z" fill="#DAE3F1"/>
<path fill-rule="evenodd" clip-rule="evenodd" d="M83.1914 3.12607L80.0709 3.12607L80.0709 4.37598L83.1914 4.37598L83.1914 7.5L84.4413 7.5L84.4413 4.37598L87.5703 4.37598L87.5703 3.12607L84.4413 3.12607L84.4413 0.000554569L83.1914 0.000554515L83.1914 3.12607Z" fill="#DAE3F1"/>
<path fill-rule="evenodd" clip-rule="evenodd" d="M32.4727 3.12509L29.3521 3.12509L29.3521 4.375L32.4727 4.375L32.4727 7.49902L33.7226 7.49902L33.7226 4.375L36.8516 4.375L36.8516 3.12509L33.7226 3.12509L33.7226 -0.000421993L32.4727 -0.000422048L32.4727 3.12509Z" fill="#DAE3F1"/>
<g filter="url(#filter0_d_70_15191)">
<path fill-rule="evenodd" clip-rule="evenodd" d="M7.12109 3.12509L4.00055 3.12509L4.00055 4.375L7.12109 4.375L7.12109 7.49902L8.371 7.49902L8.371 4.375L11.5 4.375L11.5 3.12509L8.371 3.12509L8.371 -0.000421993L7.12109 -0.000422048L7.12109 3.12509Z" fill="#5CCC81"/>
</g>
<path fill-rule="evenodd" clip-rule="evenodd" d="M32.4727 53.7022L29.3521 53.7022L29.3521 54.9521L32.4727 54.9521L32.4727 58.0771L33.7226 58.0771L33.7226 54.9521L36.8516 54.9521L36.8516 53.7022L33.7226 53.7022L33.7226 50.5777L32.4727 50.5777L32.4727 53.7022Z" fill="#DAE3F1"/>
<path fill-rule="evenodd" clip-rule="evenodd" d="M32.4727 28.4142L29.3521 28.4142L29.3521 29.6641L32.4727 29.6641L32.4727 32.7891L33.7226 32.7891L33.7226 29.6641L36.8516 29.6641L36.8516 28.4142L33.7226 28.4142L33.7226 25.2896L32.4727 25.2896L32.4727 28.4142Z" fill="#DAE3F1"/>
<path fill-rule="evenodd" clip-rule="evenodd" d="M83.1914 53.7022L80.0709 53.7022L80.0709 54.9521L83.1914 54.9521L83.1914 58.0762L84.4413 58.0762L84.4413 54.9521L87.5703 54.9521L87.5703 53.7022L84.4413 53.7022L84.4413 50.5767L83.1914 50.5767L83.1914 53.7022Z" fill="#DAE3F1"/>
<path fill-rule="evenodd" clip-rule="evenodd" d="M7.12109 53.7022L4.00055 53.7022L4.00055 54.9521L7.12109 54.9521L7.12109 58.0762L8.371 58.0762L8.371 54.9521L11.5 54.9521L11.5 53.7022L8.371 53.7022L8.371 50.5767L7.12109 50.5767L7.12109 53.7022Z" fill="#DAE3F1"/>
<path fill-rule="evenodd" clip-rule="evenodd" d="M32.4727 78.9894L29.3521 78.9894L29.3521 80.2393L32.4727 80.2393L32.4727 83.3643L33.7226 83.3643L33.7226 80.2393L36.8516 80.2393L36.8516 78.9894L33.7226 78.9894L33.7226 75.8648L32.4727 75.8648L32.4727 78.9894Z" fill="#DAE3F1"/>
<path fill-rule="evenodd" clip-rule="evenodd" d="M83.1914 28.4142L80.0709 28.4142L80.0709 29.6641L83.1914 29.6641L83.1914 32.7881L84.4413 32.7881L84.4413 29.6641L87.5703 29.6641L87.5703 28.4142L84.4413 28.4142L84.4413 25.2886L83.1914 25.2886L83.1914 28.4142Z" fill="#DAE3F1"/>
<path fill-rule="evenodd" clip-rule="evenodd" d="M32.4727 104.278L29.3519 104.278L29.3519 105.528L32.4727 105.528L32.4727 108.652L33.7226 108.652L33.7226 105.528L36.8513 105.528L36.8513 104.278L33.7226 104.278L33.7226 101.153L32.4727 101.153L32.4727 104.278Z" fill="#DAE3F1"/>
<path fill-rule="evenodd" clip-rule="evenodd" d="M7.12109 28.4142L4.00055 28.4142L4.00055 29.6641L7.12109 29.6641L7.12109 32.7881L8.371 32.7881L8.371 29.6641L11.5 29.6641L11.5 28.4142L8.371 28.4142L8.371 25.2886L7.12109 25.2886L7.12109 28.4142Z" fill="#DAE3F1"/>
<path fill-rule="evenodd" clip-rule="evenodd" d="M32.4727 154.854L29.3521 154.854L29.3521 156.104L32.4727 156.104L32.4727 159.229L33.7226 159.229L33.7226 156.104L36.8516 156.104L36.8516 154.854L33.7226 154.854L33.7226 151.729L32.4727 151.729L32.4727 154.854Z" fill="#DAE3F1"/>
<path fill-rule="evenodd" clip-rule="evenodd" d="M32.4727 129.566L29.3521 129.566L29.3521 130.815L32.4727 130.815L32.4727 133.939L33.7226 133.939L33.7226 130.815L36.8516 130.815L36.8516 129.566L33.7226 129.566L33.7226 126.44L32.4727 126.44L32.4727 129.566Z" fill="#DAE3F1"/>
<path fill-rule="evenodd" clip-rule="evenodd" d="M32.4727 180.143L29.3519 180.143L29.3519 181.393L32.4727 181.393L32.4727 184.518L33.7226 184.518L33.7226 181.393L36.8513 181.393L36.8513 180.143L33.7226 180.143L33.7226 177.018L32.4727 177.018L32.4727 180.143Z" fill="#DAE3F1"/>
<path fill-rule="evenodd" clip-rule="evenodd" d="M83.1914 78.9903L80.0709 78.9903L80.0709 80.2402L83.1914 80.2402L83.1914 83.3643L84.4413 83.3643L84.4413 80.2402L87.5703 80.2402L87.5703 78.9903L84.4413 78.9903L84.4413 75.8648L83.1914 75.8648L83.1914 78.9903Z" fill="#DAE3F1"/>
<path fill-rule="evenodd" clip-rule="evenodd" d="M7.12109 78.9894L4.00055 78.9894L4.00055 80.2393L7.12109 80.2393L7.12109 83.3633L8.371 83.3633L8.371 80.2393L11.5 80.2393L11.5 78.9894L8.371 78.9894L8.371 75.8638L7.12109 75.8638L7.12109 78.9894Z" fill="#DAE3F1"/>
<path fill-rule="evenodd" clip-rule="evenodd" d="M83.1875 104.277L80.067 104.277L80.067 105.527L83.1875 105.527L83.1875 108.651L84.4374 108.651L84.4374 105.527L87.5664 105.527L87.5664 104.277L84.4374 104.277L84.4374 101.152L83.1875 101.152L83.1875 104.277Z" fill="#DAE3F1"/>
<path fill-rule="evenodd" clip-rule="evenodd" d="M7.12109 104.278L4.00055 104.278L4.00055 105.528L7.12109 105.528L7.12109 108.652L8.371 108.652L8.371 105.528L11.5 105.528L11.5 104.278L8.371 104.278L8.371 101.153L7.12109 101.153L7.12109 104.278Z" fill="#DAE3F1"/>
<path fill-rule="evenodd" clip-rule="evenodd" d="M83.1875 154.855L80.067 154.855L80.067 156.104L83.1875 156.104L83.1875 159.229L84.4374 159.229L84.4374 156.104L87.5664 156.104L87.5664 154.855L84.4374 154.855L84.4374 151.729L83.1875 151.729L83.1875 154.855Z" fill="#DAE3F1"/>
<path fill-rule="evenodd" clip-rule="evenodd" d="M7.12109 154.854L4.00055 154.854L4.00055 156.104L7.12109 156.104L7.12109 159.228L8.371 159.228L8.371 156.104L11.5 156.104L11.5 154.854L8.371 154.854L8.371 151.728L7.12109 151.728L7.12109 154.854Z" fill="#DAE3F1"/>
<path fill-rule="evenodd" clip-rule="evenodd" d="M83.1914 129.566L80.067 129.566L80.067 130.815L83.1914 130.815L83.1914 133.939L84.4413 133.939L84.4413 130.815L87.5664 130.815L87.5664 129.566L84.4413 129.566L84.4413 126.44L83.1914 126.44L83.1914 129.566Z" fill="#DAE3F1"/>
<path fill-rule="evenodd" clip-rule="evenodd" d="M7.12109 129.566L4.00055 129.566L4.00055 130.815L7.12109 130.815L7.12109 133.939L8.371 133.939L8.371 130.815L11.5 130.815L11.5 129.566L8.371 129.566L8.371 126.44L7.12109 126.44L7.12109 129.566Z" fill="#DAE3F1"/>
<path fill-rule="evenodd" clip-rule="evenodd" d="M83.1914 180.143L80.0709 180.143L80.0709 181.393L83.1914 181.393L83.1914 184.518L84.4413 184.518L84.4413 181.393L87.5703 181.393L87.5703 180.143L84.4413 180.143L84.4413 177.018L83.1914 177.018L83.1914 180.143Z" fill="#DAE3F1"/>
<path fill-rule="evenodd" clip-rule="evenodd" d="M7.12109 180.142L4.00055 180.142L4.00055 181.392L7.12109 181.392L7.12109 184.517L8.371 184.517L8.371 181.392L11.5 181.392L11.5 180.142L8.371 180.142L8.371 177.017L7.12109 177.017L7.12109 180.142Z" fill="#DAE3F1"/>
</g>
<defs>
<filter id="filter0_d_70_15191" x="0.000488281" y="0" width="15.4995" height="15.499" filterUnits="userSpaceOnUse" color-interpolation-filters="sRGB">
<feFlood flood-opacity="0" result="BackgroundImageFix"/>
<feColorMatrix in="SourceAlpha" type="matrix" values="0 0 0 0 0 0 0 0 0 0 0 0 0 0 0 0 0 0 127 0" result="hardAlpha"/>
<feOffset dy="4"/>
<feGaussianBlur stdDeviation="2"/>
<feComposite in2="hardAlpha" operator="out"/>
<feColorMatrix type="matrix" values="0 0 0 0 0.36 0 0 0 0 0.8 0 0 0 0 0.506667 0 0 0 0.25 0"/>
<feBlend mode="normal" in2="BackgroundImageFix" result="effect1_dropShadow_70_15191"/>
<feBlend mode="normal" in="SourceGraphic" in2="effect1_dropShadow_70_15191" result="shape"/>
</filter>
</defs>
</svg>
