<svg width="160" height="54" viewBox="0 0 160 54" fill="none" xmlns="http://www.w3.org/2000/svg">
<g clip-path="url(#clip0_70_13951)">
<path fill-rule="evenodd" clip-rule="evenodd" d="M23.4978 25.5115C23.8767 18.6555 26.7815 12.4671 31.292 7.92048C32.5189 6.67558 33.872 5.57501 35.2974 4.58269C32.6812 3.57234 29.8306 3.03107 26.8717 3.03107C20.3044 3.03107 14.3685 5.71935 10.0745 10.0494C6.10524 14.0548 3.52522 19.4855 3.16437 25.5115H23.4978ZM38.5449 6.09823C40.4394 7.18076 42.1534 8.49783 43.6869 10.0314C47.6742 14.0368 50.2362 19.4674 50.5971 25.5115L26.5108 25.4935C26.8717 19.4674 29.4517 14.0368 33.421 10.0314C34.9365 8.49783 36.6505 7.18076 38.5449 6.09823ZM23.4978 28.5246L1.6308 28.5065H0.133301V27.009C0.133301 19.5576 3.12829 12.8099 7.96357 7.92048C12.8169 3.01303 19.4925 0 26.8897 0C31.0575 0 35.0267 0.974273 38.5449 2.68827C42.0631 0.974273 46.0324 0 50.2001 0C54.6204 0 58.7882 1.08253 62.4688 3.01303C66.2756 4.99766 69.5593 7.90244 72.0311 11.4026L69.5954 13.1527C67.4123 10.0314 64.4895 7.45139 61.0976 5.68326C57.8319 3.9873 54.1333 3.01303 50.2001 3.01303C47.2412 3.01303 44.3906 3.55429 41.7745 4.56465C43.2178 5.53892 44.571 6.65753 45.7979 7.90244C50.6331 12.7918 53.6281 19.5396 53.6281 26.991C53.6281 34.4424 50.6331 41.1901 45.7979 46.0795C44.571 47.3244 43.2178 48.443 41.7745 49.4173C44.3906 50.4096 47.2412 50.9689 50.2001 50.9689C54.1153 50.9689 57.7959 50.0307 61.0434 48.3528C64.4173 46.6027 67.3221 44.0768 69.5052 40.9916L71.9228 42.7417C69.451 46.2058 66.1854 49.0745 62.3785 51.0231C58.716 52.9175 54.5663 54 50.1821 54C46.0144 54 42.0451 53.0257 38.5269 51.3117C35.0087 53.0438 31.0394 54 26.8717 54C22.4514 54 18.2656 52.9175 14.585 50.987C10.7781 48.9843 7.49448 46.0976 5.02271 42.5613L7.45839 40.8293C9.64149 43.9506 12.5643 46.5306 15.9562 48.2987C19.2218 49.9947 22.9385 50.9689 26.8717 50.9689C29.8306 50.9689 32.6812 50.4277 35.2974 49.4173C33.854 48.425 32.5008 47.3244 31.292 46.0795C26.7815 41.5329 23.8767 35.3625 23.4978 28.5246ZM50.579 28.5426L26.4928 28.5246C26.8717 34.5326 29.4337 39.9632 33.4029 43.9686C34.9365 45.5022 36.6505 46.8373 38.5449 47.9018C40.4394 46.8192 42.1534 45.5022 43.6869 43.9686C47.6381 39.9632 50.2182 34.5506 50.579 28.5426Z" fill="#A6ACB3"/>
<path fill-rule="evenodd" clip-rule="evenodd" d="M89.604 8.35349C89.604 7.4153 89.6401 6.20648 89.6401 6.20648C94.6919 6.20648 96.2435 6.47711 96.2435 6.47711V6.45907C96.1353 6.00802 96.1353 5.52088 96.2435 5.06983V5.05179H96.2255C93.3026 5.19613 90.3979 5.21417 87.4751 5.08787H87.439L87.4751 6.00802C87.6013 8.64217 87.6735 11.2763 87.6735 13.9105C87.6735 16.5446 87.6194 19.1788 87.4751 21.8129L87.439 22.733H87.4751C90.3979 22.6068 93.3026 22.6248 96.2255 22.7691H96.2435V22.7511C96.1353 22.3 96.1353 21.8129 96.2435 21.3618V21.3438C96.2435 21.3438 94.6919 21.6144 89.6401 21.6144C89.6401 21.6144 89.604 20.4237 89.604 19.4674V16.4364V14.4878C89.604 14.4878 94.6197 14.5239 95.5218 14.6321C95.5218 14.6141 95.5218 14.6141 95.5218 14.5961C95.4857 14.3796 95.4857 13.4955 95.5218 13.279C95.5218 13.2609 95.5218 13.2609 95.5218 13.2429C94.6197 13.3512 89.604 13.3872 89.604 13.3872V11.4206V8.35349Z" fill="#A6ACB3"/>
<path fill-rule="evenodd" clip-rule="evenodd" d="M106.094 16.2198C106.744 15.4079 107.412 14.6321 108.079 13.8563L110.767 10.7892H108.999C107.881 12.3588 106.726 13.9105 105.535 15.444C104.453 13.9105 103.406 12.3588 102.378 10.8072L102.36 10.7892H99.8158L100.826 12.1243C102.035 13.712 103.226 15.3177 104.38 16.9415C103.352 18.2586 102.288 19.5576 101.205 20.8386L99.5452 22.8052H101.331L102.666 20.8386C103.388 19.7741 104.146 18.7277 104.922 17.6993C106.076 19.3411 107.213 21.001 108.314 22.697L108.386 22.8052H110.948L109.595 21.019C108.422 19.4313 107.249 17.8436 106.094 16.2198Z" fill="#A6ACB3"/>
<path fill-rule="evenodd" clip-rule="evenodd" d="M120.492 10.3381C118.742 10.3381 117.263 11.2402 116.342 12.6295L116.324 10.6088H114.52V10.6448C114.646 16.3642 114.556 22.0655 114.286 27.7848V27.8209H116.397L116.36 20.4597C117.19 21.8129 118.526 22.7872 120.474 22.7872C123.361 22.7872 125.688 19.9906 125.688 16.5626C125.706 12.7558 123.866 10.3381 120.492 10.3381ZM119.915 21.7768C116.812 21.7768 116.397 18.7999 116.397 16.3461C116.397 13.5316 117.605 11.2402 119.915 11.2402C122.152 11.2402 123.505 12.9001 123.505 16.5626C123.505 20.153 121.899 21.7768 119.915 21.7768Z" fill="#A6ACB3"/>
<path fill-rule="evenodd" clip-rule="evenodd" d="M140.104 16.5446C140.086 12.7558 138.263 10.3562 134.637 10.3562C131.389 10.3562 129.26 12.7377 129.026 16.3281C128.845 19.2148 130.307 22.8052 134.637 22.8052C136.748 22.8052 138.029 22.3542 139.274 21.4521L139.436 20.2072C139.382 20.1891 139.382 20.1891 139.328 20.153C137.758 21.7046 136.189 21.9933 134.998 21.8851C132.039 21.5784 131.227 18.9442 131.191 16.5446C134.132 16.4183 137.073 16.4183 139.995 16.5627H140.05L140.104 16.5446ZM131.281 15.4982H131.227C131.444 13.0986 132.562 11.2763 134.493 11.2041C136.892 11.1139 137.903 12.431 137.903 15.4982H137.848C135.665 15.6425 133.464 15.6425 131.281 15.4982Z" fill="#A6ACB3"/>
<path fill-rule="evenodd" clip-rule="evenodd" d="M145.372 13.1347C145.39 12.3588 145.408 11.6011 145.444 10.8253V10.7711H143.442V10.8253C143.586 14.7945 143.586 18.7638 143.442 22.7331V22.7872H145.444V22.7331C145.372 20.8928 145.354 19.0525 145.336 17.2122C145.354 10.7711 148.764 12.4851 149.359 12.846L149.45 12.7919L149.414 12.5212C149.341 11.9619 149.359 11.4026 149.45 10.8433L149.468 10.717C147.519 10.266 145.95 11.998 145.372 13.1347Z" fill="#A6ACB3"/>
<path fill-rule="evenodd" clip-rule="evenodd" d="M156.233 19.0344C156.233 18.854 156.233 18.5473 156.233 18.1503C156.215 16.0935 156.251 14.0187 156.324 11.9619C157.208 11.9619 158.092 11.998 158.976 12.0521H159.048V10.9696L158.651 10.9876C157.893 11.0237 157.136 11.0598 156.36 11.0598C156.414 9.77882 156.486 8.47978 156.576 7.1988V7.14467L154.375 8.01069C154.411 9.02105 154.447 10.0314 154.465 11.0418C154.05 11.0237 153.635 11.0057 153.22 10.9876L152.823 10.9696V12.0521H152.896C153.437 12.016 153.96 11.998 154.501 11.98C154.519 13.6037 154.501 15.2456 154.447 16.8694C154.411 18.1323 154.375 19.3592 154.375 19.9726C154.375 23.0758 157.208 23.148 159.391 22.4263V21.7949C156.937 22.5165 156.233 21.2175 156.233 19.0344Z" fill="#A6ACB3"/>
<path fill-rule="evenodd" clip-rule="evenodd" d="M106.473 30.6535V30.6896C106.6 36.7517 106.509 42.8319 106.239 48.8941V48.9482H108.422L108.35 30.6535H106.473Z" fill="#A6ACB3"/>
<path fill-rule="evenodd" clip-rule="evenodd" d="M112.968 31.3391C112.59 31.3391 112.283 31.4835 112.03 31.7361C111.778 32.0067 111.651 32.3134 111.651 32.6742C111.651 33.0351 111.778 33.3418 112.03 33.5944C112.283 33.865 112.608 33.9733 112.968 33.9733C113.329 33.9733 113.636 33.847 113.889 33.5763C114.141 33.3238 114.267 33.017 114.267 32.6562C114.267 32.2954 114.141 31.9886 113.889 31.718C113.636 31.4835 113.329 31.3391 112.968 31.3391Z" fill="#A6ACB3"/>
<path fill-rule="evenodd" clip-rule="evenodd" d="M111.832 36.5713C112.084 39.4942 112.157 44.7985 111.868 48.8941V48.9302H114.051C113.853 44.7985 113.853 40.6669 114.087 36.5352H111.832V36.5713Z" fill="#A6ACB3"/>
<path fill-rule="evenodd" clip-rule="evenodd" d="M132.688 31.3391C132.31 31.3391 132.003 31.4835 131.75 31.7361C131.498 32.0067 131.371 32.3134 131.371 32.6742C131.371 33.0351 131.498 33.3418 131.768 33.5944C132.021 33.865 132.346 33.9733 132.706 33.9733C133.049 33.9733 133.356 33.847 133.609 33.5763C133.861 33.3238 133.987 33.017 133.987 32.6562C133.987 32.2954 133.861 31.9886 133.609 31.718C133.356 31.4835 133.049 31.3391 132.688 31.3391Z" fill="#A6ACB3"/>
<path fill-rule="evenodd" clip-rule="evenodd" d="M131.552 36.5713C131.804 39.4942 131.877 44.7985 131.588 48.8941V48.9302H133.771C133.572 44.7985 133.572 40.6669 133.807 36.5352H131.552V36.5713Z" fill="#A6ACB3"/>
<path fill-rule="evenodd" clip-rule="evenodd" d="M97.0192 31.3932C99.076 31.3932 100.826 32.4577 101.999 34.1537C102.053 34.1537 102.053 34.1537 102.107 34.1356L102.811 32.0608C101.277 31.1587 99.4549 30.6535 97.5064 30.6535C90.6143 30.6535 87.5652 34.7491 87.5652 39.8009C87.5652 43.8062 89.4596 48.9482 97.5064 48.9482C98.9678 48.9482 100.88 48.2806 102.63 47.162L102.775 45.7367C102.721 45.7187 102.721 45.7187 102.666 45.6826C101.458 46.8012 100.285 47.3425 99.3828 47.6131C99.2925 47.6492 99.1843 47.6672 99.0941 47.6853C98.3724 47.8657 97.8311 47.8657 97.5966 47.8657H97.5785C97.3981 47.8657 97.2177 47.8657 97.0373 47.8476C92.2561 47.577 90.4519 43.2469 90.4519 39.6565C90.4519 35.128 92.8335 31.3932 97.0192 31.3932Z" fill="#A6ACB3"/>
<path fill-rule="evenodd" clip-rule="evenodd" d="M143.929 36.8239C145.336 36.8239 146.418 37.726 147.23 38.8627C147.321 38.8446 147.357 38.8446 147.447 38.8266L148.024 37.0765C146.942 36.445 145.643 36.0842 144.253 36.0842C139.364 36.0842 137.199 38.9529 137.199 42.5072C137.199 45.3218 138.552 48.9302 144.253 48.9302C145.3 48.9302 146.635 48.4611 147.88 47.6672L147.988 46.4404C147.952 46.4223 147.952 46.4223 147.916 46.4043C147.05 47.1801 146.238 47.577 145.589 47.7574C145.516 47.7755 145.462 47.7935 145.39 47.8116C144.867 47.9379 144.488 47.9379 144.326 47.9379C144.326 47.9379 144.326 47.9379 144.308 47.9379C144.181 47.9379 144.055 47.9379 143.929 47.9379C140.537 47.7574 139.49 44.9248 139.49 42.3989C139.49 39.2416 140.97 36.8239 143.929 36.8239Z" fill="#A6ACB3"/>
<path fill-rule="evenodd" clip-rule="evenodd" d="M125.959 36.86C124.173 35.8857 121.394 36.1564 119.644 38.6823C119.662 37.9786 119.698 37.2569 119.734 36.5533H117.479V36.5713C117.732 39.4941 117.804 44.7985 117.515 48.8941V48.9302H119.698C119.572 46.3141 119.518 43.716 119.572 41.0999C119.897 37.4374 122.964 37.3291 124.353 38.0869C125.436 38.6823 125.923 39.6385 125.923 41.136C125.923 43.9505 125.923 48.9302 125.923 48.9302H128.106C128.106 48.9302 127.889 44.149 127.889 40.6308C127.907 38.7905 127.294 37.5997 125.959 36.86Z" fill="#A6ACB3"/>
<path fill-rule="evenodd" clip-rule="evenodd" d="M153.347 39.0431C153.347 36.4631 156.901 36.0842 157.893 38.5379C158.074 38.5379 157.947 38.5379 158.128 38.5379L158.723 36.7518C157.316 35.8496 152.011 35.1821 151.615 39.5844C151.218 44.131 158.434 42.5433 157.641 46.0434C156.955 49.0384 153.383 48.3709 152.21 46.1878C152.102 46.2058 152.102 46.2058 151.975 46.2058L151.452 48.1363C151.578 48.2265 152.697 48.9482 154.664 48.9482C156.775 48.9482 159.445 47.7394 159.445 44.8166C159.463 40.3963 153.347 42.4711 153.347 39.0431Z" fill="#A6ACB3"/>
</g>
<defs>
<clipPath id="clip0_70_13951">
<rect width="159.33" height="54" fill="white" transform="translate(0.133301)"/>
</clipPath>
</defs>
</svg>
