<svg width="19" height="22" viewBox="0 0 19 22" fill="none" xmlns="http://www.w3.org/2000/svg">
<path d="M9.24 22C8.91 22 8.69 21.89 8.47 21.78C6.16 20.24 4.07 18.37 2.42 16.17C0.88 14.19 0 11.77 0 9.24C0 6.82 0.99 4.51 2.75 2.75C4.4 0.99 6.71 0 9.13 0C14.19 0 18.37 4.07 18.48 9.13C18.48 11.66 17.6 14.08 16.06 16.06C14.41 18.26 12.32 20.24 10.01 21.67C9.79 21.89 9.46 22 9.24 22ZM9.13 6.38C7.48 6.38 6.05 7.7 6.05 9.46C6.05 10.23 6.38 11 6.93 11.66C8.14 12.87 10.12 12.87 11.33 11.55C11.88 11 12.21 10.23 12.21 9.46C12.21 7.7 10.89 6.38 9.13 6.38Z" fill="#5CCC81"/>
</svg>
