<svg width="186" height="44" viewBox="0 0 186 44" fill="none" xmlns="http://www.w3.org/2000/svg">
<g clip-path="url(#clip0_70_13936)">
<path d="M8.38129 32.7179H1.61206L8.38129 0.376068H22.6719C25.3044 0.376068 27.1847 0.752137 28.3129 1.1282C29.4411 1.50427 30.9454 2.63248 31.6975 4.13675C32.4497 5.64103 32.8257 7.1453 32.8257 9.02564C32.8257 11.6581 32.0736 13.9145 30.1933 15.7949C28.3129 17.6752 26.4326 18.8034 23.048 19.1795C23.8001 19.9316 24.5522 21.0598 25.3044 22.188C27.1847 24.8205 28.689 28.2051 30.5693 32.7179H23.424C22.6719 31.2137 21.5437 28.2051 20.0394 24.4444C18.9112 22.188 18.1591 20.6838 17.0309 19.9316C16.2787 19.5556 15.1505 19.5556 13.6462 19.5556H11.0138L8.38129 32.7179ZM12.142 14.6667H15.5266C18.9112 14.6667 21.5437 14.2906 22.6719 13.9145C23.8001 13.5385 24.9283 12.7863 25.3044 12.0342C25.6804 11.2821 26.4326 10.1538 26.4326 9.02564C26.4326 7.89744 26.0565 7.1453 24.9283 6.39316C24.1762 6.01709 23.048 6.01709 21.1676 6.01709H14.0223L12.142 14.6667Z" fill="#A6ACB3"/>
<path d="M40.7233 0.376068H47.4925L43.7318 18.0513L42.9797 22.5641C42.9797 22.9402 42.9797 23.3162 42.9797 23.6923C42.9797 24.8205 43.3558 25.9487 44.484 26.7009C45.6122 27.453 46.7404 27.8291 48.6207 27.8291C50.125 27.8291 51.6293 27.453 52.7575 27.0769C53.8857 26.7009 54.6378 25.5726 55.0139 24.4444C55.3899 23.3162 56.1421 21.0598 56.8942 18.4273L60.6549 0.752136H67.4241L63.6634 18.4273C62.9113 22.188 62.1592 24.8205 61.031 27.0769C59.9028 29.3333 58.3985 30.4615 56.5181 31.9658C54.6378 33.4701 52.0053 33.8461 48.6207 33.8461C44.86 33.8461 41.8515 33.094 39.9711 31.2137C38.0908 29.3333 36.2104 26.3248 36.2104 23.6923C36.2104 22.9402 36.2104 22.5641 36.2104 21.812C36.2104 21.4359 36.5865 19.9316 36.9626 17.6752L40.7233 0.376068Z" fill="#A6ACB3"/>
<path d="M67.8 22.5641L74.1931 22.188C74.1931 24.0684 74.5692 25.5726 75.3213 26.3248C76.4496 27.453 77.9538 28.2051 80.5863 28.2051C82.8427 28.2051 84.347 27.8291 85.4752 27.0769C86.6034 26.3248 86.9795 25.1966 86.9795 24.0684C86.9795 22.9402 86.6034 22.188 85.8513 21.812C85.4752 21.4359 83.5949 20.6838 81.3384 19.5556C79.082 18.4273 76.8256 17.6752 75.6974 16.9231C74.5692 16.1709 73.8171 15.4188 73.0649 13.9145C72.3128 12.4103 71.9367 11.2821 71.9367 9.77778C71.9367 7.1453 73.0649 4.88889 74.9453 3.00855C76.8256 1.12821 79.4581 0 83.2188 0C86.9795 0 89.988 0.752137 91.8684 2.63248C93.7487 4.51282 95.253 6.76923 95.253 9.77778L88.8598 10.1538C88.8598 8.64957 88.1077 7.52137 87.3555 6.76923C86.6034 6.01709 85.0991 5.64103 83.2188 5.64103C81.3384 5.64103 80.2102 6.01709 79.4581 6.76923C78.706 7.52137 77.9538 7.52137 77.9538 8.64957C77.9538 9.40171 78.3299 10.1538 79.082 10.906C79.8342 11.6581 81.3384 12.4103 83.5949 13.5385C87.3555 15.0427 89.6119 16.547 90.7402 17.2991C92.2444 18.8034 92.9966 20.6838 92.9966 22.9402C92.9966 25.9487 91.8684 28.2051 89.6119 30.0855C87.3555 31.9658 84.347 33.094 80.2102 33.094C77.5778 33.094 74.9453 32.7179 73.0649 31.5897C71.1846 30.4615 69.6803 29.3333 68.9282 27.8291C68.1761 26.3248 67.4239 24.4444 67.8 22.5641Z" fill="#A6ACB3"/>
<path d="M96.3813 32.7179L103.151 0.376068H109.92L103.151 32.7179H96.3813Z" fill="#A6ACB3"/>
<path d="M130.603 25.5726H117.441L113.68 32.7179H106.911L125.338 0.376068H132.86L138.125 32.7179H131.732L130.603 25.5726ZM129.475 20.3077L127.595 7.52137L119.697 20.6838H129.475V20.3077Z" fill="#A6ACB3"/>
<path d="M160.313 32.7179H153.92L152.792 5.64103L147.527 32.7179H141.51L148.279 0.376068H157.68L158.809 22.9402L169.715 0.376068H179.116L172.347 32.7179H166.33L172.723 6.01709L160.313 32.7179Z" fill="#A6ACB3"/>
<path d="M181.749 39.4872H0.859863V41.3675H181.749V39.4872Z" fill="#A6ACB3"/>
<path d="M181.749 43.6239C183.618 43.6239 185.133 42.1086 185.133 40.2393C185.133 38.37 183.618 36.8547 181.749 36.8547C179.88 36.8547 178.364 38.37 178.364 40.2393C178.364 42.1086 179.88 43.6239 181.749 43.6239Z" fill="#A6ACB3"/>
</g>
<defs>
<clipPath id="clip0_70_13936">
<rect width="184.274" height="44" fill="white" transform="translate(0.859863)"/>
</clipPath>
</defs>
</svg>
