<svg width="197" height="54" viewBox="0 0 197 54" fill="none" xmlns="http://www.w3.org/2000/svg">
<g clip-path="url(#clip0_210_5642)">
<path d="M31.3203 0L0.463135 54H26.9489V45.5143H18.4631V36.7714H26.9489V28.2857H35.6917V36.7714H44.1774V45.5143H35.6917V54H62.1774L31.3203 0Z" fill="#A6ACB3"/>
<path d="M88.8689 24.3257C88.9203 26.7943 87.7374 29.1086 85.7832 30.4971C83.8289 31.9371 81.4117 32.7086 78.9946 32.6571C77.2974 32.5543 75.6003 32.2457 73.9546 31.7314C73.3889 31.5771 72.8232 31.4228 72.2574 31.32C71.846 31.32 71.486 31.5257 71.2803 31.8857H70.406L69.3774 24.48H70.3032C70.7146 26.3828 71.7432 28.08 73.1832 29.3657C74.6746 30.6514 76.5774 31.32 78.5317 31.32C80.1774 31.3714 81.8232 30.8571 83.1603 29.88C84.4974 28.8514 85.2689 27.2571 85.2174 25.6114C85.0632 23.6571 84.0346 21.8571 82.3889 20.7257C80.846 19.5428 79.2517 18.4114 77.606 17.3828C75.7032 16.2514 73.9546 14.9657 72.3089 13.5257C70.6632 12.0857 69.686 10.08 69.6346 7.86856C69.5832 5.14285 71.2803 2.67427 73.8517 1.74856C75.2403 1.13142 76.7317 0.822845 78.2746 0.822845C79.9717 0.822845 81.6174 1.13142 83.1603 1.6457C83.726 1.85142 84.2917 2.0057 84.8574 2.0057C85.2174 2.0057 85.5774 1.79999 85.7317 1.49142H86.5032L87.326 7.71427H86.4517C85.8346 6.06856 84.806 4.67999 83.4174 3.59999C82.0289 2.51999 80.3832 2.0057 78.6346 2.0057C77.2974 1.95427 75.9603 2.3657 74.8803 3.13713C73.8003 3.95999 73.2346 5.2457 73.286 6.58285C73.4403 8.53713 74.4689 10.2857 76.0632 11.3657C77.606 12.4971 79.2003 13.5771 80.846 14.5543C82.7489 15.6857 84.5489 17.0228 86.1946 18.5143C87.8403 20.0057 88.8174 22.1657 88.8689 24.3771" fill="#A6ACB3"/>
<path d="M117.566 4.57713C117.72 4.26856 117.823 3.90856 117.823 3.54856C117.823 2.82856 117.309 2.46856 116.332 2.46856H114.275C113.246 2.46856 112.68 2.77713 112.68 3.39428C112.68 3.70285 112.783 4.01142 112.886 4.26856L115.303 9.9257L117.566 4.57713ZM138.189 2.46856C136.749 2.26285 135.36 2.82856 134.435 4.01142C133.869 4.93713 133.406 5.9657 133.046 6.99428L123.275 32.6571H120.96L114.583 17.5886L108.463 32.6571H106.098L96.0175 6.6857C95.6061 5.39999 94.9375 4.26856 93.9604 3.34285C92.829 2.67428 91.5433 2.3657 90.2061 2.46856H89.949V1.54285H102.549V2.46856H101.726C99.9775 2.46856 99.0518 3.03428 99.0518 4.1657C99.0518 4.62856 99.2061 5.09142 99.3604 5.50285L108.206 27.8743L113.503 14.9143L109.543 5.34856C109.183 4.37142 108.515 3.54856 107.589 3.03428C106.612 2.67428 105.583 2.51999 104.555 2.57142V1.54285H124.406V2.46856C123.429 2.41713 122.452 2.57142 121.526 2.93142C120.652 3.34285 119.932 4.11428 119.623 5.09142L116.435 12.7028L122.812 27.8743L131.4 5.2457C131.658 4.73142 131.709 4.21713 131.658 3.65142C131.452 2.93142 130.218 2.57142 128.006 2.46856V1.54285H138.086L138.189 2.46856Z" fill="#A6ACB3"/>
<path d="M152.126 31.8857H140.246V30.96C141.326 31.0628 142.406 30.7028 143.229 29.9314C143.795 28.9543 144 27.8228 143.898 26.7428V5.9657C144 4.98856 143.692 3.95999 143.075 3.23999C142.252 2.7257 141.275 2.41713 140.246 2.46856V1.54285H152.075V2.46856C150.018 2.46856 148.783 2.98285 148.32 3.95999C148.012 4.73142 147.858 5.6057 147.909 6.42856V27.1028C147.909 29.0571 148.423 30.1886 149.503 30.6C150.326 30.8571 151.2 30.96 152.075 30.96L152.126 31.8857Z" fill="#A6ACB3"/>
<path d="M173.726 24.3257C173.777 26.7943 172.543 29.1086 170.537 30.4971C168.583 31.9371 166.166 32.7086 163.749 32.6571C162.052 32.5543 160.406 32.2457 158.76 31.7314C158.195 31.5771 157.629 31.4229 157.063 31.32C156.652 31.32 156.292 31.5257 156.086 31.8857H155.263L154.235 24.48H155.16C155.572 26.3829 156.6 28.08 158.04 29.3657C159.532 30.6514 161.383 31.3714 163.337 31.32C164.983 31.3714 166.629 30.8571 167.966 29.88C169.303 28.8514 170.075 27.2571 170.023 25.6114C169.869 23.6571 168.84 21.8571 167.195 20.7257C165.652 19.5429 164.006 18.4114 162.309 17.3829C160.457 16.2514 158.709 14.9657 157.063 13.5257C155.417 12.0857 154.44 10.08 154.389 7.86857C154.337 5.09142 156.086 2.62285 158.657 1.74857C160.046 1.13142 161.537 0.771424 163.08 0.822853C164.777 0.822853 166.423 1.13142 167.966 1.64571C168.532 1.85142 169.097 2.00571 169.663 2.00571C170.023 2.00571 170.332 1.8 170.537 1.49142H171.309L172.132 7.71428H171.309C170.692 6.06857 169.612 4.62857 168.223 3.6C166.835 2.52 165.189 2.00571 163.44 2.00571C162.103 1.95428 160.766 2.36571 159.686 3.13714C158.606 3.96 158.04 5.24571 158.092 6.58285C158.246 8.53714 159.275 10.2857 160.869 11.3657C162.412 12.4971 164.006 13.5771 165.652 14.5543C167.555 15.6857 169.355 17.0229 171 18.5143C172.646 20.0057 173.623 22.1657 173.675 24.3771" fill="#A6ACB3"/>
<path d="M196.303 24.3257C196.355 26.7943 195.172 29.1086 193.115 30.4971C191.16 31.9371 188.743 32.7086 186.326 32.6571C184.68 32.5543 183.035 32.2457 181.44 31.7314C180.875 31.5771 180.309 31.4229 179.743 31.32C179.332 31.32 178.972 31.5257 178.766 31.8857H177.943L176.915 24.48H177.84C178.252 26.3829 179.229 28.08 180.669 29.3657C182.16 30.6514 184.012 31.3714 185.966 31.32C187.612 31.3714 189.257 30.8571 190.595 29.88C191.932 28.8514 192.703 27.2571 192.652 25.6114C192.497 23.6571 191.469 21.8571 189.823 20.7257C188.28 19.5429 186.686 18.4114 185.04 17.3829C183.189 16.2514 181.389 14.9657 179.743 13.5257C178.097 12.0857 177.12 10.08 177.069 7.86857C177.017 5.14285 178.715 2.62285 181.337 1.74857C182.726 1.13142 184.217 0.771424 185.76 0.822853C187.457 0.822853 189.103 1.13142 190.646 1.64571C191.16 1.85142 191.675 1.95428 192.24 2.00571C192.6 2.00571 192.96 1.8 193.115 1.49142H193.886L194.709 7.71428H193.886C193.269 6.12 192.24 4.68 190.903 3.65142C189.515 2.57142 187.869 2.00571 186.12 2.05714C184.783 2.00571 183.446 2.41714 182.366 3.18857C181.286 4.01142 180.72 5.29714 180.772 6.63428C180.926 8.58857 181.955 10.3371 183.549 11.4171C185.092 12.5486 186.686 13.6286 188.332 14.6057C190.235 15.7371 192.035 17.0743 193.68 18.5657C195.326 20.0571 196.252 22.2171 196.303 24.4286" fill="#A6ACB3"/>
<path d="M82.286 47.9829C81.3603 47.9829 80.8974 48.4457 80.8974 49.2171V51.9429C79.2517 52.7657 77.4517 53.2286 75.6517 53.1771C74.5203 53.1771 73.3888 52.92 72.3603 52.3543C71.3317 51.7886 70.5603 50.9143 70.046 49.8343C69.5831 48.9086 69.326 47.9314 69.326 46.9029C69.2745 45.2571 69.8917 43.6629 70.9717 42.4286C72.2574 40.9371 74.1603 40.1657 76.1146 40.2686C77.246 40.32 78.3774 40.4743 79.4574 40.8343C79.6117 40.8857 79.8174 40.9371 79.9717 40.9886C80.126 40.9886 80.2803 40.9371 80.4346 40.8343H80.6917V43.9714H80.2803C79.9717 42.0171 78.2231 40.6286 76.2688 40.7829C74.7774 40.7314 73.3374 41.4 72.4117 42.5829C71.486 43.7657 71.0231 45.2571 71.0746 46.8C70.9717 48.3943 71.5888 49.9886 72.7203 51.12C73.5946 52.0457 74.8288 52.56 76.1146 52.56C77.1431 52.56 78.1717 52.3029 79.0974 51.7886V49.2686C79.1488 48.8571 79.046 48.3943 78.7374 48.0857C78.3774 47.8286 77.9146 47.7257 77.5031 47.7771H76.8346V47.4171H82.1317V47.9829H82.286Z" fill="#A6ACB3"/>
<path d="M105.532 44.0228C105.634 42.84 105.017 41.6571 103.937 41.0914C103.166 40.7828 102.394 40.6286 101.572 40.68C101.263 40.68 100.903 40.68 100.594 40.68V47.3143C100.8 47.3143 101.263 47.3143 101.88 47.3143C104.349 47.3143 105.583 46.1828 105.583 43.92M112.629 53.2286H111.806C110.829 53.28 109.852 53.1257 108.926 52.7657C107.949 52.2514 107.074 51.6343 106.354 50.8114L105.069 49.5257C104.452 48.8571 103.732 48.24 103.012 47.7257H101.623H100.594V51.1714C100.594 51.9428 100.8 52.4057 101.263 52.56C101.572 52.6628 101.88 52.7143 102.189 52.7143H102.652V53.1257H96.8916V52.7657H97.2516C97.7145 52.8171 98.1773 52.7143 98.5373 52.4057C98.7945 52.0457 98.8973 51.5828 98.8973 51.12V42.48C98.9487 42.0171 98.8459 41.5543 98.5887 41.1943C98.2287 40.9371 97.8173 40.7828 97.3545 40.8343H96.8916V40.4743C97.1487 40.4743 97.7659 40.4743 98.6402 40.3714H99.4116C100.286 40.3714 101.109 40.3714 101.983 40.3714C103.423 40.2686 104.863 40.6286 106.046 41.4C106.869 41.9657 107.383 42.9428 107.332 43.9714C107.332 44.7428 107.074 45.5143 106.56 46.08C106.046 46.6457 105.377 47.0571 104.657 47.2628C105.48 47.9314 106.252 48.6 106.972 49.3714L108.566 50.9657C109.286 51.7371 110.109 52.3028 111.086 52.7143C111.549 52.8686 112.063 52.9714 112.526 53.0228L112.629 53.2286Z" fill="#A6ACB3"/>
<path d="M139.423 47.1086C139.475 45.4628 138.909 43.8686 137.88 42.6343C136.852 41.5028 135.412 40.8343 133.869 40.8857C132.429 40.8857 131.04 41.6057 130.217 42.7886C129.446 43.8686 129.035 45.2057 129.035 46.5428C129.035 47.6228 129.24 48.7028 129.703 49.68C130.166 50.6057 130.937 51.3771 131.812 51.8914C132.686 52.4057 133.663 52.7143 134.692 52.7143C136.595 52.8171 138.292 51.6343 138.909 49.8343C139.269 48.96 139.475 48.0343 139.423 47.1086ZM141.326 46.44C141.377 48.2914 140.657 50.04 139.32 51.2743C137.983 52.5086 136.235 53.2286 134.435 53.1771C133.252 53.1771 132.069 52.92 130.989 52.4571C129.909 51.9943 128.983 51.2228 128.315 50.2457C127.697 49.32 127.337 48.1886 127.337 47.0571C127.337 45.8743 127.646 44.64 128.263 43.6114C128.88 42.5828 129.755 41.7086 130.835 41.1943C131.966 40.6286 133.252 40.32 134.537 40.32C136.337 40.2686 138.086 40.8857 139.423 42.0686C140.709 43.1486 141.48 44.7428 141.429 46.3886" fill="#A6ACB3"/>
<path d="M171.36 40.7314C170.846 40.68 170.332 40.8857 169.92 41.1943C169.612 41.6057 169.458 42.0686 169.509 42.5829V48.0343C169.509 49.0628 169.252 50.0914 168.686 50.9657C168.12 51.7886 167.298 52.4571 166.32 52.7657C165.446 53.0743 164.52 53.2286 163.595 53.2286C162 53.3314 160.458 52.8171 159.275 51.7886C158.298 50.8628 157.732 49.5257 157.783 48.1886V42.2743C157.783 41.5028 157.578 40.9886 157.166 40.8857C156.806 40.7828 156.446 40.7314 156.035 40.7314V40.3714H161.178V40.7314H160.972C160.509 40.68 160.046 40.7829 159.686 41.04C159.378 41.3486 159.275 41.76 159.326 42.2228V47.8286C159.275 49.0628 159.738 50.2457 160.612 51.0686C161.538 51.84 162.772 52.2514 163.955 52.1486C167.04 52.1486 168.532 50.7086 168.532 47.7771V43.0971C168.532 41.8629 168.275 41.1943 167.863 40.9371C167.452 40.7828 166.989 40.7314 166.578 40.68V40.32H171.309L171.36 40.7314Z" fill="#A6ACB3"/>
<path d="M194.452 43.8686C194.452 41.76 193.32 40.7314 191.109 40.7314C190.646 40.7314 190.183 40.7829 189.72 40.8343V47.3143C190.08 47.4171 190.44 47.4686 190.852 47.4686C192.189 47.5714 193.423 46.9029 194.092 45.72C194.297 45.1543 194.452 44.5371 194.452 43.8686ZM196.354 43.8686C196.406 45.0514 195.84 46.2343 194.812 46.8514C193.783 47.4686 192.652 47.7771 191.417 47.7257C190.852 47.7257 190.234 47.6743 189.669 47.5714V51.12C189.617 51.5829 189.72 52.0457 190.029 52.4057C190.389 52.6629 190.852 52.8171 191.314 52.7657H191.932V53.1771H186.274V52.7657H186.532C186.892 52.8171 187.252 52.7143 187.56 52.56C187.817 52.3028 187.92 51.9429 187.869 51.5829V42.0171C187.869 41.2971 187.56 40.9371 186.892 40.9371H185.863V40.5771L188.486 40.4228C189.514 40.4228 190.337 40.4228 191.006 40.4228C192.497 40.2686 193.989 40.68 195.223 41.6057C195.892 42.2229 196.303 43.0971 196.252 44.0228" fill="#A6ACB3"/>
</g>
<defs>
<clipPath id="clip0_210_5642">
<rect width="195.943" height="54" fill="white" transform="translate(0.463135)"/>
</clipPath>
</defs>
</svg>
