<svg width="96" height="70" viewBox="0 0 96 70" fill="none" xmlns="http://www.w3.org/2000/svg">
<g clip-path="url(#clip0_70_13929)">
<path d="M19.8998 67.1318C17.964 69.0698 15.0991 70 11.3824 70C7.66569 70 4.80074 69.0698 2.86496 67.1318C0.929175 65.1938 0 62.6357 0 59.3798V44.186H5.49762V59.2248C5.49762 61.0853 6.03964 62.4806 7.04624 63.5659C8.05285 64.6512 9.52404 65.1938 11.4598 65.1938C13.3956 65.1938 14.7894 64.6512 15.8734 63.5659C16.88 62.4806 17.422 61.0077 17.422 59.2248V42.6357L22.9196 40.3101V59.3798C22.8422 62.6357 21.8356 65.1938 19.8998 67.1318Z" fill="#A6ACB3"/>
<path d="M33.218 69.5349H27.7979V44.186H39.6448C42.2775 44.186 44.3681 44.9612 45.9168 46.5116C47.388 48.062 48.1623 50 48.1623 52.3256C48.1623 54.6512 47.388 56.5891 45.9168 58.1395C44.3681 59.6899 42.3549 60.4651 39.7223 60.4651H33.2955V69.5349H33.218ZM38.9479 55.7364C40.032 55.7364 40.9612 55.4263 41.658 54.8062C42.3549 54.186 42.6646 53.3333 42.6646 52.3256C42.6646 51.3178 42.3549 50.4651 41.658 49.845C40.9612 49.2248 40.032 48.9147 38.9479 48.9147H33.218V55.7364H38.9479Z" fill="#A6ACB3"/>
<path d="M69.3783 69.5349H51.4917V44.186H69.3783V48.9147H56.9119V54.2636H69.146V58.9922H56.9119V64.7287H69.4557V69.5349H69.3783Z" fill="#A6ACB3"/>
<path d="M91.6786 61.7054C91.1366 62.7132 90.3623 63.5659 89.3557 64.186C88.2716 64.8837 87.1102 65.1938 85.8713 65.1938C83.5483 65.1938 81.69 64.4186 80.1414 62.8682C78.6702 61.3178 77.8958 59.3023 77.8958 56.8992C77.8958 54.4961 78.6702 52.4806 80.1414 50.9302C81.6125 49.3798 83.5483 48.6046 85.8713 48.6046C87.1102 48.6046 88.2716 48.9147 89.3557 49.6124C89.9751 50 90.5171 50.5426 90.9817 51.0853L94.7759 47.6744C92.5304 45.1163 89.588 43.7984 85.7938 43.7984C81.9223 43.7984 78.7476 45.0388 76.1924 47.4419C73.6371 49.9225 72.3208 53.0233 72.3208 56.8992C72.3208 60.7752 73.6371 63.876 76.1924 66.3566C78.7476 68.8372 81.9997 70 85.7938 70C89.8977 70 93.0724 68.3721 95.4727 65.1938L91.6786 61.7054Z" fill="#A6ACB3"/>
<path d="M95.8599 15.5039L22.8423 40.3101V24.8062L95.8599 0V15.5039Z" fill="#A6ACB3"/>
</g>
<defs>
<clipPath id="clip0_70_13929">
<rect width="95.8599" height="70" fill="white"/>
</clipPath>
</defs>
</svg>
