<svg width="18" height="18" viewBox="0 0 18 18" fill="none" xmlns="http://www.w3.org/2000/svg">
<path d="M1.44464 3.02119C1.78097 2.51669 3.21039 0.919115 4.21938 1.0032C4.55572 1.08728 4.80796 1.17136 5.06021 1.42361C5.90104 2.26444 6.57371 3.18936 7.16229 4.19835C7.33046 5.20735 6.15329 5.71185 6.57371 6.72085C7.41454 8.90701 9.0962 10.5887 11.2824 11.4295C12.2914 11.7658 12.8799 10.5887 13.8049 10.8409C14.8138 11.4295 15.7388 12.1022 16.5796 12.943C16.8318 13.1952 17 13.4475 17 13.7838C17 14.8769 15.3183 16.3904 14.982 16.5586C14.2253 17.1471 13.2163 17.1471 11.955 16.5586C8.50762 15.1292 2.95814 9.66375 1.52873 6.04818C0.940144 4.78694 0.940144 3.77794 1.44464 3.02119Z" stroke="white" stroke-miterlimit="10" stroke-linecap="round" stroke-linejoin="round"/>
</svg>
