<svg width="21" height="24" viewBox="0 0 21 24" fill="none" xmlns="http://www.w3.org/2000/svg">
<path d="M2.20867 19.9597C2.38037 19.9598 2.55021 19.9242 2.70746 19.8552C2.86471 19.7863 3.00595 19.6855 3.12226 19.5592C3.46895 19.6534 3.8271 19.6986 4.18632 19.6936C5.14876 19.6936 6.33657 19.4335 7.6442 18.9515C7.75703 19.3734 7.88148 19.7756 8.01728 20.1549C8.78603 22.302 9.84493 23.4845 10.9989 23.4845C12.153 23.4845 13.2119 22.302 13.9807 20.1549C14.1161 19.7766 14.2402 19.3755 14.3528 18.9549C14.4302 18.9834 14.5077 19.0124 14.5846 19.0393C15.8238 19.4764 16.9096 19.6974 17.7955 19.6974C18.148 19.7018 18.4994 19.6586 18.8403 19.5691C18.9652 19.701 19.1175 19.804 19.2865 19.8708C19.4554 19.9376 19.637 19.9666 19.8183 19.9558C19.9997 19.945 20.1765 19.8947 20.3363 19.8083C20.4962 19.722 20.6352 19.6017 20.7437 19.456C20.8521 19.3102 20.9273 19.1425 20.9641 18.9646C21.0009 18.7866 20.9983 18.6028 20.9565 18.426C20.9147 18.2492 20.8347 18.0837 20.7222 17.9411C20.6096 17.7984 20.4673 17.6822 20.305 17.6004C20.2539 16.2322 19.1439 14.3733 17.331 12.4722C17.9305 11.8509 18.4826 11.1855 18.9826 10.4816C20.2897 8.61425 20.6432 7.06583 19.978 6.12149C19.6763 5.69319 19.1905 5.41864 18.5348 5.30553C17.4914 5.12567 16.0472 5.36272 14.3514 5.98906C14.328 5.90099 14.3046 5.81267 14.2798 5.72614C13.7583 3.89183 13.053 2.58692 12.2326 1.93264C12.2572 1.75625 12.2436 1.57665 12.1928 1.40596C12.142 1.23527 12.0552 1.07745 11.9383 0.943151C11.8213 0.808852 11.6769 0.701197 11.5148 0.627446C11.3527 0.553695 11.1767 0.515564 10.9986 0.515625C10.8205 0.515686 10.6445 0.553937 10.4825 0.627799C10.3204 0.701661 10.1761 0.809415 10.0593 0.943794C9.9424 1.07817 9.85571 1.23605 9.80505 1.40678C9.75438 1.57751 9.74092 1.75711 9.76557 1.93349C9.29875 2.30759 8.87129 2.89742 8.49667 3.65797C8.4802 3.69087 8.47041 3.7267 8.46786 3.7634C8.46531 3.8001 8.47006 3.83694 8.48183 3.87179C8.4936 3.90665 8.51215 3.93883 8.53642 3.96647C8.56069 3.99412 8.5902 4.01668 8.62323 4.03286C8.65627 4.04904 8.69219 4.05852 8.72891 4.06075C8.76563 4.06298 8.80243 4.05791 8.83718 4.04584C8.87193 4.03377 8.90394 4.01493 8.93138 3.99042C8.95881 3.96591 8.98112 3.93621 8.99701 3.90303C9.29565 3.29502 9.62771 2.81178 9.98467 2.48464C10.0995 2.64673 10.2515 2.77893 10.428 2.87017C10.6044 2.96141 10.8002 3.00903 10.9988 3.00904C11.1975 3.00905 11.3932 2.96145 11.5697 2.87022C11.7462 2.779 11.8982 2.64681 12.013 2.48474C12.7447 3.15505 13.3719 4.48058 13.8207 6.19367C12.8502 6.5915 11.9075 7.05386 10.9988 7.57766C10.0901 7.05387 9.1474 6.59154 8.17693 6.19377C8.23084 5.98808 8.28721 5.78808 8.34606 5.59377C8.35726 5.5572 8.36081 5.51871 8.35648 5.48071C8.35216 5.44271 8.34005 5.40601 8.32092 5.37289C8.3018 5.33977 8.27605 5.31094 8.24529 5.28821C8.21453 5.26548 8.17942 5.24932 8.14215 5.24075L8.13849 5.23991C8.06985 5.22409 7.99777 5.23486 7.93676 5.27006C7.87574 5.30526 7.83033 5.36227 7.80967 5.42961C7.75395 5.61167 7.70045 5.79852 7.64917 5.99014C5.95201 5.36281 4.50676 5.12525 3.46262 5.30539C2.80665 5.4185 2.32107 5.69305 2.01939 6.12134C1.35423 7.06569 1.70771 8.61411 3.01478 10.4815C3.51501 11.1859 4.06739 11.8519 4.66726 12.4737C2.86506 14.3641 1.75553 16.2143 1.69337 17.5789C1.43425 17.6967 1.22326 17.8997 1.0955 18.1541C0.967735 18.4085 0.930886 18.6989 0.991077 18.9771C1.05127 19.2554 1.20488 19.5046 1.42636 19.6834C1.64784 19.8623 1.92386 19.9599 2.20853 19.9601L2.20867 19.9597ZM10.9988 2.44677C10.8634 2.44704 10.7309 2.40711 10.6182 2.33206C10.5054 2.257 10.4175 2.15018 10.3655 2.02513C10.3135 1.90007 10.2998 1.7624 10.3261 1.62954C10.3524 1.49668 10.4175 1.37461 10.5132 1.27878C10.6089 1.18295 10.7309 1.11767 10.8637 1.09121C10.9965 1.06475 11.1342 1.07829 11.2594 1.13012C11.3845 1.18195 11.4914 1.26974 11.5666 1.38237C11.6418 1.49501 11.6819 1.62743 11.6818 1.76286C11.6817 1.94405 11.6097 2.1178 11.4817 2.246C11.3537 2.37421 11.18 2.44641 10.9988 2.44677ZM7.55012 15.0543C7.897 15.3233 8.25385 15.5876 8.6207 15.8471C9.22253 16.2728 9.82913 16.6693 10.4345 17.0349C9.65793 17.4678 8.85702 17.8555 8.03575 18.196C7.80246 17.161 7.64021 16.1113 7.55012 15.0543ZM13.451 19.9655C12.7782 21.8445 11.8844 22.9222 10.9988 22.9222C10.1132 22.9222 9.21948 21.8445 8.54668 19.9655C8.40971 19.5829 8.28465 19.1757 8.17168 18.7479C9.14306 18.3504 10.0868 17.8884 10.9965 17.3651C11.907 17.8904 12.8519 18.3536 13.8249 18.7515C13.7123 19.1782 13.5873 19.584 13.451 19.9655ZM13.9611 18.1995C13.1375 17.8599 12.3348 17.4715 11.5574 17.0366C12.1626 16.6722 12.7714 16.2752 13.377 15.8471C13.7432 15.588 14.1001 15.3237 14.4475 15.0543C14.3573 16.1125 14.1948 17.1634 13.9611 18.1995ZM20.4271 18.7132C20.4268 18.8483 20.3865 18.9802 20.3113 19.0923C20.2361 19.2044 20.1293 19.2917 20.0045 19.3432C19.8797 19.3947 19.7424 19.408 19.61 19.3815C19.4776 19.355 19.3561 19.2898 19.2607 19.1943C19.1653 19.0987 19.1004 18.977 19.0742 18.8446C19.0479 18.7121 19.0616 18.5749 19.1133 18.4501C19.165 18.3254 19.2526 18.2188 19.3648 18.1439C19.4771 18.0689 19.6091 18.0289 19.7441 18.0289C19.9254 18.0292 20.0991 18.1015 20.2271 18.2298C20.3552 18.3581 20.4271 18.532 20.4271 18.7132ZM17.9968 14.084C19.037 15.3887 19.6421 16.5727 19.7329 17.4669C19.5404 17.4687 19.3509 17.5151 19.1793 17.6025C19.0078 17.6898 18.8588 17.8157 18.7441 17.9703C18.6293 18.125 18.552 18.304 18.5181 18.4936C18.4842 18.6831 18.4947 18.8779 18.5488 19.0626C17.66 19.2533 16.3376 19.0618 14.7716 18.5095C14.6783 18.4767 14.5841 18.4418 14.4903 18.4067C14.7782 17.1462 14.9653 15.8649 15.0498 14.5747C15.7285 14.0193 16.3615 13.4493 16.9374 12.8755C17.3233 13.2806 17.6787 13.6852 17.9968 14.084ZM15.0935 11.1406C15.6076 11.5785 16.0938 12.0253 16.544 12.4738C16.0948 12.9216 15.6093 13.3676 15.0933 13.8062C15.1126 13.3668 15.1223 12.922 15.1224 12.4719C15.1224 12.0229 15.1128 11.5791 15.0935 11.1406ZM18.4393 5.85974C18.9427 5.94655 19.3057 6.14352 19.5182 6.44525C20.0292 7.17069 19.6661 8.52425 18.5219 10.1589C18.042 10.8346 17.5124 11.4737 16.9375 12.0708C16.3656 11.5005 15.7331 10.9294 15.0493 10.3692C14.9652 9.07813 14.7778 7.79587 14.4889 6.53474C16.067 5.94303 17.4557 5.69 18.4393 5.85974ZM13.9556 6.74422C14.1883 7.7798 14.3515 8.82978 14.444 9.88714C14.0992 9.61977 13.7435 9.35627 13.377 9.09664C12.7759 8.67153 12.168 8.27417 11.5601 7.90752C12.3354 7.47369 13.1353 7.08525 13.9556 6.74417V6.74422ZM10.9989 8.22824C11.6813 8.6292 12.3701 9.07344 13.052 9.55588C13.5511 9.90894 14.0364 10.2756 14.5025 10.6512C14.54 11.2459 14.5598 11.8546 14.5598 12.4719C14.5598 13.0891 14.541 13.6974 14.5045 14.2928C14.0402 14.666 13.5561 15.031 13.052 15.3879C12.3701 15.8702 11.6802 16.3141 10.9962 16.7148C10.3131 16.3129 9.6264 15.8695 8.94549 15.3878C8.44268 15.0321 7.95853 14.6671 7.49303 14.2927C7.45646 13.6974 7.43776 13.0887 7.43776 12.4718C7.43776 11.855 7.45754 11.246 7.49504 10.6513C7.95775 10.2784 8.44234 9.9117 8.94549 9.55583C9.62757 9.07339 10.3164 8.62916 10.9989 8.22819V8.22824ZM8.04203 6.74413C8.86231 7.08521 9.6621 7.47364 10.4373 7.90747C9.82946 8.27413 9.22149 8.67153 8.62046 9.09659C8.25415 9.35572 7.89843 9.6193 7.55331 9.88733C7.64592 8.82987 7.80919 7.77979 8.04203 6.74413ZM3.47574 10.1588C2.33157 8.5242 1.96843 7.17064 2.47942 6.4452C2.69195 6.14347 3.05495 5.9465 3.55839 5.85969C4.54276 5.68981 5.93246 5.94331 7.51234 6.53581C7.22366 7.79655 7.0354 9.07819 6.94932 10.3687C6.26546 10.9288 5.63298 11.5004 5.06078 12.0713C4.48566 11.4741 3.95585 10.8348 3.47574 10.1588ZM6.90428 13.8061C6.38865 13.3678 5.90359 12.9223 5.45467 12.4749C5.90195 12.0289 6.38748 11.5818 6.90489 11.1406C6.88548 11.5781 6.8756 12.0219 6.87526 12.4719C6.87526 12.9213 6.88493 13.3661 6.90428 13.8061ZM5.06157 12.8765C5.63706 13.4499 6.26973 14.0196 6.94806 14.5747C7.03253 15.8639 7.2194 17.1443 7.5069 18.4038C5.83159 19.0317 4.37481 19.2809 3.40646 19.0541C3.45797 18.8732 3.46789 18.6831 3.43548 18.4979C3.40307 18.3127 3.32917 18.1373 3.21931 17.9847C3.10945 17.8321 2.96649 17.7064 2.80113 17.6169C2.63578 17.5274 2.45232 17.4765 2.2645 17.468C2.38337 16.2583 3.42601 14.5921 5.06157 12.8765ZM2.20867 18.0291C2.34408 18.0288 2.47654 18.0687 2.58927 18.1437C2.702 18.2188 2.78993 18.3256 2.84195 18.4506C2.89396 18.5756 2.90772 18.7133 2.88147 18.8461C2.85522 18.979 2.79015 19.101 2.6945 19.1969C2.59884 19.2927 2.4769 19.3581 2.34411 19.3846C2.21131 19.4111 2.07364 19.3976 1.9485 19.3459C1.82336 19.2941 1.7164 19.2064 1.64113 19.0938C1.56587 18.9813 1.5257 18.8489 1.5257 18.7135C1.5257 18.5322 1.59761 18.3583 1.72565 18.23C1.85369 18.1017 2.0274 18.0295 2.20867 18.0291Z" fill="#A6ACB3"/>
</svg>
