<svg width="189" height="185" viewBox="0 0 189 185" fill="none" xmlns="http://www.w3.org/2000/svg">
<g style="mix-blend-mode:multiply">
<path fill-rule="evenodd" clip-rule="evenodd" d="M159.273 3.12483L156.149 3.12483L156.149 4.37473L159.273 4.37473L159.273 7.49945L160.523 7.49945L160.523 4.37473L163.648 4.37473L163.648 3.12483L160.523 3.12483L160.523 2.45872e-07L159.273 1.91237e-07L159.273 3.12483Z" fill="#DAE3F1"/>
<path fill-rule="evenodd" clip-rule="evenodd" d="M159.273 53.7014L156.149 53.7014L156.149 54.9513L159.273 54.9513L159.273 58.0761L160.523 58.0761L160.523 54.9513L163.648 54.9513L163.648 53.7014L160.523 53.7014L160.523 50.5767L159.273 50.5767L159.273 53.7014Z" fill="#DAE3F1"/>
<path fill-rule="evenodd" clip-rule="evenodd" d="M159.266 28.4128L156.145 28.4128L156.145 29.6627L159.266 29.6627L159.266 32.7875L160.516 32.7875L160.516 29.6627L163.645 29.6627L163.645 28.4128L160.516 28.4128L160.516 25.2881L159.266 25.2881L159.266 28.4128Z" fill="#DAE3F1"/>
<path fill-rule="evenodd" clip-rule="evenodd" d="M159.27 78.9896L156.145 78.9896L156.145 80.2395L159.27 80.2395L159.27 83.3642L160.519 83.3642L160.519 80.2395L163.645 80.2395L163.645 78.9896L160.519 78.9896L160.519 75.8647L159.27 75.8647L159.27 78.9896Z" fill="#DAE3F1"/>
<path fill-rule="evenodd" clip-rule="evenodd" d="M159.27 104.277L156.149 104.277L156.149 105.527L159.27 105.527L159.27 108.652L160.519 108.652L160.519 105.527L163.648 105.527L163.648 104.277L160.519 104.277L160.519 101.153L159.27 101.153L159.27 104.277Z" fill="#DAE3F1"/>
<path fill-rule="evenodd" clip-rule="evenodd" d="M159.27 154.854L156.145 154.854L156.145 156.104L159.27 156.104L159.27 159.228L160.519 159.228L160.519 156.104L163.645 156.104L163.645 154.854L160.519 154.854L160.519 151.729L159.27 151.729L159.27 154.854Z" fill="#DAE3F1"/>
<path fill-rule="evenodd" clip-rule="evenodd" d="M159.273 129.566L156.149 129.566L156.149 130.816L159.273 130.816L159.273 133.94L160.523 133.94L160.523 130.816L163.648 130.816L163.648 129.566L160.523 129.566L160.523 126.441L159.273 126.441L159.273 129.566Z" fill="#DAE3F1"/>
<path fill-rule="evenodd" clip-rule="evenodd" d="M159.273 180.142L156.149 180.142L156.149 181.392L159.273 181.392L159.273 184.517L160.523 184.517L160.523 181.392L163.648 181.392L163.648 180.142L160.523 180.142L160.523 177.017L159.273 177.017L159.273 180.142Z" fill="#DAE3F1"/>
<path fill-rule="evenodd" clip-rule="evenodd" d="M184.621 3.12505L181.501 3.12505L181.501 4.37495L184.621 4.37495L184.621 7.49945L185.871 7.49945L185.871 4.37496L189 4.37496L189 3.12505L185.871 3.12505L185.871 2.46043e-07L184.621 1.91408e-07L184.621 3.12505Z" fill="#DAE3F1"/>
<path fill-rule="evenodd" clip-rule="evenodd" d="M133.91 3.12519L130.786 3.12519L130.786 4.3751L133.91 4.3751L133.91 7.49993L135.16 7.49993L135.16 4.3751L138.285 4.3751L138.285 3.12519L135.16 3.12519L135.16 0.000488527L133.91 0.000488472L133.91 3.12519Z" fill="#DAE3F1"/>
<path fill-rule="evenodd" clip-rule="evenodd" d="M184.621 53.7009L181.501 53.7009L181.501 54.9508L184.621 54.9508L184.621 58.0756L185.871 58.0756L185.871 54.9508L189 54.9508L189 53.7009L185.871 53.7009L185.871 50.5762L184.621 50.5762L184.621 53.7009Z" fill="#DAE3F1"/>
<path fill-rule="evenodd" clip-rule="evenodd" d="M133.91 53.7014L130.786 53.7014L130.786 54.9513L133.91 54.9513L133.91 58.0761L135.16 58.0761L135.16 54.9513L138.285 54.9513L138.285 53.7014L135.16 53.7014L135.16 50.5767L133.91 50.5767L133.91 53.7014Z" fill="#DAE3F1"/>
<path fill-rule="evenodd" clip-rule="evenodd" d="M184.621 28.4128L181.501 28.4128L181.501 29.6627L184.621 29.6627L184.621 32.7875L185.871 32.7875L185.871 29.6627L189 29.6627L189 28.4128L185.871 28.4128L185.871 25.2881L184.621 25.2881L184.621 28.4128Z" fill="#DAE3F1"/>
<path fill-rule="evenodd" clip-rule="evenodd" d="M133.91 28.4135L130.786 28.4135L130.786 29.6634L133.91 29.6634L133.91 32.788L135.16 32.788L135.16 29.6634L138.285 29.6634L138.285 28.4135L135.16 28.4135L135.16 25.2886L133.91 25.2886L133.91 28.4135Z" fill="#DAE3F1"/>
<path fill-rule="evenodd" clip-rule="evenodd" d="M184.621 78.9893L181.501 78.9893L181.501 80.2392L184.621 80.2392L184.621 83.3642L185.871 83.3642L185.871 80.2392L189 80.2392L189 78.9893L185.871 78.9893L185.871 75.8647L184.621 75.8647L184.621 78.9893Z" fill="#DAE3F1"/>
<path fill-rule="evenodd" clip-rule="evenodd" d="M133.91 78.9895L130.786 78.9895L130.786 80.2394L133.91 80.2394L133.91 83.3642L135.16 83.3642L135.16 80.2394L138.285 80.2394L138.285 78.9895L135.16 78.9895L135.16 75.8647L133.91 75.8647L133.91 78.9895Z" fill="#DAE3F1"/>
<path fill-rule="evenodd" clip-rule="evenodd" d="M184.621 104.277L181.501 104.277L181.501 105.527L184.621 105.527L184.621 108.652L185.871 108.652L185.871 105.527L189 105.527L189 104.277L185.871 104.277L185.871 101.153L184.621 101.153L184.621 104.277Z" fill="#DAE3F1"/>
<path fill-rule="evenodd" clip-rule="evenodd" d="M133.91 104.278L130.786 104.278L130.786 105.528L133.91 105.528L133.91 108.652L135.16 108.652L135.16 105.528L138.285 105.528L138.285 104.278L135.16 104.278L135.16 101.153L133.91 101.153L133.91 104.278Z" fill="#DAE3F1"/>
<path fill-rule="evenodd" clip-rule="evenodd" d="M184.621 154.854L181.501 154.854L181.501 156.104L184.621 156.104L184.621 159.228L185.871 159.228L185.871 156.104L189 156.104L189 154.854L185.871 154.854L185.871 151.729L184.621 151.729L184.621 154.854Z" fill="#DAE3F1"/>
<path fill-rule="evenodd" clip-rule="evenodd" d="M133.91 154.854L130.786 154.854L130.786 156.104L133.91 156.104L133.91 159.228L135.16 159.228L135.16 156.104L138.285 156.104L138.285 154.854L135.16 154.854L135.16 151.729L133.91 151.729L133.91 154.854Z" fill="#DAE3F1"/>
<path fill-rule="evenodd" clip-rule="evenodd" d="M184.621 129.566L181.501 129.566L181.501 130.816L184.621 130.816L184.621 133.94L185.871 133.94L185.871 130.816L189 130.816L189 129.566L185.871 129.566L185.871 126.441L184.621 126.441L184.621 129.566Z" fill="#DAE3F1"/>
<path fill-rule="evenodd" clip-rule="evenodd" d="M133.91 129.566L130.786 129.566L130.786 130.816L133.91 130.816L133.91 133.94L135.16 133.94L135.16 130.816L138.285 130.816L138.285 129.566L135.16 129.566L135.16 126.441L133.91 126.441L133.91 129.566Z" fill="#DAE3F1"/>
<path fill-rule="evenodd" clip-rule="evenodd" d="M184.621 180.142L181.501 180.142L181.501 181.392L184.621 181.392L184.621 184.517L185.871 184.517L185.871 181.392L189 181.392L189 180.142L185.871 180.142L185.871 177.017L184.621 177.017L184.621 180.142Z" fill="#DAE3F1"/>
<path fill-rule="evenodd" clip-rule="evenodd" d="M133.91 180.142L130.786 180.142L130.786 181.392L133.91 181.392L133.91 184.517L135.16 184.517L135.16 181.392L138.285 181.392L138.285 180.142L135.16 180.142L135.16 177.018L133.91 177.018L133.91 180.142Z" fill="#DAE3F1"/>
<path fill-rule="evenodd" clip-rule="evenodd" d="M108.559 3.12531L105.434 3.12531L105.434 4.37522L108.559 4.37522L108.559 7.49993L109.809 7.49993L109.809 4.37522L112.934 4.37522L112.934 3.12531L109.809 3.12531L109.809 0.000488527L108.559 0.000488472L108.559 3.12531Z" fill="#DAE3F1"/>
<path fill-rule="evenodd" clip-rule="evenodd" d="M57.8359 3.12483L54.7115 3.12483L54.7115 4.37473L57.8359 4.37473L57.8359 7.49945L59.0858 7.49945L59.0858 4.37473L62.2109 4.37473L62.2109 3.12483L59.0858 3.12483L59.0858 2.45872e-07L57.8359 1.91237e-07L57.8359 3.12483Z" fill="#DAE3F1"/>
<path fill-rule="evenodd" clip-rule="evenodd" d="M108.559 53.7009L105.434 53.7009L105.434 54.9508L108.559 54.9508L108.559 58.0756L109.809 58.0756L109.809 54.9508L112.934 54.9508L112.934 53.7009L109.809 53.7009L109.809 50.5762L108.559 50.5762L108.559 53.7009Z" fill="#DAE3F1"/>
<path fill-rule="evenodd" clip-rule="evenodd" d="M57.8359 53.7009L54.7115 53.7009L54.7115 54.9508L57.8359 54.9508L57.8359 58.0756L59.0858 58.0756L59.0858 54.9508L62.2109 54.9508L62.2109 53.7009L59.0858 53.7009L59.0858 50.5762L57.8359 50.5762L57.8359 53.7009Z" fill="#DAE3F1"/>
<path fill-rule="evenodd" clip-rule="evenodd" d="M108.559 28.4128L105.434 28.4128L105.434 29.6627L108.559 29.6627L108.559 32.7875L109.809 32.7875L109.809 29.6627L112.934 29.6627L112.934 28.4128L109.809 28.4128L109.809 25.2881L108.559 25.2881L108.559 28.4128Z" fill="#DAE3F1"/>
<path fill-rule="evenodd" clip-rule="evenodd" d="M57.832 28.4128L54.7115 28.4128L54.7115 29.6627L57.832 29.6627L57.832 32.7875L59.0819 32.7875L59.0819 29.6627L62.2109 29.6627L62.2109 28.4128L59.0819 28.4128L59.0819 25.2881L57.832 25.2881L57.832 28.4128Z" fill="#DAE3F1"/>
<path fill-rule="evenodd" clip-rule="evenodd" d="M108.559 78.9896L105.434 78.9896L105.434 80.2395L108.559 80.2395L108.559 83.3641L109.809 83.3641L109.809 80.2395L112.934 80.2395L112.934 78.9896L109.809 78.9896L109.809 75.8647L108.559 75.8647L108.559 78.9896Z" fill="#DAE3F1"/>
<path fill-rule="evenodd" clip-rule="evenodd" d="M57.8359 78.9889L54.7115 78.9889L54.7115 80.2388L57.8359 80.2388L57.8359 83.3636L59.0858 83.3636L59.0858 80.2388L62.2109 80.2388L62.2109 78.9889L59.0858 78.9889L59.0858 75.8642L57.8359 75.8642L57.8359 78.9889Z" fill="#DAE3F1"/>
<path fill-rule="evenodd" clip-rule="evenodd" d="M108.555 104.277L105.43 104.277L105.43 105.527L108.555 105.527L108.555 108.652L109.805 108.652L109.805 105.527L112.93 105.527L112.93 104.277L109.805 104.277L109.805 101.153L108.555 101.153L108.555 104.277Z" fill="#DAE3F1"/>
<path fill-rule="evenodd" clip-rule="evenodd" d="M57.832 104.277L54.7115 104.277L54.7115 105.527L57.832 105.527L57.832 108.652L59.0819 108.652L59.0819 105.527L62.2109 105.527L62.2109 104.277L59.0819 104.277L59.0819 101.153L57.832 101.153L57.832 104.277Z" fill="#DAE3F1"/>
<path fill-rule="evenodd" clip-rule="evenodd" d="M108.555 154.854L105.43 154.854L105.43 156.104L108.555 156.104L108.555 159.228L109.805 159.228L109.805 156.104L112.93 156.104L112.93 154.854L109.805 154.854L109.805 151.729L108.555 151.729L108.555 154.854Z" fill="#DAE3F1"/>
<path fill-rule="evenodd" clip-rule="evenodd" d="M57.8359 154.854L54.7115 154.854L54.7115 156.104L57.8359 156.104L57.8359 159.228L59.0858 159.228L59.0858 156.104L62.2109 156.104L62.2109 154.854L59.0858 154.854L59.0858 151.729L57.8359 151.729L57.8359 154.854Z" fill="#DAE3F1"/>
<path fill-rule="evenodd" clip-rule="evenodd" d="M108.555 129.566L105.43 129.566L105.43 130.816L108.555 130.816L108.555 133.94L109.805 133.94L109.805 130.816L112.93 130.816L112.93 129.566L109.805 129.566L109.805 126.441L108.555 126.441L108.555 129.566Z" fill="#DAE3F1"/>
<path fill-rule="evenodd" clip-rule="evenodd" d="M57.8359 129.566L54.7115 129.566L54.7115 130.815L57.8359 130.815L57.8359 133.94L59.0858 133.94L59.0858 130.815L62.2109 130.815L62.2109 129.566L59.0858 129.566L59.0858 126.441L57.8359 126.441L57.8359 129.566Z" fill="#DAE3F1"/>
<path fill-rule="evenodd" clip-rule="evenodd" d="M108.559 180.142L105.434 180.142L105.434 181.392L108.559 181.392L108.559 184.517L109.809 184.517L109.809 181.392L112.934 181.392L112.934 180.142L109.809 180.142L109.809 177.017L108.559 177.017L108.559 180.142Z" fill="#DAE3F1"/>
<path fill-rule="evenodd" clip-rule="evenodd" d="M57.8359 180.142L54.7115 180.142L54.7115 181.392L57.8359 181.392L57.8359 184.517L59.0858 184.517L59.0858 181.392L62.2109 181.392L62.2109 180.142L59.0858 180.142L59.0858 177.018L57.8359 177.018L57.8359 180.142Z" fill="#DAE3F1"/>
<path fill-rule="evenodd" clip-rule="evenodd" d="M83.1914 3.12483L80.0709 3.12483L80.0709 4.37473L83.1914 4.37473L83.1914 7.49945L84.4413 7.49945L84.4413 4.37473L87.5703 4.37473L87.5703 3.12483L84.4413 3.12483L84.4413 2.46043e-07L83.1914 1.91408e-07L83.1914 3.12483Z" fill="#DAE3F1"/>
<path fill-rule="evenodd" clip-rule="evenodd" d="M32.4729 3.12481L29.3521 3.12481L29.3521 4.37471L32.4729 4.37471L32.4729 7.49945L33.7228 7.49945L33.7228 4.37471L36.8516 4.37471L36.8516 3.12481L33.7228 3.12481L33.7228 2.46034e-07L32.4729 1.91399e-07L32.4729 3.12481Z" fill="#DAE3F1"/>
<g filter="url(#filter0_d_70_14648)">
<path fill-rule="evenodd" clip-rule="evenodd" d="M7.12109 3.12483L4.00055 3.12483L4.00055 4.37473L7.12109 4.37473L7.12109 7.49945L8.371 7.49945L8.371 4.37473L11.5 4.37473L11.5 3.12483L8.371 3.12483L8.371 2.46043e-07L7.12109 1.91408e-07L7.12109 3.12483Z" fill="#5CCC81"/>
</g>
<path fill-rule="evenodd" clip-rule="evenodd" d="M32.4729 53.7008L29.3521 53.7008L29.3521 54.9507L32.4729 54.9507L32.4729 58.0756L33.7228 58.0756L33.7228 54.9507L36.8516 54.9507L36.8516 53.7008L33.7228 53.7008L33.7228 50.5762L32.4729 50.5762L32.4729 53.7008Z" fill="#DAE3F1"/>
<path fill-rule="evenodd" clip-rule="evenodd" d="M32.4729 28.4127L29.3521 28.4127L29.3521 29.6626L32.4729 29.6626L32.4729 32.7875L33.7228 32.7875L33.7228 29.6626L36.8516 29.6626L36.8516 28.4127L33.7228 28.4127L33.7228 25.2881L32.4729 25.2881L32.4729 28.4127Z" fill="#DAE3F1"/>
<path fill-rule="evenodd" clip-rule="evenodd" d="M83.1914 53.7009L80.0709 53.7009L80.0709 54.9508L83.1914 54.9508L83.1914 58.0756L84.4413 58.0756L84.4413 54.9508L87.5703 54.9508L87.5703 53.7009L84.4413 53.7009L84.4413 50.5762L83.1914 50.5762L83.1914 53.7009Z" fill="#DAE3F1"/>
<path fill-rule="evenodd" clip-rule="evenodd" d="M7.12109 53.701L4.00055 53.701L4.00055 54.9509L7.12109 54.9509L7.12109 58.0756L8.371 58.0756L8.371 54.9509L11.5 54.9509L11.5 53.701L8.371 53.701L8.371 50.5762L7.12109 50.5762L7.12109 53.701Z" fill="#DAE3F1"/>
<path fill-rule="evenodd" clip-rule="evenodd" d="M32.4729 78.9889L29.3521 78.9889L29.3521 80.2388L32.4729 80.2388L32.4729 83.3637L33.7228 83.3637L33.7228 80.2388L36.8516 80.2388L36.8516 78.9889L33.7228 78.9889L33.7228 75.8643L32.4729 75.8643L32.4729 78.9889Z" fill="#DAE3F1"/>
<path fill-rule="evenodd" clip-rule="evenodd" d="M83.1914 28.4133L80.0709 28.4133L80.0709 29.6632L83.1914 29.6632L83.1914 32.788L84.4413 32.788L84.4413 29.6632L87.5703 29.6632L87.5703 28.4133L84.4413 28.4133L84.4413 25.2886L83.1914 25.2886L83.1914 28.4133Z" fill="#DAE3F1"/>
<path fill-rule="evenodd" clip-rule="evenodd" d="M32.4729 104.277L29.3521 104.277L29.3521 105.527L32.4729 105.527L32.4729 108.652L33.7228 108.652L33.7228 105.527L36.8516 105.527L36.8516 104.277L33.7228 104.277L33.7228 101.152L32.4729 101.152L32.4729 104.277Z" fill="#DAE3F1"/>
<path fill-rule="evenodd" clip-rule="evenodd" d="M7.12109 28.4129L4.00055 28.4129L4.00055 29.6628L7.12109 29.6628L7.12109 32.7875L8.371 32.7875L8.371 29.6628L11.5 29.6628L11.5 28.4129L8.371 28.4129L8.371 25.2881L7.12109 25.2881L7.12109 28.4129Z" fill="#DAE3F1"/>
<path fill-rule="evenodd" clip-rule="evenodd" d="M32.4729 154.854L29.3521 154.854L29.3521 156.104L32.4729 156.104L32.4729 159.228L33.7228 159.228L33.7228 156.104L36.8516 156.104L36.8516 154.854L33.7228 154.854L33.7228 151.729L32.4729 151.729L32.4729 154.854Z" fill="#DAE3F1"/>
<path fill-rule="evenodd" clip-rule="evenodd" d="M32.4729 129.566L29.3521 129.566L29.3521 130.816L32.4729 130.816L32.4729 133.94L33.7228 133.94L33.7228 130.816L36.8516 130.816L36.8516 129.566L33.7228 129.566L33.7228 126.441L32.4729 126.441L32.4729 129.566Z" fill="#DAE3F1"/>
<path fill-rule="evenodd" clip-rule="evenodd" d="M32.4729 180.141L29.3521 180.141L29.3521 181.391L32.4729 181.391L32.4729 184.516L33.7228 184.516L33.7228 181.391L36.8516 181.391L36.8516 180.141L33.7228 180.141L33.7228 177.017L32.4729 177.017L32.4729 180.141Z" fill="#DAE3F1"/>
<path fill-rule="evenodd" clip-rule="evenodd" d="M83.1914 78.9891L80.0709 78.9891L80.0709 80.239L83.1914 80.239L83.1914 83.3637L84.4413 83.3637L84.4413 80.239L87.5703 80.239L87.5703 78.9891L84.4413 78.9891L84.4413 75.8643L83.1914 75.8643L83.1914 78.9891Z" fill="#DAE3F1"/>
<path fill-rule="evenodd" clip-rule="evenodd" d="M7.12109 78.989L4.00055 78.989L4.00055 80.2389L7.12109 80.2389L7.12109 83.3637L8.371 83.3637L8.371 80.2389L11.5 80.2389L11.5 78.989L8.371 78.989L8.371 75.8643L7.12109 75.8643L7.12109 78.989Z" fill="#DAE3F1"/>
<path fill-rule="evenodd" clip-rule="evenodd" d="M83.1875 104.277L80.067 104.277L80.067 105.527L83.1875 105.527L83.1875 108.652L84.4374 108.652L84.4374 105.527L87.5664 105.527L87.5664 104.277L84.4374 104.277L84.4374 101.153L83.1875 101.153L83.1875 104.277Z" fill="#DAE3F1"/>
<path fill-rule="evenodd" clip-rule="evenodd" d="M7.12109 104.277L4.00055 104.277L4.00055 105.527L7.12109 105.527L7.12109 108.652L8.371 108.652L8.371 105.527L11.5 105.527L11.5 104.277L8.371 104.277L8.371 101.152L7.12109 101.152L7.12109 104.277Z" fill="#DAE3F1"/>
<path fill-rule="evenodd" clip-rule="evenodd" d="M83.1875 154.854L80.067 154.854L80.067 156.104L83.1875 156.104L83.1875 159.228L84.4374 159.228L84.4374 156.104L87.5664 156.104L87.5664 154.854L84.4374 154.854L84.4374 151.729L83.1875 151.729L83.1875 154.854Z" fill="#DAE3F1"/>
<path fill-rule="evenodd" clip-rule="evenodd" d="M7.12109 154.854L4.00055 154.854L4.00055 156.104L7.12109 156.104L7.12109 159.228L8.371 159.228L8.371 156.104L11.5 156.104L11.5 154.854L8.371 154.854L8.371 151.729L7.12109 151.729L7.12109 154.854Z" fill="#DAE3F1"/>
<path fill-rule="evenodd" clip-rule="evenodd" d="M83.1914 129.566L80.067 129.566L80.067 130.816L83.1914 130.816L83.1914 133.94L84.4413 133.94L84.4413 130.816L87.5664 130.816L87.5664 129.566L84.4413 129.566L84.4413 126.441L83.1914 126.441L83.1914 129.566Z" fill="#DAE3F1"/>
<path fill-rule="evenodd" clip-rule="evenodd" d="M7.12109 129.566L4.00055 129.566L4.00055 130.816L7.12109 130.816L7.12109 133.94L8.371 133.94L8.371 130.816L11.5 130.816L11.5 129.566L8.371 129.566L8.371 126.441L7.12109 126.441L7.12109 129.566Z" fill="#DAE3F1"/>
<path fill-rule="evenodd" clip-rule="evenodd" d="M83.1914 180.142L80.0709 180.142L80.0709 181.392L83.1914 181.392L83.1914 184.517L84.4413 184.517L84.4413 181.392L87.5703 181.392L87.5703 180.142L84.4413 180.142L84.4413 177.017L83.1914 177.017L83.1914 180.142Z" fill="#DAE3F1"/>
<path fill-rule="evenodd" clip-rule="evenodd" d="M7.12109 180.142L4.00055 180.142L4.00055 181.392L7.12109 181.392L7.12109 184.517L8.371 184.517L8.371 181.392L11.5 181.392L11.5 180.142L8.371 180.142L8.371 177.017L7.12109 177.017L7.12109 180.142Z" fill="#DAE3F1"/>
</g>
<defs>
<filter id="filter0_d_70_14648" x="0.000488281" y="0" width="15.4995" height="15.4995" filterUnits="userSpaceOnUse" color-interpolation-filters="sRGB">
<feFlood flood-opacity="0" result="BackgroundImageFix"/>
<feColorMatrix in="SourceAlpha" type="matrix" values="0 0 0 0 0 0 0 0 0 0 0 0 0 0 0 0 0 0 127 0" result="hardAlpha"/>
<feOffset dy="4"/>
<feGaussianBlur stdDeviation="2"/>
<feComposite in2="hardAlpha" operator="out"/>
<feColorMatrix type="matrix" values="0 0 0 0 0.36 0 0 0 0 0.8 0 0 0 0 0.506667 0 0 0 0.25 0"/>
<feBlend mode="normal" in2="BackgroundImageFix" result="effect1_dropShadow_70_14648"/>
<feBlend mode="normal" in="SourceGraphic" in2="effect1_dropShadow_70_14648" result="shape"/>
</filter>
</defs>
</svg>
